<svg xmlns="http://www.w3.org/2000/svg" xmlns:xlink="http://www.w3.org/1999/xlink" width="1587" zoomAndPan="magnify" viewBox="0 0 1180 1550" height="2245" preserveAspectRatio="xMidYMid meet" version="1.0"><defs><clipPath id="be74f1a027"><path d="M 193 153.085938 L 350 153.085938 L 350 402 L 193 402 Z M 193 153.085938 " clip-rule="nonzero"/></clipPath></defs><path id="leafstem" fill="#65a888" d="M 445.136719 506.699219 C 419.933594 466.851562 390.613281 428.804688 357.976562 393.640625 C 353.828125 389.171875 346.84375 388.917969 342.378906 393.066406 C 337.921875 397.203125 337.65625 404.1875 341.804688 408.65625 C 373.527344 442.832031 402.019531 479.785156 426.507812 518.503906 C 456.058594 565.082031 480.570312 615.222656 499.429688 667.679688 C 501.472656 673.351562 507.617188 676.363281 513.316406 674.410156 C 519.140625 672.414062 522.273438 666.003906 520.191406 660.210938 C 500.777344 606.21875 475.550781 554.621094 445.136719 506.699219 Z M 445.136719 506.699219 " fill-opacity="1" fill-rule="nonzero"/><path id="panda-body" fill="#efdaca" d="M 486.449219 539.625 C 479.386719 481.03125 476.078125 450.90625 486.449219 417.804688 C 495.050781 390.4375 501.667969 390.769531 540.828125 323.019531 C 543.917969 317.613281 546.785156 312.644531 549.433594 308.011719 C 581.75 250.523438 579.105469 244.011719 595.210938 228.230469 C 597.414062 226.023438 599.730469 224.039062 602.046875 222.050781 C 644.183594 186.851562 703.089844 187.292969 744.785156 187.625 C 754.492188 187.734375 780.523438 187.957031 813.503906 194.464844 C 794.863281 204.726562 774.566406 219.183594 772.027344 241.804688 C 769.269531 266.742188 789.679688 286.714844 799.164062 295.984375 C 806.554688 303.15625 835.566406 331.40625 867.222656 323.019531 C 889.835938 317.058594 901.085938 295.542969 908.035156 282.410156 C 914.542969 269.941406 920.058594 253.722656 922.816406 237.5 L 922.925781 237.5 C 936.496094 246.328125 949.730469 256.699219 962.417969 268.839844 C 985.25 291.019531 982.050781 296.09375 1043.933594 404.230469 C 1124.125 544.371094 1134.273438 544.371094 1152.695312 593.804688 C 1168.246094 635.515625 1172.328125 694.328125 1179.941406 810.414062 C 1170.453125 836.894531 1155.671875 892.839844 1139.125 945.804688 C 1104.378906 1057.253906 1096.660156 1104.371094 1071.179688 1108.34375 C 1049.007812 1111.765625 1040.953125 1078.441406 989.550781 1040.59375 C 969.144531 1025.585938 918.292969 992.371094 853.65625 986.414062 C 843.726562 985.53125 750.296875 980.785156 676.835938 1040.59375 C 608.886719 1095.984375 582.304688 1200.8125 568.074219 1257.199219 C 564.984375 1269.667969 562.117188 1282.800781 556.492188 1296.59375 L 556.382812 1296.59375 C 549.761719 1296.703125 536.96875 1296.039062 523.070312 1289.089844 C 511.488281 1283.242188 504.097656 1275.625 500.125 1270.773438 C 492.183594 1224.976562 477.070312 1192.535156 464.496094 1171.128906 C 442.65625 1133.832031 424.015625 1122.578125 414.640625 1091.570312 C 403.609375 1055.488281 413.535156 1019.957031 424.675781 994.246094 C 437.140625 984.976562 448.613281 973.945312 459.3125 959.378906 C 466.480469 949.558594 483.910156 924.066406 513.691406 891.738281 C 530.128906 873.859375 544.578125 860.066406 554.507812 851.019531 C 579.65625 879.046875 605.027344 895.707031 622.453125 905.199219 C 644.515625 917.335938 709.042969 952.757812 772.027344 932.34375 C 801.480469 922.742188 797.730469 911.597656 826.410156 905.199219 C 861.597656 897.363281 877.480469 911.820312 935.171875 918.769531 C 976.09375 923.625 996.5 926.164062 1016.796875 918.769531 C 1070.515625 899.238281 1091.035156 833.695312 1098.3125 810.414062 C 1098.535156 809.859375 1098.753906 809.308594 1098.863281 808.648438 C 1118.941406 742.769531 1074.707031 674.46875 1006.648438 662.109375 C 1005.4375 661.886719 1004.332031 661.777344 1003.121094 661.558594 C 932.964844 648.535156 906.824219 637.058594 867.222656 647.984375 C 847.589844 653.390625 856.742188 655.378906 812.84375 675.019531 C 761.550781 697.96875 717.316406 717.171875 676.835938 702.164062 C 663.046875 696.976562 665.03125 693.558594 649.699219 688.589844 C 618.59375 678.550781 603.039062 690.027344 568.074219 688.589844 C 535.863281 687.265625 526.378906 676.675781 513.472656 674.355469 C 498.03125 619.292969 490.527344 572.839844 486.449219 539.625 Z M 533.769531 573.941406 C 538.734375 579.019531 545.683594 585.96875 554.507812 593.804688 C 571.492188 609.144531 580.097656 616.757812 588.039062 617.085938 C 603.59375 617.75 615.726562 602.410156 622.453125 593.804688 C 627.199219 587.734375 636.683594 575.707031 633.042969 570.082031 C 628.960938 563.792969 612.417969 570.964844 586.824219 573.390625 C 564.765625 575.597656 546.453125 574.9375 533.769531 573.941406 Z M 564.542969 510.054688 C 573.039062 497.363281 578.664062 481.585938 581.089844 471.101562 C 585.28125 453.113281 583.1875 438.660156 581.640625 429.058594 C 579.988281 418.023438 575.023438 386.796875 561.125 384.148438 C 554.949219 382.9375 550.644531 388.121094 528.144531 412.066406 C 494.28125 448.039062 489.535156 451.460938 487.332031 462.714844 C 483.136719 484.453125 494.941406 502.550781 497.476562 506.300781 C 500.457031 510.496094 514.796875 531.570312 534.210938 531.019531 C 546.5625 530.6875 556.710938 521.640625 564.542969 510.054688 Z M 858.066406 506.523438 C 864.246094 498.796875 885.976562 470.992188 877.921875 447.488281 C 872.296875 431.15625 855.308594 429.613281 803.796875 409.75 C 735.1875 383.15625 716.988281 367.15625 701.984375 377.75 C 684.886719 389.886719 687.203125 420.894531 687.976562 430.496094 C 692.5 483.679688 741.914062 513.585938 753.9375 520.757812 C 770.042969 530.46875 788.90625 541.941406 812.511719 537.640625 C 836.890625 533.226562 851.449219 514.910156 858.066406 506.523438 Z M 858.066406 506.523438 " fill-opacity="1" fill-rule="nonzero"/><path fill="#65a888" d="M 500.125 675.019531 C 479.941406 672.589844 452.144531 667.40625 421.035156 655.488281 C 410.558594 651.40625 399.746094 646.660156 388.605469 640.921875 C 330.695312 611.019531 295.289062 570.523438 277.417969 546.6875 C 301.023438 546.246094 367.648438 548.234375 430.191406 594.246094 C 467.917969 621.941406 489.09375 654.714844 500.125 675.019531 Z M 500.125 675.019531 " fill-opacity="1" fill-rule="nonzero"/><g clip-path="url(#be74f1a027)"><path fill="#65a888" d="M 317.347656 280.535156 C 342.058594 328.757812 348.34375 373.445312 349.890625 401.144531 C 325.179688 386.023438 288.78125 359.320312 256.679688 315.957031 C 208.585938 251.074219 197.117188 184.976562 193.695312 153.085938 C 219.730469 167.652344 279.183594 205.832031 317.347656 280.535156 Z M 317.347656 280.535156 " fill-opacity="1" fill-rule="nonzero"/></g><path fill="#524956" d="M 445.746094 769.804688 C 452.03125 814.605469 497.699219 852.011719 554.507812 851.019531 C 544.578125 860.066406 530.128906 873.859375 513.691406 891.738281 C 483.910156 924.066406 466.480469 949.558594 459.3125 959.378906 C 440.121094 933.558594 384.964844 854.769531 377.6875 769.804688 C 373.496094 720.480469 387.722656 694.769531 391.363281 688.589844 C 400.078125 673.472656 411.328125 662.769531 421.035156 655.488281 C 452.144531 667.40625 479.941406 672.589844 500.125 675.019531 C 467.804688 683.292969 439.789062 728.425781 445.746094 769.804688 Z M 445.746094 769.804688 " fill-opacity="1" fill-rule="nonzero"/><path fill="#524956" d="M 464.496094 1171.128906 C 477.070312 1192.539062 492.183594 1224.980469 500.125 1270.773438 C 421.476562 1290.191406 365 1304.316406 336.875 1311.378906 C 242.5625 1335.101562 215.976562 1342.054688 173.730469 1338.523438 C 143.398438 1335.875 94.199219 1331.683594 51.402344 1297.804688 C 41.914062 1290.414062 34.855469 1283.128906 25.699219 1271.214844 C 0.992188 1238.773438 23.164062 1192.425781 63.976562 1189.667969 C 64.308594 1189.558594 64.640625 1189.558594 64.96875 1189.558594 C 100.820312 1187.019531 132.808594 1181.945312 160.164062 1175.984375 C 201.96875 1130.082031 241.128906 1100.066406 268.925781 1081.199219 C 337.203125 1034.964844 385.960938 1023.046875 424.675781 994.246094 C 413.535156 1019.957031 403.609375 1055.488281 414.640625 1091.570312 C 424.015625 1122.578125 442.65625 1133.832031 464.496094 1171.128906 Z M 464.496094 1171.128906 " fill-opacity="1" fill-rule="nonzero"/><path fill="#504256" d="M 1179.941406 810.414062 C 1188.984375 949.777344 1182.367188 1019.738281 1179.941406 1094.769531 C 1178.726562 1133.0625 1162.402344 1220.011719 1111.992188 1284.34375 C 1063.125 1346.578125 1021.097656 1333.007812 839.976562 1406.164062 C 682.460938 1469.835938 669.222656 1498.191406 568.074219 1514.523438 C 460.746094 1531.738281 395.445312 1512.648438 364.117188 1500.953125 C 360.257812 1499.515625 356.398438 1497.972656 352.757812 1496.425781 C 302.566406 1475.683594 309.078125 1401.308594 362.796875 1392.8125 C 363.234375 1392.703125 363.675781 1392.703125 364.117188 1392.59375 C 365.113281 1392.480469 372.0625 1391.929688 381.328125 1391.488281 C 407.910156 1390.277344 426.550781 1392.261719 432.066406 1392.59375 C 469.460938 1395.019531 516.007812 1359.820312 540.828125 1324.949219 C 547.777344 1315.128906 552.742188 1305.75 556.382812 1296.59375 L 556.492188 1296.59375 C 562.117188 1282.800781 564.984375 1269.667969 568.074219 1257.199219 C 582.304688 1200.8125 608.886719 1095.984375 676.835938 1040.59375 C 750.300781 980.785156 843.726562 985.53125 853.65625 986.414062 C 918.292969 992.371094 969.144531 1025.585938 989.550781 1040.59375 C 1040.953125 1078.441406 1049.007812 1111.765625 1071.179688 1108.34375 C 1096.660156 1104.371094 1104.378906 1057.253906 1139.125 945.804688 C 1155.671875 892.839844 1170.453125 836.894531 1179.941406 810.414062 Z M 1179.941406 810.414062 " fill-opacity="1" fill-rule="nonzero"/><path fill="#504256" d="M 513.472656 674.355469 C 526.378906 676.675781 535.863281 687.265625 568.074219 688.589844 C 603.039062 690.027344 618.59375 678.550781 649.699219 688.589844 C 665.03125 693.558594 663.046875 696.976562 676.835938 702.164062 C 717.316406 717.171875 761.550781 697.972656 812.84375 675.019531 C 856.742188 655.378906 847.589844 653.390625 867.222656 647.984375 C 906.824219 637.058594 932.964844 648.535156 1003.121094 661.558594 C 1004.332031 661.777344 1005.4375 661.886719 1006.648438 662.109375 C 1074.707031 674.46875 1118.941406 742.769531 1098.863281 808.648438 C 1098.753906 809.308594 1098.535156 809.859375 1098.3125 810.414062 C 1091.03125 833.695312 1070.515625 899.238281 1016.796875 918.769531 C 996.5 926.164062 976.09375 923.625 935.171875 918.769531 C 877.480469 911.820312 861.597656 897.363281 826.410156 905.199219 C 797.730469 911.597656 801.480469 922.742188 772.027344 932.34375 C 709.042969 952.757812 644.515625 917.335938 622.453125 905.199219 C 605.027344 895.707031 579.65625 879.046875 554.507812 851.019531 C 497.699219 852.011719 452.03125 814.605469 445.746094 769.804688 C 439.789062 728.425781 467.804688 683.292969 500.125 675.019531 C 505.308594 673.695312 509.5 673.695312 513.472656 674.355469 Z M 513.472656 674.355469 " fill-opacity="1" fill-rule="nonzero"/><path fill="#504256" d="M 633.042969 570.082031 C 636.683594 575.707031 627.199219 587.734375 622.453125 593.804688 C 615.726562 602.410156 603.59375 617.75 588.039062 617.085938 C 580.097656 616.757812 571.492188 609.144531 554.507812 593.804688 C 545.683594 585.96875 538.734375 579.019531 533.769531 573.941406 C 546.453125 574.9375 564.765625 575.597656 586.824219 573.390625 C 612.417969 570.964844 628.960938 563.792969 633.042969 570.082031 Z M 633.042969 570.082031 " fill-opacity="1" fill-rule="nonzero"/><path fill="#504256" d="M 581.640625 429.058594 C 583.1875 438.660156 585.28125 453.113281 581.089844 471.101562 C 578.664062 481.585938 573.039062 497.363281 564.542969 510.054688 C 556.710938 521.640625 546.5625 530.6875 534.210938 531.019531 C 514.796875 531.570312 500.457031 510.496094 497.476562 506.300781 C 494.941406 502.550781 483.136719 484.453125 487.332031 462.714844 C 489.535156 451.460938 494.28125 448.039062 528.144531 412.066406 C 550.644531 388.121094 554.949219 382.9375 561.125 384.148438 C 575.023438 386.796875 579.988281 418.027344 581.640625 429.058594 Z M 581.640625 429.058594 " fill-opacity="1" fill-rule="nonzero"/><path fill="#504256" d="M 877.921875 447.488281 C 885.976562 470.992188 864.246094 498.796875 858.066406 506.523438 C 851.449219 514.910156 836.890625 533.226562 812.511719 537.640625 C 788.90625 541.941406 770.042969 530.46875 753.9375 520.757812 C 741.914062 513.585938 692.5 483.679688 687.976562 430.496094 C 687.203125 420.894531 684.886719 389.886719 701.984375 377.75 C 716.988281 367.15625 735.1875 383.15625 803.796875 409.75 C 855.308594 429.613281 872.296875 431.15625 877.921875 447.488281 Z M 877.921875 447.488281 " fill-opacity="1" fill-rule="nonzero"/><path fill="#504256" d="M 602.046875 222.050781 C 599.730469 224.039062 597.414062 226.023438 595.210938 228.230469 C 579.105469 244.011719 581.75 250.523438 549.433594 308.011719 C 526.820312 300.507812 516.890625 287.375 513.691406 282.410156 C 489.976562 246.660156 517.222656 196.671875 540.828125 174.164062 C 547.558594 167.761719 557.484375 158.605469 568.074219 160.589844 C 580.539062 162.90625 587.046875 179.460938 595.210938 201.199219 C 597.414062 207.046875 599.84375 213.996094 602.046875 222.050781 Z M 602.046875 222.050781 " fill-opacity="1" fill-rule="nonzero"/><path fill="#504256" d="M 908.035156 174.164062 C 924.800781 185.859375 927.339844 211.789062 922.816406 237.5 C 920.058594 253.722656 914.542969 269.941406 908.035156 282.410156 C 901.085938 295.542969 889.835938 317.058594 867.222656 323.019531 C 835.566406 331.40625 806.554688 303.15625 799.164062 295.984375 C 789.679688 286.714844 769.273438 266.742188 772.027344 241.804688 C 774.566406 219.183594 794.863281 204.726562 813.503906 194.464844 C 818.027344 191.929688 822.328125 189.722656 826.410156 187.625 C 846.597656 177.363281 884.761719 157.832031 908.035156 174.164062 Z M 908.035156 174.164062 " fill-opacity="1" fill-rule="nonzero"/></svg>