<svg xmlns="http://www.w3.org/2000/svg" xmlns:xlink="http://www.w3.org/1999/xlink" width="1587" zoomAndPan="magnify" viewBox="0 0 1190.25 1683.749949" height="2245" preserveAspectRatio="xMidYMid meet" version="1.0"><defs><clipPath id="524e5ee377"><path d="M 609 390 L 726 390 L 726 673 L 609 673 Z M 609 390 " clip-rule="nonzero"/></clipPath><clipPath id="c42b642ade"><path d="M -74.453125 325.859375 L 984.160156 119.351562 L 1223.246094 1344.964844 L 164.628906 1551.472656 Z M -74.453125 325.859375 " clip-rule="nonzero"/></clipPath><clipPath id="8245a75e24"><path d="M 983.988281 119.386719 L -74.628906 325.894531 L 164.457031 1551.507812 L 1223.074219 1344.996094 Z M 983.988281 119.386719 " clip-rule="nonzero"/></clipPath><clipPath id="19115e69b6"><path d="M 983.988281 119.386719 L -74.628906 325.894531 L 164.457031 1551.507812 L 1223.074219 1344.996094 Z M 983.988281 119.386719 " clip-rule="nonzero"/></clipPath><clipPath id="81b93a4290"><path d="M 32 270 L 779 270 L 779 1233 L 32 1233 Z M 32 270 " clip-rule="nonzero"/></clipPath><clipPath id="b53bda095d"><path d="M -74.453125 325.859375 L 984.160156 119.351562 L 1223.246094 1344.964844 L 164.628906 1551.472656 Z M -74.453125 325.859375 " clip-rule="nonzero"/></clipPath><clipPath id="c776208ed2"><path d="M 983.988281 119.386719 L -74.628906 325.894531 L 164.457031 1551.507812 L 1223.074219 1344.996094 Z M 983.988281 119.386719 " clip-rule="nonzero"/></clipPath><clipPath id="e7da8efbd5"><path d="M 983.988281 119.386719 L -74.628906 325.894531 L 164.457031 1551.507812 L 1223.074219 1344.996094 Z M 983.988281 119.386719 " clip-rule="nonzero"/></clipPath><clipPath id="cdcb5fe6e7"><path d="M 629 517 L 806 517 L 806 671 L 629 671 Z M 629 517 " clip-rule="nonzero"/></clipPath><clipPath id="2a7f3b87dc"><path d="M -74.453125 325.859375 L 984.160156 119.351562 L 1223.246094 1344.964844 L 164.628906 1551.472656 Z M -74.453125 325.859375 " clip-rule="nonzero"/></clipPath><clipPath id="31b7d134ba"><path d="M 983.988281 119.386719 L -74.628906 325.894531 L 164.457031 1551.507812 L 1223.074219 1344.996094 Z M 983.988281 119.386719 " clip-rule="nonzero"/></clipPath><clipPath id="ad3a751b05"><path d="M 983.988281 119.386719 L -74.628906 325.894531 L 164.457031 1551.507812 L 1223.074219 1344.996094 Z M 983.988281 119.386719 " clip-rule="nonzero"/></clipPath><clipPath id="11f90c91ba"><path d="M 713 153 L 813 153 L 813 401 L 713 401 Z M 713 153 " clip-rule="nonzero"/></clipPath><clipPath id="6222465ef7"><path d="M -74.453125 325.859375 L 984.160156 119.351562 L 1223.246094 1344.964844 L 164.628906 1551.472656 Z M -74.453125 325.859375 " clip-rule="nonzero"/></clipPath><clipPath id="e3b5dd0d86"><path d="M 983.988281 119.386719 L -74.628906 325.894531 L 164.457031 1551.507812 L 1223.074219 1344.996094 Z M 983.988281 119.386719 " clip-rule="nonzero"/></clipPath><clipPath id="1e3b768ee2"><path d="M 983.988281 119.386719 L -74.628906 325.894531 L 164.457031 1551.507812 L 1223.074219 1344.996094 Z M 983.988281 119.386719 " clip-rule="nonzero"/></clipPath><clipPath id="b25b245326"><path d="M 611 639 L 757 639 L 757 917 L 611 917 Z M 611 639 " clip-rule="nonzero"/></clipPath><clipPath id="160220529b"><path d="M -74.453125 325.859375 L 984.160156 119.351562 L 1223.246094 1344.964844 L 164.628906 1551.472656 Z M -74.453125 325.859375 " clip-rule="nonzero"/></clipPath><clipPath id="5d4fc39810"><path d="M 983.988281 119.386719 L -74.628906 325.894531 L 164.457031 1551.507812 L 1223.074219 1344.996094 Z M 983.988281 119.386719 " clip-rule="nonzero"/></clipPath><clipPath id="263cb07e30"><path d="M 983.988281 119.386719 L -74.628906 325.894531 L 164.457031 1551.507812 L 1223.074219 1344.996094 Z M 983.988281 119.386719 " clip-rule="nonzero"/></clipPath><clipPath id="3bb2a096f8"><path d="M 732 941 L 1160 941 L 1160 1212 L 732 1212 Z M 732 941 " clip-rule="nonzero"/></clipPath><clipPath id="2d79ff0e40"><path d="M -74.453125 325.859375 L 984.160156 119.351562 L 1223.246094 1344.964844 L 164.628906 1551.472656 Z M -74.453125 325.859375 " clip-rule="nonzero"/></clipPath><clipPath id="fbf785d673"><path d="M 983.988281 119.386719 L -74.628906 325.894531 L 164.457031 1551.507812 L 1223.074219 1344.996094 Z M 983.988281 119.386719 " clip-rule="nonzero"/></clipPath><clipPath id="1096c430ed"><path d="M 983.988281 119.386719 L -74.628906 325.894531 L 164.457031 1551.507812 L 1223.074219 1344.996094 Z M 983.988281 119.386719 " clip-rule="nonzero"/></clipPath><clipPath id="50de0bdc5d"><path d="M 48 908 L 926 908 L 926 1429 L 48 1429 Z M 48 908 " clip-rule="nonzero"/></clipPath><clipPath id="b3c4d21791"><path d="M -74.453125 325.859375 L 984.160156 119.351562 L 1223.246094 1344.964844 L 164.628906 1551.472656 Z M -74.453125 325.859375 " clip-rule="nonzero"/></clipPath><clipPath id="d7ae1a3d4a"><path d="M 983.988281 119.386719 L -74.628906 325.894531 L 164.457031 1551.507812 L 1223.074219 1344.996094 Z M 983.988281 119.386719 " clip-rule="nonzero"/></clipPath><clipPath id="3a964b5fef"><path d="M 983.988281 119.386719 L -74.628906 325.894531 L 164.457031 1551.507812 L 1223.074219 1344.996094 Z M 983.988281 119.386719 " clip-rule="nonzero"/></clipPath><clipPath id="234e6f106d"><path d="M 108 670 L 695 670 L 695 978 L 108 978 Z M 108 670 " clip-rule="nonzero"/></clipPath><clipPath id="54c6c85ecc"><path d="M -74.453125 325.859375 L 984.160156 119.351562 L 1223.246094 1344.964844 L 164.628906 1551.472656 Z M -74.453125 325.859375 " clip-rule="nonzero"/></clipPath><clipPath id="69a401dd35"><path d="M 983.988281 119.386719 L -74.628906 325.894531 L 164.457031 1551.507812 L 1223.074219 1344.996094 Z M 983.988281 119.386719 " clip-rule="nonzero"/></clipPath><clipPath id="09c1b8f02d"><path d="M 983.988281 119.386719 L -74.628906 325.894531 L 164.457031 1551.507812 L 1223.074219 1344.996094 Z M 983.988281 119.386719 " clip-rule="nonzero"/></clipPath><clipPath id="d5eedc9d52"><path d="M 492 586 L 583 586 L 583 635 L 492 635 Z M 492 586 " clip-rule="nonzero"/></clipPath><clipPath id="5db1e82062"><path d="M -74.453125 325.859375 L 984.160156 119.351562 L 1223.246094 1344.964844 L 164.628906 1551.472656 Z M -74.453125 325.859375 " clip-rule="nonzero"/></clipPath><clipPath id="317cb6f421"><path d="M 983.988281 119.386719 L -74.628906 325.894531 L 164.457031 1551.507812 L 1223.074219 1344.996094 Z M 983.988281 119.386719 " clip-rule="nonzero"/></clipPath><clipPath id="f28f3aa0b1"><path d="M 983.988281 119.386719 L -74.628906 325.894531 L 164.457031 1551.507812 L 1223.074219 1344.996094 Z M 983.988281 119.386719 " clip-rule="nonzero"/></clipPath><clipPath id="63bd22d387"><path d="M 514 421 L 608 421 L 608 549 L 514 549 Z M 514 421 " clip-rule="nonzero"/></clipPath><clipPath id="dea5f1375b"><path d="M -74.453125 325.859375 L 984.160156 119.351562 L 1223.246094 1344.964844 L 164.628906 1551.472656 Z M -74.453125 325.859375 " clip-rule="nonzero"/></clipPath><clipPath id="b162357b01"><path d="M 983.988281 119.386719 L -74.628906 325.894531 L 164.457031 1551.507812 L 1223.074219 1344.996094 Z M 983.988281 119.386719 " clip-rule="nonzero"/></clipPath><clipPath id="40bafcddbe"><path d="M 983.988281 119.386719 L -74.628906 325.894531 L 164.457031 1551.507812 L 1223.074219 1344.996094 Z M 983.988281 119.386719 " clip-rule="nonzero"/></clipPath><clipPath id="b9cfec76c9"><path d="M 253 439 L 421 439 L 421 603 L 253 603 Z M 253 439 " clip-rule="nonzero"/></clipPath><clipPath id="9e22d9391e"><path d="M -74.453125 325.859375 L 984.160156 119.351562 L 1223.246094 1344.964844 L 164.628906 1551.472656 Z M -74.453125 325.859375 " clip-rule="nonzero"/></clipPath><clipPath id="ca62381746"><path d="M 983.988281 119.386719 L -74.628906 325.894531 L 164.457031 1551.507812 L 1223.074219 1344.996094 Z M 983.988281 119.386719 " clip-rule="nonzero"/></clipPath><clipPath id="10a6b9c274"><path d="M 983.988281 119.386719 L -74.628906 325.894531 L 164.457031 1551.507812 L 1223.074219 1344.996094 Z M 983.988281 119.386719 " clip-rule="nonzero"/></clipPath><clipPath id="fbf30b1a34"><path d="M 460 223 L 554 223 L 554 353 L 460 353 Z M 460 223 " clip-rule="nonzero"/></clipPath><clipPath id="d57f6c3ae2"><path d="M -74.453125 325.859375 L 984.160156 119.351562 L 1223.246094 1344.964844 L 164.628906 1551.472656 Z M -74.453125 325.859375 " clip-rule="nonzero"/></clipPath><clipPath id="1973834c95"><path d="M 983.988281 119.386719 L -74.628906 325.894531 L 164.457031 1551.507812 L 1223.074219 1344.996094 Z M 983.988281 119.386719 " clip-rule="nonzero"/></clipPath><clipPath id="b0c9e5f1bb"><path d="M 983.988281 119.386719 L -74.628906 325.894531 L 164.457031 1551.507812 L 1223.074219 1344.996094 Z M 983.988281 119.386719 " clip-rule="nonzero"/></clipPath><clipPath id="1db94573b0"><path d="M 170 285 L 315 285 L 315 422 L 170 422 Z M 170 285 " clip-rule="nonzero"/></clipPath><clipPath id="3429b056ae"><path d="M -74.453125 325.859375 L 984.160156 119.351562 L 1223.246094 1344.964844 L 164.628906 1551.472656 Z M -74.453125 325.859375 " clip-rule="nonzero"/></clipPath><clipPath id="fe040df9fd"><path d="M 983.988281 119.386719 L -74.628906 325.894531 L 164.457031 1551.507812 L 1223.074219 1344.996094 Z M 983.988281 119.386719 " clip-rule="nonzero"/></clipPath><clipPath id="f5ae2a54d8"><path d="M 983.988281 119.386719 L -74.628906 325.894531 L 164.457031 1551.507812 L 1223.074219 1344.996094 Z M 983.988281 119.386719 " clip-rule="nonzero"/></clipPath></defs><g clip-path="url(#524e5ee377)"><g clip-path="url(#c42b642ade)"><g clip-path="url(#8245a75e24)"><g clip-path="url(#19115e69b6)"><path fill="#349370" d="M 649.339844 511.09375 C 664.851562 471.285156 684.332031 432.363281 707.265625 395.425781 C 710.183594 390.730469 716.347656 389.292969 721.042969 392.207031 C 725.726562 395.113281 727.171875 401.28125 724.257812 405.976562 C 701.964844 441.871094 683.03125 479.675781 667.960938 518.359375 C 649.753906 564.90625 636.648438 613.75 628.96875 663.671875 C 628.136719 669.070312 623.191406 672.816406 617.78125 672.070312 C 612.253906 671.304688 608.355469 666.144531 609.203125 660.632812 C 617.109375 609.25 630.597656 558.988281 649.339844 511.09375 Z M 649.339844 511.09375 " fill-opacity="1" fill-rule="nonzero"/></g></g></g></g><g clip-path="url(#81b93a4290)"><g clip-path="url(#b53bda095d)"><g clip-path="url(#c776208ed2)"><g clip-path="url(#e7da8efbd5)"><path fill="#efdaca" d="M 618.304688 547.542969 C 614.417969 494.210938 612.136719 466.847656 597.171875 439.210938 C 584.769531 416.367188 578.9375 417.8125 532.351562 364.355469 C 528.664062 360.082031 525.253906 356.164062 522.09375 352.503906 C 483.367188 306.988281 484.59375 300.738281 467.53125 289.5 C 465.183594 287.921875 462.78125 286.558594 460.375 285.195312 C 416.785156 261.203125 364.460938 271.816406 327.425781 279.347656 C 318.808594 281.128906 295.6875 285.84375 267.476562 297.355469 C 285.839844 303.246094 306.40625 312.582031 312.585938 332.257812 C 319.367188 353.953125 304.675781 375.257812 297.84375 385.144531 C 292.515625 392.808594 271.609375 422.960938 241.992188 420.996094 C 220.839844 419.625 207.097656 402.441406 198.640625 391.96875 C 190.6875 382.011719 182.964844 368.542969 177.699219 354.597656 L 177.601562 354.617188 C 167.0625 364.820312 157.085938 376.339844 147.90625 389.335938 C 131.441406 413.023438 135.167969 416.980469 98.878906 523.886719 C 51.851562 662.421875 42.820312 664.183594 35.011719 711.34375 C 28.410156 751.132812 34.980469 804.144531 48.347656 908.695312 C 61.382812 930.597656 84.234375 977.785156 108.144531 1022.015625 C 158.386719 1115.09375 173.429688 1155.652344 196.785156 1154.765625 C 217.105469 1153.957031 218.484375 1122.925781 257.648438 1080.347656 C 273.199219 1063.460938 312.671875 1025.101562 369.140625 1008.585938 C 377.820312 1006.078125 460.113281 985.644531 535.839844 1026.082031 C 605.894531 1063.550781 647.730469 1152.15625 670.167969 1199.832031 C 675.082031 1210.382812 679.910156 1221.5625 687.308594 1232.851562 L 687.40625 1232.832031 C 693.3125 1231.78125 704.578125 1228.972656 715.738281 1220.378906 C 725.027344 1213.167969 730.28125 1205.117188 732.972656 1200.109375 C 732.09375 1158.007812 739.90625 1126.535156 747.378906 1105.316406 C 760.339844 1068.359375 774.972656 1055.117188 777.933594 1025.914062 C 781.488281 991.914062 766.492188 962.039062 752.121094 941.109375 C 739.421875 935.027344 727.304688 927.207031 715.257812 916.109375 C 707.175781 908.621094 687.25 888.980469 655.148438 865.394531 C 637.425781 852.351562 622.179688 842.59375 611.777344 836.269531 C 594.265625 865.558594 574.585938 884.777344 560.730469 896.242188 C 543.210938 910.863281 491.949219 953.5625 432.378906 946.335938 C 404.511719 942.910156 405.914062 932.351562 379.292969 931.636719 C 346.628906 930.773438 335.007812 946.386719 284.890625 962.578125 C 249.328125 974 231.617188 979.796875 212.277344 976.746094 C 161.101562 968.699219 131.480469 913.972656 120.964844 894.527344 C 120.671875 894.078125 120.378906 893.625 120.167969 893.054688 C 90.878906 837.957031 118.378906 769.539062 176.78125 746.738281 C 177.820312 746.332031 178.785156 746.042969 179.824219 745.636719 C 239.976562 721.882812 261.242188 707.140625 298.363281 709.984375 C 316.769531 711.382812 308.96875 714.738281 351.429688 724.585938 C 401.042969 736.097656 443.722656 745.496094 477.132812 725.125 C 488.496094 718.121094 486.136719 715.421875 498.914062 708.34375 C 524.847656 694.019531 540.671875 701.523438 571.53125 694.179688 C 599.953125 687.414062 606.554688 676.347656 617.632812 672.046875 C 621.820312 620.402344 620.433594 577.789062 618.304688 547.542969 Z M 582.160156 586.273438 C 578.625 591.648438 573.648438 599.035156 567.15625 607.535156 C 554.707031 624.121094 548.371094 632.386719 541.363281 634.058594 C 527.644531 637.347656 514.1875 625.8125 506.710938 619.324219 C 501.4375 614.753906 490.914062 605.703125 493.175781 600.066406 C 495.714844 593.765625 511.675781 597.273438 534.863281 594.988281 C 554.871094 593.125 571.046875 589.355469 582.160156 586.273438 Z M 543.699219 534.796875 C 533.941406 524.988281 526.199219 511.929688 522.222656 503.03125 C 515.375 487.761719 514.730469 474.542969 514.4375 465.738281 C 513.996094 455.640625 512.996094 427.007812 524.898438 422.242188 C 530.183594 420.089844 534.910156 423.953125 559.082031 441.34375 C 595.449219 467.457031 600.261719 469.675781 604.175781 479.300781 C 611.675781 497.90625 604.316406 516.046875 602.710938 519.824219 C 600.789062 524.070312 591.6875 545.300781 574.320312 548.179688 C 563.273438 550.027344 552.675781 543.742188 543.699219 534.796875 Z M 281.96875 582.59375 C 275.132812 576.796875 250.976562 555.839844 254.0625 533.542969 C 256.234375 518.042969 271.078125 513.722656 313.460938 487.121094 C 369.882812 451.5625 383.296875 434.175781 398.480469 440.992188 C 415.796875 448.820312 419.113281 476.796875 420.09375 485.46875 C 425.296875 533.550781 386.523438 568.71875 377.070312 577.183594 C 364.429688 588.613281 349.640625 602.089844 327.894531 602.359375 C 305.441406 602.667969 289.3125 588.902344 281.96875 582.59375 Z M 281.96875 582.59375 " fill-opacity="1" fill-rule="nonzero"/></g></g></g></g><g clip-path="url(#cdcb5fe6e7)"><g clip-path="url(#2a7f3b87dc)"><g clip-path="url(#31b7d134ba)"><g clip-path="url(#ad3a751b05)"><path fill="#29845f" d="M 629.621094 670.320312 C 647.160156 664.65625 670.988281 655.222656 696.59375 639.226562 C 705.207031 633.777344 714 627.679688 722.914062 620.644531 C 769.246094 584.003906 793.71875 541.84375 805.480469 517.550781 C 784.40625 521.253906 725.480469 534.582031 677.824219 586.355469 C 649.070312 617.53125 635.914062 650.347656 629.621094 670.320312 Z M 629.621094 670.320312 " fill-opacity="1" fill-rule="nonzero"/></g></g></g></g><g clip-path="url(#11f90c91ba)"><g clip-path="url(#6222465ef7)"><g clip-path="url(#e3b5dd0d86)"><g clip-path="url(#1e3b768ee2)"><path fill="#29845f" d="M 723.789062 287.796875 C 710.171875 334.964844 712.332031 375.796875 715.761719 400.695312 C 735.121094 382.964844 762.871094 352.898438 783.902344 308.765625 C 815.429688 242.722656 814.167969 181.953125 811.679688 153 C 791.046875 170.46875 744.78125 214.738281 723.789062 287.796875 Z M 723.789062 287.796875 " fill-opacity="1" fill-rule="nonzero"/></g></g></g></g><g clip-path="url(#b25b245326)"><g clip-path="url(#160220529b)"><g clip-path="url(#5d4fc39810)"><g clip-path="url(#263cb07e30)"><path fill="#524956" d="M 694.441406 745.171875 C 696.621094 786.105469 662.484375 827.292969 611.777344 836.269531 C 622.179688 842.59375 637.425781 852.351562 655.148438 865.394531 C 687.25 888.980469 707.175781 908.621094 715.257812 916.109375 C 727.855469 889.816406 763.25 810.183594 754.988281 733.363281 C 750.160156 688.773438 733.042969 668.378906 728.730469 663.515625 C 718.355469 651.582031 706.492188 644.015625 696.59375 639.226562 C 670.988281 655.222656 647.160156 664.65625 629.621094 670.320312 C 659.808594 672.070312 692.5625 707.34375 694.441406 745.171875 Z M 694.441406 745.171875 " fill-opacity="1" fill-rule="nonzero"/></g></g></g></g><g clip-path="url(#3bb2a096f8)"><g clip-path="url(#2d79ff0e40)"><g clip-path="url(#fbf785d673)"><g clip-path="url(#1096c430ed)"><path fill="#524956" d="M 747.378906 1105.316406 C 739.90625 1126.535156 732.09375 1158.007812 732.972656 1200.109375 C 806.304688 1203.730469 858.996094 1206.492188 885.242188 1207.890625 C 973.257812 1212.621094 998.113281 1214.1875 1035.085938 1203.71875 C 1061.609375 1196.097656 1104.648438 1183.832031 1136.84375 1146.28125 C 1144 1138.058594 1149.015625 1130.359375 1155.09375 1118.171875 C 1171.449219 1085.035156 1143.683594 1047.667969 1106.898438 1052.296875 C 1106.585938 1052.257812 1106.289062 1052.3125 1105.996094 1052.371094 C 1073.664062 1056.335938 1044.328125 1057.371094 1018.957031 1056.820312 C 973.804688 1023.253906 933.761719 1003.359375 905.761719 991.402344 C 837 962.136719 791.558594 960 752.121094 941.109375 C 766.492188 962.039062 781.488281 991.914062 777.933594 1025.914062 C 774.972656 1055.117188 760.339844 1068.359375 747.378906 1105.316406 Z M 747.378906 1105.316406 " fill-opacity="1" fill-rule="nonzero"/></g></g></g></g><g clip-path="url(#50de0bdc5d)"><g clip-path="url(#b3c4d21791)"><g clip-path="url(#d7ae1a3d4a)"><g clip-path="url(#3a964b5fef)"><path fill="#504256" d="M 48.347656 908.695312 C 64.480469 1034.199219 82.503906 1095.261719 97.679688 1161.570312 C 105.398438 1195.410156 135.007812 1269.898438 191.011719 1318.359375 C 245.277344 1365.222656 280.308594 1345.859375 454.125 1379.488281 C 605.296875 1408.773438 621.992188 1431.695312 714.808594 1428.664062 C 813.273438 1425.347656 868.054688 1397.039062 893.894531 1381.199219 C 897.078125 1379.253906 900.246094 1377.210938 903.214844 1375.207031 C 944.265625 1348.046875 925.574219 1283.039062 876.3125 1284.804688 C 875.898438 1284.785156 875.507812 1284.859375 875.09375 1284.839844 C 874.191406 1284.914062 867.914062 1285.628906 859.597656 1286.84375 C 835.738281 1290.378906 819.496094 1295.378906 814.648438 1296.628906 C 781.804688 1305.277344 734.289062 1282.054688 706.160156 1255.351562 C 698.273438 1247.824219 692.230469 1240.347656 687.40625 1232.832031 L 687.308594 1232.851562 C 679.910156 1221.5625 675.082031 1210.382812 670.167969 1199.832031 C 647.730469 1152.15625 605.894531 1063.550781 535.839844 1026.082031 C 460.113281 985.644531 377.820312 1006.078125 369.140625 1008.585938 C 312.671875 1025.101562 273.199219 1063.460938 257.648438 1080.347656 C 218.484375 1122.925781 217.101562 1153.957031 196.785156 1154.765625 C 173.429688 1155.652344 158.386719 1115.09375 108.144531 1022.015625 C 84.234375 977.785156 61.382812 930.597656 48.347656 908.695312 Z M 48.347656 908.695312 " fill-opacity="1" fill-rule="nonzero"/></g></g></g></g><g clip-path="url(#234e6f106d)"><g clip-path="url(#54c6c85ecc)"><g clip-path="url(#69a401dd35)"><g clip-path="url(#09c1b8f02d)"><path fill="#504256" d="M 617.632812 672.046875 C 606.554688 676.347656 599.953125 687.414062 571.53125 694.179688 C 540.671875 701.523438 524.847656 694.019531 498.914062 708.34375 C 486.136719 715.421875 488.496094 718.121094 477.132812 725.125 C 443.722656 745.496094 401.042969 736.097656 351.429688 724.585938 C 308.96875 714.738281 316.769531 711.382812 298.363281 709.984375 C 261.242188 707.140625 239.976562 721.882812 179.824219 745.636719 C 178.785156 746.042969 177.820312 746.332031 176.78125 746.738281 C 118.378906 769.539062 90.878906 837.957031 120.167969 893.054688 C 120.378906 893.625 120.671875 894.078125 120.964844 894.53125 C 131.480469 913.972656 161.101562 968.699219 212.277344 976.746094 C 231.613281 979.796875 249.328125 974 284.890625 962.578125 C 335.007812 946.386719 346.628906 930.773438 379.292969 931.636719 C 405.914062 932.351562 404.511719 942.910156 432.378906 946.335938 C 491.949219 953.5625 543.210938 910.863281 560.730469 896.242188 C 574.585938 884.777344 594.265625 865.558594 611.777344 836.269531 C 662.484375 827.292969 696.621094 786.105469 694.441406 745.171875 C 692.5625 707.34375 659.808594 672.070312 629.621094 670.320312 C 624.78125 670.042969 621.050781 670.769531 617.632812 672.046875 Z M 617.632812 672.046875 " fill-opacity="1" fill-rule="nonzero"/></g></g></g></g><g clip-path="url(#d5eedc9d52)"><g clip-path="url(#5db1e82062)"><g clip-path="url(#317cb6f421)"><g clip-path="url(#f28f3aa0b1)"><path fill="#504256" d="M 493.175781 600.066406 C 490.914062 605.703125 501.4375 614.753906 506.710938 619.324219 C 514.1875 625.8125 527.644531 637.347656 541.363281 634.058594 C 548.371094 632.386719 554.707031 624.121094 567.15625 607.535156 C 573.648438 599.035156 578.625 591.648438 582.160156 586.273438 C 571.046875 589.355469 554.871094 593.125 534.863281 594.988281 C 511.675781 597.273438 495.714844 593.765625 493.175781 600.066406 Z M 493.175781 600.066406 " fill-opacity="1" fill-rule="nonzero"/></g></g></g></g><g clip-path="url(#63bd22d387)"><g clip-path="url(#dea5f1375b)"><g clip-path="url(#b162357b01)"><g clip-path="url(#40bafcddbe)"><path fill="#504256" d="M 514.4375 465.738281 C 514.730469 474.542969 515.375 487.761719 522.222656 503.03125 C 526.199219 511.929688 533.941406 524.988281 543.699219 534.796875 C 552.675781 543.742188 563.273438 550.027344 574.320312 548.179688 C 591.6875 545.300781 600.789062 524.070312 602.710938 519.824219 C 604.316406 516.046875 611.675781 497.90625 604.175781 479.300781 C 600.261719 469.675781 595.449219 467.457031 559.082031 441.34375 C 534.910156 423.953125 530.183594 420.089844 524.898438 422.242188 C 512.996094 427.007812 513.996094 455.640625 514.4375 465.738281 Z M 514.4375 465.738281 " fill-opacity="1" fill-rule="nonzero"/></g></g></g></g><g clip-path="url(#b9cfec76c9)"><g clip-path="url(#9e22d9391e)"><g clip-path="url(#ca62381746)"><g clip-path="url(#10a6b9c274)"><path fill="#504256" d="M 254.0625 533.542969 C 250.976562 555.839844 275.132812 576.796875 281.96875 582.59375 C 289.3125 588.902344 305.441406 602.667969 327.894531 602.359375 C 349.640625 602.089844 364.429688 588.613281 377.070312 577.183594 C 386.523438 568.71875 425.296875 533.550781 420.09375 485.46875 C 419.113281 476.796875 415.796875 448.820312 398.480469 440.992188 C 383.296875 434.175781 369.882812 451.5625 313.460938 487.121094 C 271.078125 513.722656 256.234375 518.042969 254.0625 533.542969 Z M 254.0625 533.542969 " fill-opacity="1" fill-rule="nonzero"/></g></g></g></g><g clip-path="url(#fbf30b1a34)"><g clip-path="url(#d57f6c3ae2)"><g clip-path="url(#1973834c95)"><g clip-path="url(#b0c9e5f1bb)"><path fill="#504256" d="M 460.375 285.195312 C 462.78125 286.558594 465.183594 287.921875 467.53125 289.5 C 484.59375 300.738281 483.367188 306.988281 522.09375 352.503906 C 540.90625 341.90625 547.460938 328.507812 549.445312 323.535156 C 564.339844 287.628906 531.433594 247.902344 506.527344 231.980469 C 499.429688 227.457031 489.011719 221.035156 479.9375 224.640625 C 469.25 228.863281 466.332031 244.714844 462.839844 265.460938 C 461.890625 271.042969 460.941406 277.648438 460.375 285.195312 Z M 460.375 285.195312 " fill-opacity="1" fill-rule="nonzero"/></g></g></g></g><g clip-path="url(#1db94573b0)"><g clip-path="url(#3429b056ae)"><g clip-path="url(#fe040df9fd)"><g clip-path="url(#f5ae2a54d8)"><path fill="#504256" d="M 179.859375 295.707031 C 166.972656 309.019531 169.214844 332.519531 177.699219 354.597656 C 182.964844 368.542969 190.6875 382.011719 198.640625 391.96875 C 207.097656 402.441406 220.839844 419.625 241.992188 420.996094 C 271.609375 422.960938 292.515625 392.808594 297.84375 385.144531 C 304.675781 375.257812 319.363281 353.953125 312.585938 332.257812 C 306.40625 312.582031 285.839844 303.246094 267.476562 297.355469 C 263.015625 295.886719 258.804688 294.667969 254.808594 293.511719 C 235.074219 287.890625 197.730469 277.144531 179.859375 295.707031 Z M 179.859375 295.707031 " fill-opacity="1" fill-rule="nonzero"/></g></g></g></g></svg>