<svg xmlns="http://www.w3.org/2000/svg" xmlns:xlink="http://www.w3.org/1999/xlink" width="1920" zoomAndPan="magnify" viewBox="0 0 1440 809.999993" height="1080" preserveAspectRatio="xMidYMid meet" version="1.0"><defs><clipPath id="04c00a7e55"><path d="M 742.628906 -532.414062 L 1725.859375 450.816406 L 742.628906 1434.050781 L -240.601562 450.816406 Z M 742.628906 -532.414062 " clip-rule="nonzero"/></clipPath><clipPath id="1c02c1b16b"><path d="M 742.628906 -532.414062 L 1725.859375 450.816406 L 742.628906 1434.050781 L -240.601562 450.816406 Z M 742.628906 -532.414062 " clip-rule="nonzero"/></clipPath><clipPath id="ee5e7b4ef5"><path d="M 10 238 L 1365 238 L 1365 564 L 10 564 Z M 10 238 " clip-rule="nonzero"/></clipPath><clipPath id="0c3baf0d4a"><path d="M 742.628906 -532.414062 L 1725.859375 450.816406 L 742.628906 1434.050781 L -240.601562 450.816406 Z M 742.628906 -532.414062 " clip-rule="nonzero"/></clipPath><clipPath id="01bb2d56a7"><path d="M 742.628906 -532.414062 L 1725.859375 450.816406 L 742.628906 1434.050781 L -240.601562 450.816406 Z M 742.628906 -532.414062 " clip-rule="nonzero"/></clipPath><clipPath id="0119ed3614"><path d="M 197 67 L 1426 67 L 1426 706 L 197 706 Z M 197 67 " clip-rule="nonzero"/></clipPath><clipPath id="566b2d9023"><path d="M 742.628906 -532.414062 L 1725.859375 450.816406 L 742.628906 1434.050781 L -240.601562 450.816406 Z M 742.628906 -532.414062 " clip-rule="nonzero"/></clipPath><clipPath id="19ac75c2c3"><path d="M 742.628906 -532.414062 L 1725.859375 450.816406 L 742.628906 1434.050781 L -240.601562 450.816406 Z M 742.628906 -532.414062 " clip-rule="nonzero"/></clipPath><clipPath id="560ca424e5"><path d="M 292 126 L 1094 126 L 1094 704 L 292 704 Z M 292 126 " clip-rule="nonzero"/></clipPath><clipPath id="1ba0178169"><path d="M 742.628906 -532.414062 L 1725.859375 450.816406 L 742.628906 1434.050781 L -240.601562 450.816406 Z M 742.628906 -532.414062 " clip-rule="nonzero"/></clipPath><clipPath id="24fbb9e030"><path d="M 742.628906 -532.414062 L 1725.859375 450.816406 L 742.628906 1434.050781 L -240.601562 450.816406 Z M 742.628906 -532.414062 " clip-rule="nonzero"/></clipPath><clipPath id="e2ff474fad"><path d="M 239 89 L 1411 89 L 1411 685 L 239 685 Z M 239 89 " clip-rule="nonzero"/></clipPath><clipPath id="3df1bb64e0"><path d="M 742.628906 -532.414062 L 1725.859375 450.816406 L 742.628906 1434.050781 L -240.601562 450.816406 Z M 742.628906 -532.414062 " clip-rule="nonzero"/></clipPath><clipPath id="63b96a6001"><path d="M 742.628906 -532.414062 L 1725.859375 450.816406 L 742.628906 1434.050781 L -240.601562 450.816406 Z M 742.628906 -532.414062 " clip-rule="nonzero"/></clipPath></defs><g clip-path="url(#04c00a7e55)"><g clip-path="url(#1c02c1b16b)"><path fill="#cddfae" d="M 773.160156 1403.519531 L 821.347656 1355.332031 C 804.484375 1338.46875 804.484375 1311.132812 821.347656 1294.269531 C 838.207031 1277.410156 865.546875 1277.410156 882.40625 1294.269531 L 930.59375 1246.082031 C 913.734375 1229.222656 913.734375 1201.882812 930.59375 1185.023438 C 947.457031 1168.160156 974.792969 1168.160156 991.65625 1185.023438 L 1039.84375 1136.835938 C 1022.980469 1119.972656 1022.980469 1092.636719 1039.84375 1075.773438 C 1056.703125 1058.914062 1084.042969 1058.914062 1100.902344 1075.773438 L 1149.089844 1027.585938 C 1132.230469 1010.726562 1132.230469 983.386719 1149.089844 966.527344 C 1165.953125 949.664062 1193.289062 949.664062 1210.152344 966.527344 L 1258.339844 918.339844 C 1241.476562 901.476562 1241.476562 874.140625 1258.339844 857.277344 C 1275.199219 840.417969 1302.539062 840.417969 1319.398438 857.277344 L 1367.585938 809.089844 C 1350.726562 792.230469 1350.726562 764.890625 1367.585938 748.03125 C 1384.449219 731.167969 1411.785156 731.167969 1428.648438 748.03125 L 1476.835938 699.84375 C 1459.972656 682.980469 1459.972656 655.644531 1476.835938 638.78125 C 1493.695312 621.921875 1521.035156 621.921875 1537.894531 638.78125 L 1586.082031 590.59375 C 1569.222656 573.734375 1569.222656 546.394531 1586.082031 529.535156 C 1602.945312 512.671875 1630.28125 512.671875 1647.144531 529.535156 L 1695.332031 481.347656 C 1678.46875 464.484375 1678.46875 437.148438 1695.332031 420.285156 L 1647.144531 372.101562 C 1630.28125 388.960938 1602.945312 388.960938 1586.082031 372.101562 C 1569.222656 355.238281 1569.222656 327.898438 1586.082031 311.039062 L 1537.894531 262.851562 C 1521.035156 279.714844 1493.695312 279.714844 1476.835938 262.851562 C 1459.972656 245.992188 1459.972656 218.652344 1476.835938 201.789062 L 1428.648438 153.605469 C 1411.785156 170.464844 1384.449219 170.464844 1367.585938 153.605469 C 1350.726562 136.742188 1350.726562 109.402344 1367.585938 92.542969 L 1319.398438 44.355469 C 1302.539062 61.21875 1275.199219 61.21875 1258.339844 44.355469 C 1241.476562 27.496094 1241.476562 0.15625 1258.339844 -16.707031 L 1210.152344 -64.890625 C 1193.289062 -48.03125 1165.953125 -48.03125 1149.089844 -64.890625 C 1132.230469 -81.753906 1132.230469 -109.09375 1149.089844 -125.953125 L 1100.902344 -174.140625 C 1084.042969 -157.277344 1056.703125 -157.277344 1039.84375 -174.140625 C 1022.980469 -191 1022.980469 -218.339844 1039.84375 -235.203125 L 991.65625 -283.386719 C 974.792969 -266.527344 947.457031 -266.527344 930.59375 -283.386719 C 913.734375 -300.25 913.734375 -327.585938 930.59375 -344.449219 L 882.40625 -392.636719 C 865.546875 -375.773438 838.207031 -375.773438 821.347656 -392.636719 C 804.484375 -409.496094 804.484375 -436.835938 821.347656 -453.695312 L 773.160156 -501.882812 C 756.296875 -485.023438 728.960938 -485.023438 712.097656 -501.882812 L 663.910156 -453.695312 C 680.773438 -436.835938 680.773438 -409.496094 663.910156 -392.636719 C 647.050781 -375.773438 619.710938 -375.773438 602.851562 -392.636719 L 554.664062 -344.449219 C 571.523438 -327.585938 571.523438 -300.25 554.664062 -283.386719 C 537.800781 -266.527344 510.464844 -266.527344 493.601562 -283.386719 L 445.414062 -235.203125 C 462.277344 -218.339844 462.277344 -191 445.414062 -174.140625 C 428.554688 -157.277344 401.214844 -157.277344 384.355469 -174.140625 L 336.167969 -125.953125 C 353.027344 -109.09375 353.027344 -81.753906 336.167969 -64.890625 C 319.304688 -48.03125 291.96875 -48.03125 275.105469 -64.890625 L 226.917969 -16.707031 C 243.78125 0.15625 243.78125 27.496094 226.917969 44.355469 C 210.058594 61.21875 182.71875 61.21875 165.859375 44.355469 L 117.671875 92.542969 C 134.53125 109.402344 134.53125 136.742188 117.671875 153.605469 C 100.808594 170.464844 73.472656 170.464844 56.609375 153.605469 L 8.421875 201.789062 C 25.285156 218.652344 25.285156 245.992188 8.421875 262.851562 C -8.4375 279.714844 -35.777344 279.714844 -52.636719 262.851562 L -100.824219 311.039062 C -83.964844 327.898438 -83.964844 355.238281 -100.824219 372.101562 C -117.6875 388.960938 -145.023438 388.960938 -161.886719 372.101562 L -210.074219 420.285156 C -193.210938 437.148438 -193.210938 464.484375 -210.074219 481.347656 L -161.886719 529.535156 C -145.023438 512.671875 -117.6875 512.671875 -100.824219 529.535156 C -83.964844 546.394531 -83.964844 573.734375 -100.824219 590.59375 L -52.636719 638.78125 C -35.777344 621.921875 -8.4375 621.921875 8.421875 638.78125 C 25.285156 655.644531 25.285156 682.980469 8.421875 699.84375 L 56.609375 748.03125 C 73.472656 731.167969 100.808594 731.167969 117.671875 748.03125 C 134.53125 764.890625 134.53125 792.230469 117.671875 809.089844 L 165.859375 857.277344 C 182.71875 840.417969 210.058594 840.417969 226.917969 857.277344 C 243.78125 874.140625 243.78125 901.476562 226.917969 918.339844 L 275.105469 966.527344 C 291.96875 949.664062 319.304688 949.664062 336.167969 966.527344 C 353.027344 983.386719 353.027344 1010.726562 336.167969 1027.585938 L 384.355469 1075.773438 C 401.214844 1058.914062 428.554688 1058.914062 445.414062 1075.773438 C 462.277344 1092.636719 462.277344 1119.972656 445.414062 1136.835938 L 493.601562 1185.023438 C 510.464844 1168.160156 537.800781 1168.160156 554.664062 1185.023438 C 571.523438 1201.882812 571.523438 1229.222656 554.664062 1246.082031 L 602.851562 1294.269531 C 619.710938 1277.410156 647.050781 1277.410156 663.910156 1294.269531 C 680.773438 1311.132812 680.773438 1338.46875 663.910156 1355.332031 L 712.097656 1403.519531 C 728.960938 1386.65625 756.296875 1386.65625 773.160156 1403.519531 Z M 773.160156 1403.519531 " fill-opacity="1" fill-rule="nonzero"/><path fill="#cddfae" d="M 742.628906 -368.542969 L 1561.988281 450.816406 L 742.628906 1270.175781 L -76.730469 450.816406 Z M 742.628906 -368.542969 " fill-opacity="1" fill-rule="nonzero"/></g></g><g clip-path="url(#ee5e7b4ef5)"><g clip-path="url(#0c3baf0d4a)"><g clip-path="url(#01bb2d56a7)"><path fill="#524956" d="M 1363.316406 477.070312 C 1355.253906 471.339844 1344.679688 468.796875 1335.050781 467.160156 C 1324.9375 465.441406 1314.792969 463.960938 1304.691406 462.191406 C 1294.589844 460.421875 1284.476562 458.648438 1274.359375 456.964844 C 1274.050781 456.914062 1273.742188 456.902344 1273.433594 456.855469 C 1296.273438 447.109375 1320.429688 435.417969 1337.761719 418.265625 C 1340.894531 415.167969 1336.980469 409.421875 1332.949219 411.082031 C 1319.949219 416.445312 1307.390625 422.882812 1294.207031 427.847656 C 1281.734375 432.542969 1269.035156 435.648438 1256.109375 438.777344 C 1244.015625 441.707031 1231.957031 444.789062 1219.890625 447.84375 C 1226.171875 438.253906 1230.863281 427.753906 1235.488281 417.269531 C 1241.113281 404.523438 1246.566406 391.699219 1252.070312 378.898438 C 1254.820312 372.507812 1263.71875 351.097656 1251.476562 348.824219 C 1248.914062 348.347656 1246.160156 349.253906 1244.460938 351.257812 C 1230.167969 368.136719 1223.242188 391.035156 1214.695312 411.320312 C 1210.582031 421.074219 1206.136719 430.617188 1201.003906 439.875 C 1198.460938 444.464844 1195.59375 448.890625 1192.1875 452.890625 C 1191.546875 453.640625 1190.867188 454.367188 1190.1875 455.09375 C 1185.859375 456.132812 1181.554688 457.261719 1177.214844 458.253906 C 1151.769531 464.0625 1126.296875 468.417969 1100.09375 467.449219 C 1087.554688 466.984375 1074.929688 465.347656 1062.484375 463.847656 C 1057.308594 463.222656 1052.050781 462.792969 1046.8125 462.277344 C 1045.820312 461.324219 1044.59375 460.5 1043.015625 459.90625 C 1023.351562 452.480469 1002.246094 452.867188 981.417969 453.054688 C 960.867188 453.238281 940.347656 454.617188 919.902344 456.644531 C 910.316406 457.59375 900.78125 458.976562 891.222656 460.15625 C 893.089844 457.542969 894.445312 454.667969 894.507812 451.304688 C 894.605469 446.179688 889.15625 444.207031 885.082031 445.023438 C 879.5 446.140625 874.980469 452.988281 870.929688 456.722656 C 868.296875 459.152344 865.164062 461.457031 862.09375 463.722656 C 841.304688 466.578125 820.53125 469.570312 799.71875 472.230469 C 763.75 476.828125 727.535156 480.371094 691.234375 479.949219 C 653.285156 479.515625 615.421875 474.191406 578.613281 465.046875 C 542.605469 456.101562 507.769531 443.085938 474.433594 426.828125 C 482.867188 423.992188 491.035156 420.359375 498.863281 416.121094 C 526.1875 401.339844 548.855469 379.875 571.4375 358.882812 C 594.992188 336.988281 619.78125 317.273438 646.785156 299.773438 C 660.324219 290.996094 674.058594 282.578125 688.164062 274.738281 C 695.152344 270.855469 702.375 267.113281 708.800781 262.328125 C 715.25 257.527344 720.90625 251.800781 727.246094 246.84375 C 730.5 244.300781 729.351562 237.394531 724.351562 238.324219 C 708.75 241.222656 695.011719 243.730469 680.683594 251.015625 C 667.367188 257.792969 654.460938 265.589844 641.871094 273.625 C 615.589844 290.394531 591.210938 310.085938 567.566406 330.347656 C 565.667969 331.972656 563.789062 333.636719 561.902344 335.277344 C 563.804688 330.566406 564.910156 325.664062 563.90625 320.859375 C 563.03125 316.675781 556.484375 314.410156 553.222656 317.207031 C 546.585938 322.894531 544.242188 332.824219 539.808594 340.289062 C 535.367188 347.777344 530.09375 354.808594 524.667969 361.605469 C 520.207031 367.199219 515.484375 372.558594 510.671875 377.84375 C 505.550781 381.609375 500.398438 385.339844 495.019531 388.746094 C 484.136719 395.644531 472.78125 401.484375 460.820312 406.261719 C 455.730469 408.296875 450.566406 410.21875 445.371094 412.023438 C 421.410156 399.425781 397.484375 386.691406 371.867188 377.777344 C 340.671875 366.921875 308.324219 362.726562 275.601562 367.589844 C 282.164062 362.328125 288.738281 357.097656 295.390625 351.992188 C 308.289062 342.09375 321.570312 332.769531 335.003906 323.617188 C 341.445312 319.226562 348 315.136719 353.308594 309.328125 C 357.484375 304.757812 362.789062 300.222656 363.980469 294.011719 C 364.527344 291.1875 362.601562 288.976562 360.042969 288.234375 C 353.371094 286.296875 344.492188 290.003906 338.1875 292.453125 C 330.953125 295.269531 324.558594 300.019531 318.210938 304.398438 C 304.835938 313.621094 291.902344 323.546875 279.285156 333.78125 C 262.84375 347.117188 247.101562 361.660156 233.171875 377.6875 C 217.238281 382.761719 201.625 388.886719 186.273438 395.644531 C 181.074219 397.933594 175.910156 400.300781 170.746094 402.660156 C 174.546875 396.132812 177.132812 388.820312 173.179688 381.753906 C 171.746094 379.199219 167.34375 378.179688 165.035156 380.109375 C 158.941406 385.199219 157.34375 393.132812 152.460938 399.269531 C 147.867188 405.050781 142.324219 409.894531 136.355469 414.207031 C 131.207031 417.925781 125.832031 421.394531 120.722656 425.195312 C 114.53125 427.835938 108.320312 430.433594 102.035156 432.851562 C 74.28125 443.53125 45.136719 449.777344 16.371094 456.972656 C 6.949219 459.332031 9.253906 472.835938 17.605469 474.710938 C 40.648438 479.882812 63.609375 476.296875 85.839844 469.609375 C 91.03125 471.386719 96.304688 472.988281 101.386719 474.988281 C 109.800781 478.296875 118.113281 481.851562 126.597656 484.976562 C 144.25 491.484375 161.929688 497.84375 179.40625 504.820312 C 197.464844 512.023438 215.082031 520.230469 233.019531 527.707031 C 241.519531 531.25 249.925781 534.757812 258.757812 537.386719 C 266.1875 539.601562 274.171875 543.191406 281.265625 538.835938 C 283.199219 537.648438 284.203125 535.316406 284.085938 533.113281 C 283.617188 524.394531 274.386719 519.152344 267.941406 514.402344 C 260.128906 508.648438 251.28125 504.082031 242.5625 499.855469 C 225.066406 491.378906 206.804688 484.433594 188.5 477.933594 C 169.714844 471.257812 150.46875 465.003906 130.992188 460.699219 C 126.609375 459.726562 122.210938 458.964844 117.800781 458.246094 C 149.339844 445.699219 179.589844 430.179688 210.972656 417.261719 C 238.027344 406.121094 266.191406 396.730469 295.609375 395.117188 C 313.84375 394.117188 331.503906 396.769531 348.664062 401.589844 C 349.441406 402.300781 350.296875 402.949219 351.046875 403.683594 C 357.625 410.105469 364.3125 416.394531 370.933594 422.792969 C 375.390625 427.105469 379.207031 431.746094 383.136719 436.332031 C 383.777344 438.160156 384.339844 440.015625 384.796875 441.898438 C 384.929688 442.441406 385.046875 442.992188 385.175781 443.542969 C 385.179688 443.5625 385.179688 443.542969 385.183594 443.5625 C 385.199219 443.667969 385.1875 443.628906 385.214844 443.792969 C 385.269531 444.152344 385.546875 445.609375 385.667969 446.230469 C 385.753906 446.714844 385.910156 447.625 385.933594 447.761719 C 386.671875 452.527344 386.734375 457.4375 386.539062 462.253906 C 386.527344 462.46875 386.511719 462.707031 386.5 462.832031 C 386.429688 463.613281 386.328125 464.390625 386.246094 465.171875 C 386.132812 466.285156 386.011719 467.394531 385.871094 468.503906 C 385.519531 471.3125 385.410156 473.378906 385.972656 475.941406 C 385.933594 476.148438 385.910156 476.359375 385.859375 476.566406 C 385.082031 480.433594 390.359375 483.140625 392.910156 479.984375 C 393.175781 479.644531 393.449219 479.316406 393.730469 478.992188 C 397.605469 476.277344 399.660156 471.871094 401.003906 467.28125 C 401.558594 465.390625 401.890625 463.472656 402.199219 461.546875 C 402.917969 462.644531 403.730469 463.613281 404.441406 464.726562 C 414.3125 480.164062 424.023438 495.699219 431.734375 512.355469 C 439.339844 528.78125 445.472656 545.570312 454.660156 561.222656 C 457.328125 565.769531 465.90625 564.46875 466.28125 558.875 C 467.632812 538.679688 462.300781 519.945312 454.15625 501.554688 C 446.09375 483.339844 436.679688 465.375 424.023438 449.894531 C 415.636719 439.632812 406.351562 429.882812 396.792969 420.472656 C 429.292969 436.121094 460.441406 454.308594 493.859375 468.0625 C 529.375 482.675781 566.464844 493.847656 604.238281 500.820312 C 677.179688 514.277344 749.863281 508.84375 822.820312 498.847656 C 858.8125 493.914062 894.753906 488.414062 930.953125 485.175781 C 948.910156 483.570312 966.929688 482.527344 984.960938 482.40625 C 1002.921875 482.285156 1020.957031 484.699219 1038.753906 482.222656 C 1040.230469 482.015625 1041.582031 481.464844 1042.828125 480.746094 C 1048.125 483.53125 1053.542969 486.097656 1059.472656 487.992188 C 1072.332031 492.097656 1085.011719 494.125 1098.472656 494.972656 C 1119.859375 496.320312 1141.078125 494.460938 1162.003906 490.445312 C 1162.929688 490.675781 1163.847656 490.921875 1164.757812 491.199219 C 1169.992188 492.78125 1175.789062 495.671875 1180.96875 498.324219 C 1186.761719 501.296875 1192.527344 504.371094 1198.609375 506.726562 C 1205.144531 509.257812 1215.207031 513.28125 1221.554688 508.503906 C 1225.46875 505.558594 1225.53125 500.769531 1222.28125 497.339844 C 1219.503906 494.40625 1215.203125 493.910156 1211.480469 492.894531 C 1208.710938 492.140625 1206.074219 491.207031 1203.429688 490.078125 C 1198.976562 488.179688 1194.679688 485.960938 1190.386719 483.742188 C 1210.910156 478.445312 1231.636719 472.847656 1251.550781 465.519531 C 1258.132812 467.871094 1264.703125 470.234375 1271.511719 472.039062 C 1281.417969 474.671875 1291.441406 477.089844 1301.46875 479.222656 C 1311.488281 481.351562 1321.535156 483.503906 1331.671875 485.003906 C 1341.390625 486.4375 1352.761719 487.1875 1362.066406 483.40625 C 1364.429688 482.445312 1365.785156 478.824219 1363.316406 477.070312 Z M 1363.316406 477.070312 " fill-opacity="1" fill-rule="nonzero"/></g></g></g><g clip-path="url(#0119ed3614)"><g clip-path="url(#566b2d9023)"><g clip-path="url(#19ac75c2c3)"><path fill="#fbe4ea" d="M 863.28125 610.054688 C 854.351562 614.75 843.675781 614.371094 833.660156 613.175781 C 815.1875 610.96875 797.007812 606.351562 779.71875 599.484375 C 776.960938 598.386719 774.21875 597.207031 771.496094 595.953125 C 775.21875 620.859375 771.832031 646.828125 760.671875 669.429688 C 757.953125 674.9375 752.128906 681.101562 746.785156 678.082031 C 742.113281 675.441406 742.464844 667.6875 737.71875 665.179688 C 733.511719 662.957031 728.707031 666.359375 724.652344 668.851562 C 706.03125 680.324219 680.074219 672.746094 665.59375 656.355469 C 651.117188 639.964844 646.183594 617.148438 645.503906 595.289062 C 645.296875 588.503906 645.542969 581.628906 646.273438 574.828125 C 645.40625 575.316406 644.488281 575.863281 643.65625 576.3125 C 630.976562 583.15625 616.597656 587.464844 602.082031 586.460938 C 587.925781 585.484375 574.472656 579.609375 560.335938 578.417969 C 554.902344 577.957031 549.371094 578.1875 544.082031 576.875 C 538.792969 575.558594 533.578125 572.300781 531.777344 567.15625 C 529.980469 562.007812 533.160156 555.1875 538.589844 554.726562 C 534.339844 557.023438 528.648438 554.257812 526.570312 549.898438 C 524.488281 545.539062 525.308594 540.292969 527.246094 535.867188 C 529.179688 531.441406 532.132812 527.542969 534.46875 523.3125 C 540.753906 511.933594 542.378906 498.597656 547.183594 486.519531 C 556.824219 462.296875 580.160156 444.082031 605.996094 440.605469 C 610.289062 440.027344 614.613281 440.003906 618.929688 440.222656 C 618.273438 437.679688 617.617188 435.132812 617.019531 432.605469 C 613.65625 418.425781 610.28125 404.160156 609.375 389.617188 C 608.882812 381.761719 609.15625 373.671875 612.066406 366.359375 C 614.976562 359.050781 620.914062 352.59375 628.5625 350.75 C 636.207031 348.902344 645.308594 352.757812 647.917969 360.183594 C 648.390625 355.027344 648.894531 349.746094 651.144531 345.082031 C 653.394531 340.421875 657.792969 336.4375 662.964844 336.199219 C 666.554688 336.035156 669.976562 337.644531 673.128906 339.378906 C 693.273438 350.449219 709.660156 368.230469 719.046875 389.21875 C 721.382812 394.441406 722.964844 399.589844 724.097656 404.710938 C 724.460938 404.03125 724.734375 403.292969 725.109375 402.617188 C 732.792969 388.78125 743.179688 375.953125 757.070312 368.367188 C 776.402344 357.8125 799.695312 358.65625 821.691406 359.78125 C 828.203125 360.113281 836.105469 361.40625 838.414062 367.503906 C 840.519531 373.070312 837.773438 381.808594 843.464844 383.542969 C 846.789062 384.550781 850.484375 381.640625 853.695312 382.960938 C 856.914062 384.289062 857.195312 388.660156 856.957031 392.132812 C 855.6875 410.664062 854.390625 429.339844 849.476562 447.246094 C 844.5625 465.15625 835.714844 482.472656 821.578125 494.511719 C 820.054688 495.804688 818.421875 496.871094 816.804688 497.980469 C 820.21875 498.957031 823.597656 500.054688 826.894531 501.371094 C 849.503906 510.394531 868.902344 527.253906 880.988281 548.386719 C 882.402344 550.863281 883.75 553.835938 882.636719 556.460938 C 880.316406 561.925781 871.152344 559.40625 867.050781 563.699219 C 864.265625 566.613281 865.070312 571.480469 867.136719 574.945312 C 869.203125 578.40625 872.296875 581.21875 874.019531 584.863281 C 878.328125 593.984375 872.210938 605.363281 863.28125 610.054688 Z M 1106.167969 492.695312 C 1124.699219 485.769531 1141.8125 473.117188 1152.933594 459.226562 C 1155.992188 455.40625 1158.921875 450.929688 1158.542969 446.054688 C 1158.160156 441.175781 1152.707031 436.652344 1148.402344 438.976562 C 1156.109375 435.765625 1156.867188 424.222656 1151.871094 417.535156 C 1146.875 410.84375 1138.464844 407.839844 1130.546875 405.179688 C 1114.886719 399.925781 1098.320312 394.6875 1082.132812 396.167969 C 1082.902344 378.574219 1078.15625 360.71875 1067.515625 346.652344 C 1065.539062 344.042969 1063.089844 341.382812 1059.84375 340.96875 C 1056.300781 340.515625 1052.90625 343.023438 1051.199219 346.164062 C 1049.488281 349.304688 1049.105469 352.972656 1048.753906 356.53125 C 1045.195312 347.210938 1031.699219 345.023438 1023.382812 350.527344 C 1015.066406 356.035156 1011.386719 366.488281 1010.542969 376.425781 C 1009.714844 386.152344 1011.203125 395.832031 1013.675781 405.3125 C 1001.898438 399.4375 988.644531 396.601562 976.445312 397.773438 C 968.140625 398.570312 958.238281 403.050781 958.222656 411.394531 C 958.21875 414.105469 959.257812 417.15625 957.617188 419.316406 C 954.898438 422.894531 949.199219 419.535156 944.769531 420.277344 C 938.289062 421.359375 937.167969 430.28125 938.625 436.683594 C 943.453125 457.851562 959.441406 476.140625 979.773438 483.746094 C 983.042969 484.96875 986.757812 485.890625 990.695312 486.535156 C 983.652344 494.0625 978.15625 503.023438 973.761719 512.394531 C 968.152344 524.347656 964.410156 539.53125 972.535156 549.9375 C 978.257812 548.949219 983.976562 547.960938 989.695312 546.976562 C 989.40625 551.140625 989.132812 555.441406 990.511719 559.378906 C 991.890625 563.316406 995.378906 566.832031 999.550781 566.886719 C 1003.738281 566.941406 1007.144531 563.714844 1010.050781 560.707031 C 1019.324219 551.121094 1030.320312 539.519531 1038.753906 526.714844 C 1042.707031 538.695312 1049.976562 549.511719 1058.5 558.917969 C 1063.171875 564.074219 1068.308594 569 1074.574219 572.019531 C 1080.84375 575.035156 1088.449219 575.917969 1094.734375 572.933594 C 1101.019531 569.953125 1105.332031 562.535156 1103.480469 555.832031 C 1107.492188 560.304688 1115.328125 559.242188 1119.527344 554.945312 C 1123.730469 550.648438 1124.984375 544.261719 1125.074219 538.253906 C 1125.273438 525.160156 1117.574219 507.050781 1106.167969 492.695312 Z M 583.304688 644.902344 C 580.03125 617.148438 561.0625 593.195312 538.050781 577.328125 C 526.640625 569.460938 514.183594 563.261719 501.402344 557.953125 C 491.941406 554.027344 476.871094 545.355469 466.40625 546.261719 C 463.511719 546.511719 461.121094 547.488281 459.082031 548.917969 C 435.277344 538.011719 402.4375 585.296875 392.539062 601.128906 C 383.425781 615.699219 377.429688 632.738281 378.566406 649.890625 C 379.007812 656.554688 381.738281 664.429688 388.289062 665.734375 C 391.898438 666.453125 395.648438 664.855469 399.273438 665.476562 C 410.007812 667.308594 411.675781 685.792969 422.535156 686.648438 C 427.820312 687.066406 432.171875 682.785156 435.71875 678.847656 C 436.078125 678.449219 436.425781 678.042969 436.785156 677.648438 C 440.726562 683.070312 445.289062 687.929688 451.351562 690.589844 C 457.125 693.128906 463.589844 693.445312 469.730469 694.875 C 475.871094 696.300781 482.25 699.351562 484.824219 705.101562 C 488.269531 698.109375 495.867188 693.367188 503.664062 693.359375 C 511.460938 693.347656 519.074219 698.066406 522.535156 705.050781 C 521.648438 703.261719 528.726562 688.621094 529.445312 685.710938 C 531.085938 679.050781 532.0625 672.226562 532.394531 665.378906 C 532.660156 659.824219 532.382812 654.261719 531.800781 648.730469 C 533.617188 649.257812 535.429688 649.800781 537.242188 650.320312 C 542.910156 651.949219 549.5 653.4375 554.300781 650.015625 C 556.410156 648.511719 557.847656 646.238281 559.855469 644.601562 C 566.210938 639.410156 575.613281 642.035156 583.304688 644.902344 Z M 1218.039062 324.34375 C 1218.816406 329.84375 1220.289062 335.179688 1222.253906 340.359375 C 1225.359375 348.554688 1229.695312 356.355469 1234.433594 363.753906 C 1237.351562 368.304688 1240.792969 373.03125 1245.921875 374.738281 C 1250.339844 376.207031 1255.148438 375.148438 1259.675781 374.082031 C 1271.273438 371.34375 1283.050781 368.535156 1293.398438 362.636719 C 1317.019531 349.167969 1318.800781 325.042969 1314.867188 300.730469 C 1314.300781 297.234375 1313.167969 293.066406 1309.757812 292.105469 C 1307.453125 291.453125 1304.78125 292.589844 1302.683594 291.433594 C 1299.351562 289.589844 1300.820312 284.628906 1300.605469 280.828125 C 1300.367188 276.558594 1297.046875 272.644531 1292.875 271.714844 C 1288.695312 270.78125 1284.03125 272.914062 1281.996094 276.679688 C 1282.835938 270.308594 1276.429688 264.851562 1270.03125 264.25 C 1263.632812 263.648438 1257.464844 266.464844 1251.65625 269.21875 C 1239.910156 274.777344 1230.59375 279.601562 1223.992188 290.96875 C 1218.164062 301 1216.421875 312.929688 1218.039062 324.34375 Z M 1415.191406 415.253906 C 1418.085938 411.617188 1421.121094 407.609375 1421.1875 402.960938 C 1421.246094 398.851562 1418.886719 394.949219 1420.480469 391.007812 C 1421.621094 388.1875 1425.730469 387.832031 1425.007812 383.707031 C 1423.757812 376.566406 1413.46875 382.128906 1411.679688 376.367188 C 1411.234375 374.925781 1411.855469 373.371094 1411.707031 371.871094 C 1411.355469 368.394531 1407.34375 366.738281 1403.980469 365.804688 C 1389.6875 361.835938 1373.746094 358.015625 1360.609375 364.898438 C 1352.347656 369.230469 1347.558594 378.824219 1341.941406 386.046875 C 1340.253906 388.214844 1338.570312 390.382812 1336.882812 392.554688 C 1331.984375 398.851562 1327.085938 405.152344 1322.1875 411.453125 C 1318.828125 415.773438 1315.316406 421.519531 1317.957031 426.3125 C 1319.675781 429.429688 1323.382812 430.765625 1326.773438 431.851562 C 1334.613281 434.363281 1342.453125 436.871094 1350.292969 439.382812 C 1358.894531 442.136719 1367.828125 444.925781 1376.792969 443.847656 C 1393.070312 441.894531 1404.980469 428.082031 1415.191406 415.253906 Z M 1414.578125 493.390625 C 1413.535156 489.796875 1411.042969 486.835938 1408.613281 483.988281 C 1401.859375 476.078125 1394.21875 467.648438 1383.941406 466.042969 C 1373.816406 464.460938 1345.195312 472.007812 1348.363281 486.390625 C 1351.765625 501.816406 1376.816406 510.609375 1390.339844 510.390625 C 1392.273438 510.363281 1394.277344 510.195312 1395.964844 509.25 C 1397.332031 508.484375 1398.394531 507.261719 1399.746094 506.472656 C 1403.324219 504.394531 1408.199219 505.714844 1411.660156 503.453125 C 1414.792969 501.40625 1415.621094 496.984375 1414.578125 493.390625 Z M 371.027344 576.929688 C 366.980469 567.214844 362.699219 557.296875 357.503906 548.078125 C 361.167969 543.132812 364.402344 537.773438 369.980469 535.53125 C 373.847656 533.976562 378.195312 534.257812 382.246094 533.296875 C 386.300781 532.332031 390.515625 529.261719 390.332031 525.101562 C 390.179688 521.558594 386.902344 518.949219 383.613281 517.621094 C 380.324219 516.292969 376.683594 515.699219 373.769531 513.675781 C 370.855469 511.65625 368.976562 507.40625 371.050781 504.53125 C 372.773438 502.140625 376.453125 501.6875 377.917969 499.128906 C 380.183594 495.160156 375.316406 490.953125 371.117188 489.144531 C 355.992188 482.628906 339.511719 479.472656 323.0625 479.5 C 308.34375 479.527344 293.621094 482.089844 279.765625 487.058594 C 269.195312 490.847656 253.902344 496.457031 247.894531 507.019531 C 225.191406 521.425781 207.992188 544.398438 201.007812 570.386719 C 193.355469 598.859375 197.992188 630.417969 213.511719 655.484375 C 214.46875 657.035156 216.070312 658.777344 217.773438 658.136719 C 219.144531 657.621094 219.519531 655.910156 220.246094 654.636719 C 222.859375 650.035156 229.882812 651.351562 234.425781 654.066406 C 238.96875 656.78125 244.09375 660.4375 249.03125 658.535156 C 252.699219 657.125 254.59375 653.164062 256.136719 649.550781 C 257.648438 646.003906 259.164062 642.457031 260.675781 638.914062 C 264.761719 642.019531 269.367188 644.417969 274.359375 645.671875 C 281.609375 647.492188 290.625 646.476562 294.539062 640.113281 C 295.738281 638.164062 296.582031 635.644531 298.746094 634.898438 C 302.761719 633.503906 306.585938 639.671875 310.578125 638.203125 C 312.96875 637.324219 313.613281 634.308594 313.898438 631.777344 C 315.132812 620.753906 316.367188 609.738281 317.601562 598.71875 C 322.882812 599.480469 328.183594 600.105469 333.5 600.519531 C 338.597656 600.910156 343.996094 601.085938 348.523438 598.714844 C 353.058594 596.34375 356.1875 590.539062 353.90625 585.960938 C 357.355469 587.367188 360.976562 588.800781 364.683594 588.441406 C 368.390625 588.085938 372.148438 585.292969 372.238281 581.570312 C 372.273438 579.960938 371.644531 578.417969 371.027344 576.929688 Z M 772.21875 312.175781 C 795.738281 321.160156 822 323.054688 846.488281 317.078125 C 850.070312 316.207031 854.394531 314.148438 854.183594 310.464844 C 853.839844 304.4375 841.859375 303.40625 843.191406 297.511719 C 844.003906 293.925781 849.566406 292.996094 850.207031 289.371094 C 850.878906 285.585938 845.917969 283.679688 842.175781 282.792969 C 835.964844 281.316406 830.160156 278.664062 824.742188 275.289062 C 822.300781 273.769531 819.972656 272.050781 817.683594 270.28125 C 840.132812 263.992188 859.410156 248.507812 873.109375 229.566406 C 869.851562 228.210938 866.5 226.785156 864.054688 224.246094 C 861.609375 221.703125 860.296875 217.71875 861.867188 214.5625 C 863.492188 211.300781 867.621094 209.796875 869.046875 206.449219 C 870.257812 203.601562 869.074219 200.191406 866.960938 197.929688 C 866.800781 197.753906 866.632812 197.585938 866.460938 197.421875 C 864.40625 195.457031 861.757812 194.210938 859.171875 193.007812 C 840.445312 184.300781 821.003906 175.394531 800.226562 173.261719 C 804.84375 153.972656 803.953125 133.664062 800.820312 114.027344 C 799.707031 107.089844 798.265625 99.972656 794.34375 94.144531 C 786.621094 82.671875 770.585938 78.992188 757.234375 82.605469 C 743.882812 86.21875 732.90625 95.742188 723.863281 106.207031 C 723.574219 106.539062 723.308594 106.894531 723.023438 107.230469 C 723.359375 104.210938 723.457031 101.203125 722.710938 98.273438 C 721.425781 93.21875 716.929688 88.523438 711.734375 89.003906 C 706.847656 89.457031 701.042969 93.855469 697.917969 90.070312 C 696.03125 87.789062 697.214844 84.417969 697.382812 81.460938 C 697.941406 71.773438 685.621094 65.414062 676.378906 68.371094 C 667.136719 71.332031 661.074219 80.089844 656.695312 88.75 C 640.582031 120.640625 638.234375 159.203125 650.355469 192.8125 C 657.535156 212.730469 670.117188 232.714844 686.683594 246.179688 C 691.058594 249.742188 696.542969 253.148438 702.421875 255.644531 C 703.496094 259.40625 704.957031 262.871094 706.65625 265.578125 C 720.566406 287.808594 748.242188 303.015625 772.21875 312.175781 Z M 384.253906 368.125 C 385.472656 365.214844 386.425781 362.207031 387.257812 359.167969 C 399.28125 375.121094 417.945312 385.273438 437.4375 389.765625 C 444.515625 391.394531 452.34375 392.25 458.710938 388.75 C 465.082031 385.253906 468.480469 375.832031 463.605469 370.449219 C 466.972656 375.105469 475.070312 372.910156 477.816406 367.863281 C 480.5625 362.816406 479.570312 356.625 478.292969 351.023438 C 474.914062 336.164062 469.984375 321.464844 461.683594 308.6875 C 461.464844 308.351562 461.207031 308.0625 460.984375 307.730469 C 471.039062 301.449219 479.554688 292.695312 485.378906 282.359375 C 488.453125 276.90625 490.847656 270.714844 490.039062 264.503906 C 489.230469 258.296875 484.34375 252.289062 478.085938 252.03125 C 481.34375 252.738281 484.5625 249.5625 484.65625 246.230469 C 484.75 242.898438 482.410156 239.863281 479.5 238.234375 C 476.59375 236.605469 473.195312 236.125 469.871094 235.816406 C 454.742188 234.414062 439.0625 235.964844 425.023438 242.03125 C 423.222656 242.808594 421.480469 243.804688 419.703125 244.675781 C 416.222656 221.378906 402.074219 199.929688 383.140625 185.597656 C 379.738281 183.023438 375.804688 180.539062 371.550781 180.898438 C 367.300781 181.261719 363.351562 185.96875 365.316406 189.753906 C 360.945312 185.742188 354.960938 181.445312 349.625 184.039062 C 346.707031 185.457031 345.054688 188.550781 343.609375 191.457031 C 336.765625 205.195312 330.082031 219.238281 327.160156 234.304688 C 325.589844 242.414062 325.347656 250.871094 326.589844 259.023438 C 312.308594 257.574219 297.660156 259.367188 284.085938 264.140625 C 280.183594 265.515625 276.097656 267.332031 273.964844 270.882812 C 271.835938 274.429688 272.929688 280.09375 276.917969 281.191406 C 271.285156 279.515625 265.992188 286.160156 266.695312 291.996094 C 267.398438 297.828125 271.855469 302.429688 276.253906 306.328125 C 285.3125 314.359375 295.429688 321.476562 306.269531 326.898438 C 299.261719 338.332031 293.867188 350.757812 290.765625 363.808594 C 288.964844 371.359375 287.90625 379.511719 290.785156 386.722656 C 295.238281 397.882812 309.738281 403.738281 320.691406 398.800781 C 324.347656 397.152344 329.140625 394.714844 331.761719 397.746094 C 334.324219 400.707031 331.617188 406.113281 334.398438 408.867188 C 336.304688 410.757812 339.488281 410.058594 341.996094 409.097656 C 360.828125 401.890625 376.464844 386.726562 384.253906 368.125 Z M 384.253906 368.125 " fill-opacity="1" fill-rule="nonzero"/></g></g></g><g clip-path="url(#560ca424e5)"><g clip-path="url(#1ba0178169)"><g clip-path="url(#24fbb9e030)"><path fill="#524956" d="M 730.441406 477.777344 C 733.398438 473.8125 737.226562 470.492188 741.433594 467.90625 C 743.546875 466.605469 745.84375 465.515625 748.1875 464.703125 C 749.371094 464.289062 750.550781 463.976562 751.785156 463.746094 C 752.941406 463.527344 754.046875 463.242188 755.140625 463.8125 C 755.800781 464.160156 755.945312 464.960938 755.496094 465.539062 C 754.773438 466.464844 753.722656 466.675781 752.675781 467.082031 C 751.589844 467.5 750.496094 467.910156 749.417969 468.34375 C 747.339844 469.179688 745.332031 470.136719 743.371094 471.214844 C 739.339844 473.441406 735.785156 476.339844 732.601562 479.65625 C 731.316406 481 729.347656 479.246094 730.441406 477.777344 Z M 768.019531 502.65625 C 767.007812 502.007812 765.773438 501.898438 764.617188 501.691406 C 763.285156 501.449219 761.992188 501.308594 760.644531 501.234375 C 758.167969 501.09375 755.699219 501 753.21875 500.941406 C 748.28125 500.832031 743.351562 500.792969 738.410156 500.800781 C 736.230469 500.804688 735.972656 504.441406 738.183594 504.648438 C 743.171875 505.121094 748.15625 505.539062 753.15625 505.886719 C 755.691406 506.0625 758.226562 506.207031 760.769531 506.292969 C 761.980469 506.335938 763.144531 506.296875 764.351562 506.195312 C 765.71875 506.074219 766.972656 506.015625 768.210938 505.375 C 769.398438 504.761719 768.898438 503.21875 768.019531 502.65625 Z M 700.875 463.128906 C 699.46875 469.214844 698.058594 475.300781 696.652344 481.386719 C 696.3125 482.851562 698.539062 483.242188 698.929688 481.816406 C 700.589844 475.78125 702.25 469.738281 703.910156 463.703125 C 704.726562 460.734375 705.59375 457.777344 706.417969 454.808594 C 707.132812 452.242188 708.304688 448.816406 707.503906 446.183594 C 707.296875 445.511719 706.472656 445.449219 706.023438 445.890625 C 704.082031 447.816406 703.476562 451.566406 702.886719 454.144531 C 702.203125 457.136719 701.566406 460.136719 700.875 463.128906 Z M 728.09375 511.808594 C 723.691406 509.710938 719.121094 508.007812 714.445312 506.640625 C 712.722656 506.140625 711.726562 509.089844 713.453125 509.660156 C 717.941406 511.144531 722.300781 512.96875 726.492188 515.152344 C 728.546875 516.222656 730.597656 517.316406 732.597656 518.488281 C 734.542969 519.632812 736.65625 520.789062 738.832031 521.40625 C 739.589844 521.617188 740.175781 520.625 739.753906 520.015625 C 737.09375 516.210938 732.183594 513.757812 728.09375 511.808594 Z M 726.863281 455.03125 C 727.191406 451.804688 727.679688 447.285156 726.148438 444.316406 C 725.796875 443.632812 724.832031 443.871094 724.523438 444.429688 C 723.761719 445.804688 723.667969 447.539062 723.375 449.066406 C 723.023438 450.882812 722.730469 452.703125 722.4375 454.527344 C 721.863281 458.089844 721.160156 461.597656 720.269531 465.09375 C 718.5 472.042969 715.878906 478.972656 712.5 485.296875 C 711.773438 486.65625 713.9375 488.148438 714.816406 486.820312 C 719.082031 480.359375 722.363281 473.671875 724.578125 466.242188 C 725.660156 462.609375 726.480469 458.804688 726.863281 455.03125 Z M 738.972656 489.625 C 743.050781 489.25 747.125 488.890625 751.203125 488.535156 C 755.34375 488.175781 759.695312 488.035156 763.710938 486.925781 C 764.949219 486.585938 764.710938 484.761719 763.542969 484.527344 C 759 483.609375 754.019531 484.015625 749.417969 484.292969 C 744.585938 484.582031 739.773438 484.996094 734.964844 485.554688 C 730.515625 486.066406 725.863281 486.378906 721.527344 487.527344 C 717.632812 488.5625 714.085938 491.140625 713.683594 495.425781 C 713.515625 497.207031 715.964844 497.703125 716.429688 495.945312 C 717.527344 491.808594 722.9375 491.429688 726.40625 490.996094 C 730.585938 490.46875 734.777344 490.011719 738.972656 489.625 Z M 1080.027344 465.398438 C 1081.054688 465.363281 1081.351562 463.835938 1080.402344 463.421875 C 1076.886719 461.894531 1072.722656 461.546875 1068.925781 461.28125 C 1064.855469 461 1060.722656 461.429688 1056.722656 462.179688 C 1050.089844 463.425781 1043.976562 466.085938 1038.257812 469.554688 C 1038.546875 468.957031 1038.894531 468.382812 1039.160156 467.773438 C 1039.453125 467.820312 1039.769531 467.804688 1040.101562 467.585938 C 1047.511719 462.699219 1055.386719 458.347656 1063.421875 454.585938 C 1067.28125 452.78125 1071.226562 451.152344 1075.195312 449.621094 C 1079.195312 448.074219 1083.515625 446.746094 1087.238281 444.621094 C 1088.117188 444.121094 1087.515625 442.90625 1086.65625 442.90625 C 1082.402344 442.894531 1077.855469 444.289062 1073.851562 445.640625 C 1069.546875 447.101562 1065.363281 448.871094 1061.265625 450.832031 C 1053.871094 454.375 1047.117188 458.785156 1040.679688 463.800781 C 1041.121094 462.246094 1041.398438 460.644531 1041.609375 459.03125 C 1041.890625 460.382812 1043.808594 460.363281 1044.476562 459.285156 C 1045.824219 457.121094 1046.566406 454.675781 1047.402344 452.285156 C 1048.257812 449.84375 1049.015625 447.371094 1049.800781 444.90625 C 1050.574219 442.464844 1051.382812 440.03125 1052.074219 437.570312 C 1052.765625 435.101562 1053.472656 432.71875 1053.332031 430.132812 C 1053.25 428.667969 1051.136719 427.8125 1050.195312 429.082031 C 1048.625 431.210938 1047.898438 433.574219 1047.105469 436.074219 C 1046.300781 438.597656 1045.601562 441.148438 1044.886719 443.695312 C 1043.691406 447.945312 1042.265625 452.398438 1041.800781 456.847656 C 1041.898438 455.582031 1042.007812 454.3125 1041.996094 453.050781 C 1041.972656 449.433594 1041.453125 445.96875 1040.433594 442.503906 C 1039.9375 440.824219 1039.167969 439.304688 1038.417969 437.734375 C 1037.652344 436.125 1036.933594 434.246094 1035.238281 433.417969 C 1034.363281 432.992188 1033.4375 433.5625 1033.214844 434.441406 C 1032.800781 436.042969 1033.546875 437.714844 1033.929688 439.253906 C 1034.28125 440.6875 1034.425781 442.195312 1034.675781 443.65625 C 1035.21875 446.800781 1035.554688 450.085938 1035.644531 453.277344 C 1035.730469 456.328125 1035.511719 459.355469 1035.136719 462.378906 C 1034.730469 465.628906 1034.417969 468.921875 1033.371094 472.042969 C 1032.933594 473.351562 1033.9375 474.285156 1034.960938 474.246094 C 1035.351562 474.394531 1035.792969 474.417969 1036.261719 474.152344 C 1042.832031 470.453125 1050.160156 467.847656 1057.5625 466.460938 C 1061.246094 465.769531 1064.960938 465.492188 1068.691406 465.277344 C 1072.492188 465.054688 1076.242188 465.527344 1080.027344 465.398438 Z M 1093 479.242188 C 1091.570312 478.453125 1089.832031 478.175781 1088.253906 477.789062 C 1086.671875 477.402344 1085.078125 477.121094 1083.46875 476.867188 C 1080.089844 476.34375 1076.660156 476.058594 1073.242188 475.921875 C 1066.460938 475.648438 1059.707031 476.058594 1052.988281 477 C 1051.160156 477.257812 1051.308594 480.003906 1053.191406 479.890625 C 1059.777344 479.492188 1066.421875 479.523438 1073.003906 479.964844 C 1076.25 480.183594 1079.484375 480.488281 1082.722656 480.820312 C 1084.34375 480.984375 1085.960938 481.175781 1087.585938 481.324219 C 1089.210938 481.472656 1090.90625 481.847656 1092.535156 481.671875 C 1093.835938 481.53125 1094.117188 479.859375 1093 479.242188 Z M 794.726562 152.085938 C 796.238281 148.28125 797.289062 144.339844 798.265625 140.375 C 799.25 136.363281 800.222656 132.046875 800.050781 127.894531 C 800 126.59375 798.171875 126.308594 797.625 127.429688 C 795.855469 131.027344 794.765625 135.007812 793.351562 138.761719 C 791.914062 142.582031 790.183594 146.296875 788.605469 150.058594 C 787.015625 153.84375 785.332031 157.578125 783.546875 161.273438 C 781.84375 164.800781 779.8125 168.363281 778.628906 172.097656 C 778.023438 174.003906 780.589844 174.582031 781.707031 173.589844 C 784.847656 170.820312 787.265625 166.742188 789.320312 163.128906 C 791.339844 159.570312 793.210938 155.886719 794.726562 152.085938 Z M 815.492188 163.515625 C 818.769531 160.714844 822.546875 157.664062 824.867188 154.003906 C 825.703125 152.691406 824.027344 151.019531 822.679688 151.535156 C 818.730469 153.058594 815.003906 156.164062 811.714844 158.777344 C 807.96875 161.75 804.316406 164.835938 800.648438 167.902344 C 793.675781 173.730469 785.84375 179.394531 780.148438 186.535156 C 778.945312 188.042969 780.683594 189.804688 782.289062 188.96875 C 790.503906 184.710938 797.644531 178.050781 804.816406 172.269531 C 808.398438 169.382812 811.996094 166.507812 815.492188 163.515625 Z M 824.707031 190.09375 C 820.300781 189.429688 815.847656 189.128906 811.398438 188.988281 C 806.949219 188.851562 802.476562 188.960938 798.035156 189.242188 C 795.761719 189.386719 793.460938 189.585938 791.210938 189.960938 C 789.160156 190.308594 786.855469 190.503906 785.0625 191.613281 C 783.804688 192.394531 784.429688 194.0625 785.632812 194.429688 C 787.5625 195.019531 789.878906 194.671875 791.878906 194.613281 C 794.046875 194.546875 796.21875 194.417969 798.390625 194.332031 C 802.738281 194.160156 807.078125 194.171875 811.425781 194.316406 C 815.664062 194.460938 819.882812 194.773438 824.109375 195.089844 C 828.40625 195.410156 832.910156 196.273438 837.207031 195.949219 C 838.589844 195.84375 838.941406 193.9375 837.710938 193.328125 C 833.800781 191.382812 828.992188 190.742188 824.707031 190.09375 Z M 377.761719 301.210938 C 379.945312 300.058594 382.152344 298.933594 384.289062 297.691406 C 390.804688 298.011719 397.398438 299.066406 403.652344 300.882812 C 406.871094 301.820312 410.015625 302.972656 413.09375 304.300781 C 414.648438 304.96875 416.1875 305.667969 417.773438 306.261719 C 419.304688 306.828125 420.753906 307.613281 422.40625 307.167969 C 423.191406 306.957031 423.484375 306.066406 423.304688 305.355469 C 422.882812 303.71875 421.25 302.804688 419.933594 301.914062 C 418.429688 300.894531 416.796875 300.074219 415.136719 299.355469 C 411.738281 297.886719 408.199219 296.703125 404.609375 295.820312 C 399.496094 294.5625 394.3125 294.171875 389.101562 294.1875 C 389.765625 293.636719 390.507812 293.183594 391.15625 292.617188 C 393.183594 290.835938 395.179688 288.914062 396.757812 286.722656 C 398.101562 284.863281 400.4375 282.339844 400.234375 279.894531 C 400.175781 279.171875 399.457031 278.378906 398.671875 278.53125 C 396.308594 278.984375 394.570312 281.3125 392.878906 282.890625 C 391.003906 284.648438 389.183594 286.472656 387.34375 288.273438 C 385.515625 290.058594 383.578125 291.722656 381.726562 293.484375 C 379.878906 295.242188 377.996094 296.941406 375.914062 298.425781 C 374.128906 299.699219 375.890625 302.199219 377.761719 301.210938 Z M 406.375 329.285156 C 405.523438 328.28125 404.535156 327.375 403.546875 326.515625 C 401.507812 324.742188 399.402344 323.019531 397.210938 321.433594 C 392.871094 318.285156 388.335938 315.40625 383.640625 312.8125 C 382.046875 311.925781 380.9375 314.398438 382.433594 315.332031 C 386.910156 318.125 391.191406 321.203125 395.289062 324.527344 C 397.242188 326.109375 399.179688 327.703125 401.070312 329.359375 C 402.085938 330.253906 403.113281 331.144531 404.214844 331.929688 C 405.136719 332.585938 405.902344 333.273438 407.074219 333.257812 C 407.632812 333.25 408.019531 332.703125 408.007812 332.1875 C 407.976562 331.003906 407.109375 330.144531 406.375 329.285156 Z M 378.386719 264.511719 C 378.460938 262.761719 378.476562 261.011719 378.230469 259.277344 C 377.988281 257.558594 378.09375 255.78125 377.085938 254.292969 C 376.648438 253.648438 375.449219 253.402344 374.949219 254.152344 C 374.050781 255.511719 373.992188 256.867188 373.714844 258.433594 C 373.40625 260.160156 373.121094 261.863281 372.914062 263.605469 C 372.503906 267.003906 372.171875 270.40625 371.691406 273.800781 C 370.734375 280.523438 369.472656 287.308594 367.535156 293.824219 C 367.015625 295.566406 369.835938 296.460938 370.554688 294.8125 C 373.378906 288.332031 375.703125 281.761719 377.078125 274.816406 C 377.75 271.433594 378.238281 267.960938 378.386719 264.511719 Z M 354.855469 278.453125 C 353.839844 276.464844 352.726562 274.546875 351.410156 272.738281 C 350.175781 271.027344 348.636719 269.007812 346.710938 268.070312 C 346.148438 267.796875 345.332031 268.257812 345.441406 268.929688 C 345.761719 270.910156 346.929688 272.8125 347.878906 274.5625 C 348.941406 276.523438 350.082031 278.441406 351.160156 280.394531 C 353.273438 284.226562 355.203125 288.105469 356.78125 292.195312 C 357.53125 294.140625 360.453125 293.15625 359.847656 291.15625 C 358.539062 286.804688 356.933594 282.5 354.855469 278.453125 Z M 368.515625 316.515625 C 369.113281 312.457031 368.839844 308.34375 368.019531 304.335938 C 367.726562 302.917969 365.347656 303.40625 365.53125 304.835938 C 366.007812 308.582031 365.851562 312.328125 365.257812 316.054688 C 364.96875 317.867188 364.589844 319.679688 364.113281 321.453125 C 363.621094 323.289062 362.921875 325.105469 362.609375 326.976562 C 362.476562 327.796875 363.476562 328.246094 364.03125 327.667969 C 365.410156 326.234375 366.3125 324.257812 366.996094 322.394531 C 367.691406 320.484375 368.214844 318.53125 368.515625 316.515625 Z M 320.980469 586.605469 C 323.800781 587.933594 326.546875 589.398438 329.289062 590.875 C 331.84375 592.257812 334.722656 594.421875 337.746094 594.21875 C 338.675781 594.160156 339.390625 593.164062 339.050781 592.265625 C 337.894531 589.203125 334.316406 587.511719 331.636719 585.980469 C 328.84375 584.386719 325.925781 582.984375 322.988281 581.667969 C 320.039062 580.339844 317.042969 579.171875 313.976562 578.144531 C 310.753906 577.0625 307.632812 576.117188 304.226562 576.113281 C 303.515625 576.113281 303.226562 576.597656 303.09375 577.109375 C 301.511719 576.148438 300.0625 575.046875 298.347656 574.21875 C 296.675781 573.410156 294.96875 575.824219 296.511719 577.011719 C 301.859375 581.128906 306.796875 586.246094 310.96875 591.539062 C 313.109375 594.261719 314.898438 597.1875 316.773438 600.089844 C 317.644531 601.433594 318.5 602.777344 319.351562 604.132812 C 320.257812 605.582031 320.910156 607.316406 322.359375 608.300781 C 323.339844 608.96875 324.519531 608.628906 324.847656 607.4375 C 325.308594 605.765625 324.683594 604.121094 324.199219 602.511719 C 323.671875 600.765625 323.042969 599.050781 322.257812 597.398438 C 320.621094 593.9375 318.390625 590.765625 315.957031 587.816406 C 314.046875 585.5 311.878906 583.617188 309.6875 581.757812 C 310.601562 582.121094 311.511719 582.488281 312.429688 582.859375 C 315.308594 584.03125 318.167969 585.28125 320.980469 586.605469 Z M 301.148438 610.234375 C 300.636719 608.117188 299.960938 606.054688 299.296875 603.976562 C 297.933594 599.703125 296.367188 595.488281 294.902344 591.246094 C 294.300781 589.496094 291.789062 590.40625 292.222656 592.152344 C 293.296875 596.449219 294.265625 600.78125 295.4375 605.054688 C 296.011719 607.152344 296.554688 609.257812 297.277344 611.3125 C 297.996094 613.34375 298.699219 615.648438 300.074219 617.316406 C 300.617188 617.976562 301.933594 617.957031 302.054688 616.914062 C 302.304688 614.707031 301.671875 612.386719 301.148438 610.234375 Z M 311.609375 567.554688 C 316.433594 568.734375 321.246094 570.023438 326.101562 571.074219 C 328.484375 571.59375 330.867188 572.148438 333.257812 572.613281 C 335.59375 573.066406 338.25 573.621094 340.625 573.457031 C 341.925781 573.367188 342.199219 571.613281 341.085938 571.03125 C 338.984375 569.929688 336.285156 569.378906 333.96875 568.863281 C 331.585938 568.332031 329.1875 567.886719 326.792969 567.40625 C 321.929688 566.429688 317.011719 565.683594 312.121094 564.839844 C 310.363281 564.535156 309.890625 567.132812 311.609375 567.554688 Z M 471.890625 689.546875 C 472.367188 687.042969 472.535156 684.347656 472.449219 681.800781 C 472.371094 679.339844 472.125 676.894531 471.648438 674.476562 C 471.390625 673.164062 471.117188 671.859375 470.714844 670.582031 C 470.328125 669.355469 469.679688 668.316406 469.117188 667.179688 C 469.628906 665.410156 470.179688 663.652344 470.582031 661.84375 C 470.988281 660 468.050781 658.949219 467.367188 660.789062 C 465.414062 666.082031 462.945312 671.21875 460.210938 676.148438 C 458.859375 678.589844 457.445312 680.984375 456.039062 683.390625 C 455.363281 684.542969 454.789062 685.738281 454.15625 686.914062 C 453.480469 688.160156 452.808594 689.285156 452.742188 690.726562 C 452.703125 691.621094 453.757812 692.121094 454.496094 691.894531 C 455.871094 691.46875 456.839844 690.332031 457.789062 689.300781 C 458.703125 688.3125 459.601562 687.339844 460.382812 686.242188 C 462.125 683.789062 463.671875 681.148438 464.980469 678.433594 C 465.660156 677.027344 466.152344 675.550781 466.726562 674.105469 C 466.742188 674.402344 466.769531 674.695312 466.777344 674.988281 C 466.851562 677.195312 466.867188 679.570312 466.707031 681.632812 C 466.539062 683.832031 466.304688 686.089844 466.035156 688.441406 C 465.871094 689.820312 465.722656 691.03125 465.738281 692.378906 C 465.753906 693.507812 465.484375 694.796875 465.9375 695.910156 C 466.339844 696.894531 467.59375 697.511719 468.546875 696.804688 C 469.6875 695.957031 470.074219 694.707031 470.675781 693.484375 C 471.289062 692.238281 471.625 690.953125 471.890625 689.546875 Z M 497.53125 692.371094 C 496.414062 688.660156 494.734375 685.125 492.945312 681.695312 C 489.425781 674.964844 484.550781 669.257812 478.910156 664.238281 C 477.550781 663.023438 475.292969 664.890625 476.445312 666.398438 C 480.714844 671.972656 484.328125 678.195312 487.382812 684.511719 C 488.890625 687.632812 490.132812 690.871094 491.335938 694.121094 C 491.945312 695.761719 492.597656 697.382812 493.289062 698.988281 C 493.941406 700.488281 494.65625 702.273438 495.984375 703.289062 C 496.722656 703.851562 497.6875 703.664062 498.136719 702.84375 C 499.730469 699.945312 498.417969 695.328125 497.53125 692.371094 Z M 503.171875 668.71875 C 500.8125 665.765625 498.3125 662.941406 495.773438 660.140625 C 494.574219 658.8125 492.457031 660.765625 493.4375 662.191406 C 495.523438 665.234375 497.640625 668.234375 499.910156 671.140625 C 501.050781 672.597656 502.269531 673.988281 503.476562 675.390625 C 504.722656 676.835938 505.851562 678.171875 507.398438 679.292969 C 508.300781 679.941406 509.875 679.203125 509.371094 677.972656 C 509 677.074219 508.648438 676.1875 508.09375 675.386719 C 507.613281 674.683594 507.097656 674.007812 506.601562 673.320312 C 505.480469 671.769531 504.367188 670.214844 503.171875 668.71875 Z M 503.171875 668.71875 " fill-opacity="1" fill-rule="nonzero"/></g></g></g><g clip-path="url(#e2ff474fad)"><g clip-path="url(#3df1bb64e0)"><g clip-path="url(#63b96a6001)"><path fill="#d4e6b5" d="M 369.164062 524.699219 C 366.550781 530.679688 362.238281 535.496094 356.496094 538.644531 C 353.8125 540.113281 350.929688 541.21875 347.933594 541.859375 C 344.605469 542.570312 340.902344 542.3125 337.847656 544 C 334.621094 545.78125 332.351562 548.925781 329.246094 550.90625 C 326.707031 552.527344 323.832031 553.71875 320.910156 554.4375 C 315.242188 555.832031 307.792969 556.429688 302.101562 554.878906 C 301.257812 554.652344 300.972656 553.300781 301.972656 553.039062 C 304.742188 552.3125 307.617188 552.359375 310.453125 552.085938 C 313.703125 551.769531 316.898438 551.183594 320.035156 550.261719 C 322.925781 549.414062 325.644531 548.203125 328.0625 546.382812 C 330.597656 544.480469 332.679688 541.976562 335.453125 540.390625 C 340.660156 537.410156 347.058594 538.542969 352.589844 536.476562 C 358.773438 534.171875 364.117188 529.53125 367.53125 523.917969 C 368.132812 522.9375 369.636719 523.617188 369.164062 524.699219 Z M 274.449219 613.507812 C 277.257812 607.617188 274.175781 602.183594 273.125 596.316406 C 271.730469 588.507812 274.355469 580.503906 279.695312 574.730469 C 280.441406 573.921875 279.210938 572.929688 278.433594 573.632812 C 273.90625 577.742188 270.855469 583.136719 269.894531 589.203125 C 269.4375 592.09375 269.457031 595.035156 269.980469 597.917969 C 270.546875 601.03125 271.78125 604.117188 271.675781 607.324219 C 271.554688 611.238281 268.5625 613.867188 266.3125 616.746094 C 263.738281 620.042969 261.777344 623.777344 259.167969 627.042969 C 253.832031 633.714844 245.933594 637.179688 240.210938 643.28125 C 239.613281 643.910156 240.359375 644.726562 241.070312 644.5625 C 248.390625 642.929688 255.886719 637.828125 260.996094 632.460938 C 263.707031 629.613281 265.703125 626.316406 267.8125 623.027344 C 269.882812 619.796875 272.792969 616.988281 274.449219 613.507812 Z M 305.921875 618.71875 C 303.703125 625.679688 297.367188 630.578125 290.589844 632.707031 C 287.355469 633.71875 283.984375 634.164062 280.605469 634.324219 C 278.882812 634.40625 277.15625 634.410156 275.4375 634.519531 C 273.789062 634.628906 271.945312 634.597656 270.402344 635.234375 C 269.664062 635.535156 269.585938 636.519531 270.300781 636.902344 C 271.871094 637.753906 273.917969 637.871094 275.679688 637.996094 C 277.71875 638.136719 279.734375 638.0625 281.765625 637.867188 C 285.609375 637.496094 289.472656 636.726562 293.066406 635.296875 C 300.226562 632.449219 306.378906 626.847656 308.066406 619.125 C 308.375 617.71875 306.335938 617.417969 305.921875 618.71875 Z M 355.441406 575.40625 C 356.527344 571.242188 355.910156 566.640625 354.058594 562.785156 C 353.535156 561.691406 351.773438 562.203125 352.21875 563.410156 C 353.546875 567.015625 353.589844 570.839844 352.527344 574.527344 C 351.957031 576.492188 350.960938 578.300781 349.726562 579.917969 C 348.40625 581.644531 346.691406 583.046875 345.511719 584.863281 C 345.125 585.457031 345.78125 586.363281 346.457031 586.25 C 348.84375 585.851562 350.824219 584 352.246094 582.113281 C 353.742188 580.121094 354.8125 577.808594 355.441406 575.40625 Z M 551.769531 640.160156 C 554.90625 639.25 558.933594 638.210938 561.324219 635.878906 C 561.753906 635.457031 561.332031 634.605469 560.734375 634.695312 C 557.445312 635.191406 554.277344 637.121094 551.058594 638.058594 C 547.433594 639.117188 543.695312 639.71875 539.925781 639.941406 C 536.144531 640.164062 532.371094 639.964844 528.628906 639.40625 C 525.023438 638.863281 521.363281 638.066406 517.695312 638.371094 C 510.636719 638.957031 504.46875 642.753906 497.222656 642.714844 C 489.84375 642.675781 482.445312 639.875 476.585938 635.4375 C 476.566406 635.421875 476.554688 635.457031 476.535156 635.441406 C 476.667969 634.15625 477.109375 632.921875 477.121094 631.605469 C 477.164062 626.734375 477.027344 621.707031 480.859375 618.109375 C 481.472656 617.53125 480.546875 616.480469 479.878906 616.992188 C 474.933594 620.761719 474.808594 626.378906 474.375 632.109375 C 473.757812 640.214844 469.953125 647.273438 463.921875 652.683594 C 457.832031 658.148438 450.601562 660.460938 443.226562 663.554688 C 440.34375 664.761719 437.871094 666.34375 435.703125 668.601562 C 432.414062 672.023438 429.589844 675.820312 424.597656 676.691406 C 423.21875 676.929688 423.292969 678.984375 424.75 678.902344 C 432.292969 678.472656 436.699219 671.128906 443.269531 668.207031 C 450.523438 664.976562 457.742188 662.785156 464.054688 657.714844 C 469.203125 653.578125 473.386719 648.308594 475.53125 642.007812 C 475.933594 640.824219 475.847656 639.578125 476.085938 638.382812 C 481.074219 643.03125 487.3125 645.851562 494.15625 646.523438 C 497.492188 646.851562 500.835938 646.75 504.121094 646.0625 C 508.191406 645.214844 511.796875 643.207031 515.753906 642.011719 C 520.261719 640.652344 524.640625 641.621094 529.195312 642.144531 C 532.980469 642.578125 536.800781 642.648438 540.597656 642.300781 C 544.371094 641.957031 548.128906 641.214844 551.769531 640.160156 Z M 528.835938 650.382812 C 528.886719 649.339844 527.15625 649.246094 527.011719 650.273438 C 526.136719 656.558594 524.871094 663.253906 521.828125 668.898438 C 520.183594 671.949219 517.835938 674.375 515.257812 676.648438 C 514 677.761719 512.726562 678.863281 511.457031 679.964844 C 510.261719 681.007812 508.703125 681.925781 508.003906 683.382812 C 507.636719 684.148438 508.257812 684.882812 509.03125 684.894531 C 510.691406 684.917969 512.472656 683.765625 513.894531 682.996094 C 515.554688 682.105469 517.136719 681.121094 518.585938 679.90625 C 521.480469 677.480469 523.847656 674.40625 525.4375 670.976562 C 528.46875 664.4375 528.496094 657.429688 528.835938 650.382812 Z M 570.304688 485.945312 C 580.378906 472.820312 593.589844 462.386719 607.710938 453.90625 C 621.304688 445.746094 632.710938 448.5 646.082031 455.160156 C 655.152344 459.675781 664.195312 464.433594 674.621094 463.417969 C 675.78125 463.304688 675.660156 461.5625 674.496094 461.617188 C 660.605469 462.238281 649.335938 453.058594 636.921875 448.355469 C 624.769531 443.75 614.015625 446.101562 602.886719 452.464844 C 577.09375 467.21875 549.558594 495.613281 549.792969 527.453125 C 549.804688 528.992188 552.0625 529.003906 552.390625 527.605469 C 556.011719 512.324219 560.613281 498.570312 570.304688 485.945312 Z M 759.101562 562.808594 C 759.5 561.65625 757.839844 560.789062 757.351562 561.96875 C 751.324219 576.386719 756.820312 591.339844 756.816406 606.222656 C 756.816406 615.945312 753.441406 624.351562 747.097656 631.679688 C 743.832031 635.449219 740.078125 638.71875 736.179688 641.808594 C 733.148438 644.207031 729.488281 646.582031 727.378906 649.855469 C 726.738281 650.855469 727.992188 651.789062 728.902344 651.574219 C 732.9375 650.609375 736.78125 647.375 739.96875 644.820312 C 743.402344 642.070312 746.722656 639.125 749.683594 635.863281 C 755.570312 629.367188 759.671875 621.410156 760.589844 612.628906 C 762.316406 596.074219 753.5 579.007812 759.101562 562.808594 Z M 657.339844 602.578125 C 656.300781 595.484375 655.984375 588.179688 656.507812 581.03125 C 657.546875 566.820312 661.875 552.742188 669.042969 540.429688 C 669.546875 539.5625 668.125 538.605469 667.542969 539.449219 C 659.019531 551.761719 653.863281 565.847656 652.363281 580.753906 C 651.621094 588.148438 651.726562 595.542969 652.859375 602.890625 C 653.933594 609.832031 655.6875 617.828125 659.785156 623.667969 C 660.375 624.515625 662 624.132812 661.8125 622.980469 C 660.695312 616.117188 658.355469 609.5 657.339844 602.578125 Z M 847.503906 539.171875 C 850.949219 545.140625 851.671875 551.375 852.4375 558.09375 C 852.546875 559.050781 854.011719 559.496094 854.414062 558.46875 C 859.230469 546.222656 848.738281 532.558594 839.75 525.359375 C 826.15625 514.476562 808.867188 509.386719 795.695312 497.910156 C 794.765625 497.101562 793.554688 498.507812 794.445312 499.347656 C 805.683594 509.976562 820.257812 515.230469 832.785156 523.980469 C 838.605469 528.046875 843.921875 532.976562 847.503906 539.171875 Z M 836.550781 591.773438 C 829.089844 593.882812 821.257812 594.644531 813.511719 594.507812 C 809.734375 594.445312 805.9375 594.089844 802.199219 593.511719 C 798.324219 592.917969 794.515625 591.730469 790.617188 591.339844 C 789.394531 591.214844 788.886719 592.730469 789.957031 593.363281 C 793.394531 595.398438 797.65625 596.238281 801.550781 596.925781 C 805.496094 597.625 809.472656 597.949219 813.472656 597.976562 C 821.601562 598.03125 829.585938 596.503906 837.292969 593.96875 C 838.722656 593.5 837.976562 591.371094 836.550781 591.773438 Z M 728.722656 418.300781 C 738.84375 403.910156 752.164062 391.910156 767.5 383.285156 C 775.210938 378.949219 783.429688 375.527344 791.9375 373.09375 C 800.308594 370.699219 809.195312 370.652344 817.46875 368.277344 C 818.222656 368.0625 818.097656 366.9375 817.367188 366.800781 C 809.277344 365.273438 799.519531 367.972656 791.730469 370.152344 C 782.972656 372.601562 774.515625 376.117188 766.5625 380.527344 C 750.582031 389.390625 737.136719 401.976562 727.253906 417.335938 C 726.71875 418.167969 728.148438 419.117188 728.722656 418.300781 Z M 833.402344 440.894531 C 831.042969 445.980469 827.964844 450.746094 824.289062 454.988281 C 820.519531 459.335938 816.039062 462.785156 811.761719 466.59375 C 811.082031 467.199219 811.941406 468.347656 812.734375 468.042969 C 823.722656 463.78125 831.902344 452.277344 836.359375 441.804688 C 841.097656 430.671875 842.429688 418.46875 839.886719 406.625 C 839.65625 405.558594 837.808594 405.917969 837.996094 407.003906 C 839.992188 418.460938 838.292969 430.355469 833.402344 440.894531 Z M 706.472656 393.992188 C 710.078125 400.046875 712.878906 406.453125 715.128906 413.125 C 717.316406 419.625 718.046875 426.957031 720.746094 433.207031 C 721.226562 434.308594 722.894531 434.328125 723.148438 433.039062 C 724.472656 426.429688 722.0625 418.390625 719.96875 412.140625 C 717.628906 405.15625 714.230469 398.414062 710.289062 392.199219 C 702.339844 379.667969 691.742188 369.402344 678.925781 361.933594 C 678.058594 361.429688 677.105469 362.847656 677.945312 363.429688 C 689.441406 371.421875 699.304688 381.964844 706.472656 393.992188 Z M 1025.71875 413.921875 C 1024.914062 411.179688 1024.074219 408.453125 1023.320312 405.695312 C 1021.765625 399.984375 1020.511719 394.1875 1019.929688 388.289062 C 1018.90625 377.835938 1019.730469 367.007812 1024.351562 357.441406 C 1024.769531 356.582031 1023.507812 356.011719 1023.03125 356.808594 C 1017.496094 366.128906 1015.585938 377.054688 1016.308594 387.78125 C 1016.707031 393.691406 1017.792969 399.542969 1019.167969 405.296875 C 1019.902344 408.351562 1020.703125 411.398438 1021.613281 414.402344 C 1021.738281 414.816406 1021.890625 415.246094 1022.019531 415.667969 C 1016.011719 410.324219 1008.863281 406.515625 1001.089844 404.433594 C 993.566406 402.417969 984.164062 401.292969 976.734375 404.238281 C 975.949219 404.550781 976.207031 405.613281 977.011719 405.632812 C 980.949219 405.734375 984.871094 405.300781 988.820312 405.609375 C 992.664062 405.914062 996.457031 406.4375 1000.1875 407.425781 C 1007.796875 409.441406 1014.949219 413.109375 1021.160156 417.933594 C 1021.71875 418.363281 1022.308594 418.160156 1022.695312 417.789062 C 1023.285156 419.515625 1023.976562 421.199219 1025.066406 422.613281 C 1025.847656 423.617188 1027.222656 423.058594 1027.28125 421.859375 C 1027.417969 419.167969 1026.46875 416.480469 1025.71875 413.921875 Z M 987.71875 498.054688 C 992.46875 489.488281 999.183594 482.121094 1007.261719 476.589844 C 1008.167969 475.96875 1007.253906 474.597656 1006.320312 475.171875 C 997.660156 480.457031 990.445312 487.695312 985.078125 496.296875 C 979.984375 504.457031 975.4375 515.121094 976.808594 524.957031 C 976.953125 526.003906 978.308594 526.046875 978.597656 525.0625 C 979.945312 520.484375 980.800781 515.785156 982.210938 511.207031 C 983.613281 506.636719 985.398438 502.242188 987.71875 498.054688 Z M 1041.578125 507.402344 C 1042.445312 506.4375 1040.949219 505.152344 1040.058594 506.082031 C 1036.464844 509.832031 1032.871094 513.578125 1029.28125 517.328125 C 1025.847656 520.90625 1021.886719 524.496094 1019.34375 528.78125 C 1018.949219 529.445312 1019.867188 530.164062 1020.460938 529.753906 C 1024.550781 526.902344 1027.847656 522.652344 1031.164062 518.96875 Z M 1103.296875 540.339844 C 1106.269531 537.632812 1108.183594 534.917969 1108.789062 530.882812 C 1111.042969 515.792969 1105.421875 499.640625 1095.71875 488.15625 C 1095 487.304688 1093.539062 488.21875 1094.242188 489.136719 C 1102.207031 499.527344 1106.511719 512.449219 1106.140625 525.554688 C 1106.035156 529.3125 1105.734375 533.148438 1103.117188 536.066406 C 1100.664062 538.8125 1097.824219 540.644531 1095.714844 543.757812 C 1093.636719 546.828125 1091.976562 550.460938 1088.9375 552.726562 C 1086.007812 554.910156 1083.601562 554.714844 1080.246094 554.335938 C 1079.527344 554.257812 1078.917969 555.015625 1079.359375 555.671875 C 1080.84375 557.882812 1083.996094 558.0625 1086.386719 557.492188 C 1089.777344 556.683594 1092.511719 554.269531 1094.542969 551.53125 C 1097.441406 547.621094 1099.648438 543.664062 1103.296875 540.339844 Z M 1095.707031 405.855469 C 1090.886719 404.523438 1085.976562 403.496094 1081.023438 402.832031 C 1076.597656 402.238281 1070.464844 401 1066.222656 402.8125 C 1065.378906 403.171875 1065.128906 404.480469 1066.097656 404.894531 C 1070.167969 406.632812 1075.503906 406.070312 1079.871094 406.554688 C 1084.84375 407.109375 1089.773438 407.941406 1094.640625 409.125 C 1104.4375 411.507812 1113.769531 414.953125 1122.636719 419.773438 C 1123.765625 420.386719 1124.566406 418.636719 1123.488281 417.988281 C 1114.84375 412.792969 1105.445312 408.539062 1095.707031 405.855469 Z M 1067.183594 374.722656 C 1065.777344 369.671875 1062.804688 365.054688 1058.933594 361.546875 C 1057.910156 360.621094 1056.613281 362.175781 1057.546875 363.140625 C 1060.933594 366.632812 1063.121094 370.996094 1064.328125 375.6875 C 1064.910156 377.941406 1065.144531 380.269531 1065.1875 382.597656 C 1065.234375 385.03125 1064.765625 387.410156 1064.792969 389.832031 C 1064.804688 390.890625 1066.179688 390.941406 1066.636719 390.183594 C 1068.003906 387.925781 1068.226562 385.15625 1068.273438 382.558594 C 1068.324219 379.917969 1067.890625 377.261719 1067.183594 374.722656 Z M 809.214844 273.304688 C 810.261719 273.8125 811.03125 272.207031 809.996094 271.675781 C 800.972656 267.015625 793.496094 260.351562 786.53125 253.035156 C 796.726562 255.566406 808.5625 252.015625 817.5 247.492188 C 828.011719 242.167969 836.738281 234.125 842.707031 223.957031 C 843.257812 223.023438 841.738281 222.007812 841.097656 222.902344 C 834.746094 231.769531 826.003906 239.054688 816.082031 243.613281 C 811.296875 245.808594 806.199219 247.3125 801.0625 248.433594 C 795.644531 249.613281 790.140625 249.691406 784.722656 250.683594 C 784.628906 250.699219 784.609375 250.828125 784.523438 250.871094 C 774.980469 240.542969 766.238281 229.175781 755.675781 220.121094 C 755.804688 219.953125 755.964844 219.828125 756.015625 219.570312 C 757.925781 210.128906 755.6875 200.5625 753.125 191.46875 C 750 180.367188 746.242188 169.414062 742.65625 158.449219 C 738.6875 146.296875 735.058594 132.382812 728.140625 121.054688 C 728.304688 121.007812 728.425781 121.21875 728.589844 121.078125 C 731.113281 118.9375 733.007812 116.042969 735.148438 113.527344 C 737.238281 111.074219 739.460938 108.738281 741.796875 106.523438 C 746.4375 102.109375 751.683594 97.296875 757.566406 94.585938 C 763.109375 92.03125 768.914062 92.441406 774.277344 95.230469 C 779.457031 97.925781 783.425781 102.144531 787.894531 105.792969 C 788.621094 106.386719 789.816406 105.460938 789.1875 104.65625 C 781.949219 95.382812 770.671875 87.03125 758.394531 90.753906 C 751.855469 92.734375 746.269531 97.015625 741.210938 101.46875 C 738.414062 103.929688 735.808594 106.601562 733.363281 109.414062 C 730.933594 112.214844 728.058594 115.449219 726.734375 118.988281 C 723.078125 113.527344 718.644531 108.703125 712.769531 105.214844 C 711.839844 104.664062 710.792969 106.21875 711.710938 106.824219 C 729.445312 118.535156 733.128906 142.941406 738.902344 161.863281 C 741.8125 171.410156 744.910156 180.914062 747.601562 190.523438 C 750.117188 199.503906 751.457031 208.617188 752.914062 217.789062 C 734.308594 202.839844 712.199219 190.210938 689.765625 182.152344 C 688.269531 181.613281 687.363281 183.523438 688.703125 184.363281 C 710.929688 198.308594 735.320312 207.941406 755.539062 225.121094 C 773.9375 240.75 786.953125 262.539062 809.214844 273.304688 Z M 343.078125 299.636719 C 339.933594 299.757812 336.820312 301.394531 334.050781 302.78125 C 331.167969 304.230469 328.441406 305.902344 325.84375 307.824219 C 320.539062 311.757812 316.019531 316.511719 312.234375 321.921875 C 311.414062 323.101562 313.027344 324.59375 313.960938 323.421875 C 317.867188 318.496094 322.488281 314.128906 327.585938 310.445312 C 330.011719 308.695312 332.558594 307.085938 335.171875 305.625 C 337.902344 304.105469 341.105469 303.050781 343.597656 301.167969 C 344.257812 300.667969 343.9375 299.605469 343.078125 299.636719 Z M 389.675781 330.882812 C 389.753906 329.542969 387.730469 329.078125 387.566406 330.484375 C 385.957031 344.179688 380.746094 357.472656 372.6875 368.667969 C 368.785156 374.089844 364.214844 379.070312 359.070312 383.335938 C 356.4375 385.515625 353.652344 387.519531 350.75 389.328125 C 348.234375 390.898438 344.714844 392.003906 342.960938 394.4375 C 342.363281 395.269531 342.894531 396.214844 343.871094 396.273438 C 346.867188 396.445312 349.789062 394.1875 352.246094 392.675781 C 355.332031 390.777344 358.277344 388.652344 361.058594 386.335938 C 366.609375 381.714844 371.550781 376.402344 375.707031 370.496094 C 383.964844 358.765625 388.832031 345.210938 389.675781 330.882812 Z M 468.6875 336.636719 C 463.796875 323.765625 453.363281 314.296875 443.40625 305.277344 C 442.46875 304.425781 441.265625 305.863281 442.132812 306.742188 C 450.757812 315.550781 460.0625 324.960938 464.347656 336.792969 C 466.089844 341.59375 466.972656 346.761719 466.613281 351.875 C 466.433594 354.457031 465.871094 356.90625 465.195312 359.394531 C 464.585938 361.648438 463.515625 364.234375 463.292969 366.519531 C 463.214844 367.324219 463.960938 367.773438 464.652344 367.421875 C 469.320312 365.070312 470.929688 358.289062 471.300781 353.582031 C 471.753906 347.859375 470.71875 341.988281 468.6875 336.636719 Z M 416.65625 368.664062 C 413.546875 366.273438 410.882812 363.414062 408.71875 360.144531 C 407.992188 359.042969 406.328125 360.160156 407.015625 361.277344 C 409.199219 364.820312 411.972656 368.015625 415.21875 370.628906 C 418.351562 373.148438 422.191406 375.40625 426.183594 376.078125 C 427.054688 376.226562 427.410156 375.050781 426.65625 374.632812 C 423.222656 372.730469 419.785156 371.070312 416.65625 368.664062 Z M 473.09375 251.25 C 472.015625 245.507812 465.714844 241.601562 460.566406 240.003906 C 454.199219 238.027344 447.382812 238.535156 440.917969 239.753906 C 426.949219 242.386719 413.429688 247.246094 400.972656 254.074219 C 399.898438 254.664062 400.800781 256.539062 401.925781 256.015625 C 413.546875 250.632812 425.703125 246.296875 438.21875 243.539062 C 444.097656 242.25 450.257812 241.296875 456.253906 242.292969 C 459.328125 242.800781 462.3125 243.878906 465.003906 245.457031 C 467.878906 247.140625 469.734375 249.480469 472.078125 251.753906 C 472.433594 252.101562 473.191406 251.773438 473.09375 251.25 Z M 412.921875 248.527344 C 414.703125 244.707031 413.753906 239.660156 412.871094 235.71875 C 411.914062 231.441406 410.382812 227.285156 408.4375 223.363281 C 404.457031 215.324219 398.421875 208.367188 390.988281 203.34375 C 390.101562 202.746094 388.976562 203.957031 389.871094 204.628906 C 396.691406 209.769531 402.082031 216.589844 405.523438 224.410156 C 407.175781 228.160156 408.386719 232.089844 409.039062 236.136719 C 409.675781 240.089844 409.328125 244.621094 410.683594 248.390625 C 411.035156 249.371094 412.46875 249.5 412.921875 248.527344 Z M 341.054688 262.550781 C 340.457031 258 338.570312 253.652344 337.824219 249.109375 C 336.960938 243.835938 336.867188 238.417969 337.644531 233.128906 C 339.382812 221.347656 345.429688 210.648438 354.226562 202.691406 C 354.933594 202.054688 353.855469 200.8125 353.113281 201.425781 C 343.519531 209.324219 336.75 220.277344 334.242188 232.480469 C 333.097656 238.035156 332.867188 243.78125 333.542969 249.40625 C 334.011719 253.308594 334.707031 257.667969 336.578125 261.28125 C 332.867188 260.457031 329.078125 260.070312 325.277344 260.144531 C 317.53125 260.304688 310.109375 262.300781 303.320312 266.023438 C 302.363281 266.550781 303.167969 268.214844 304.167969 267.757812 C 310.726562 264.734375 318.046875 263.230469 325.261719 263.300781 C 328.835938 263.335938 332.433594 263.777344 335.917969 264.574219 C 339.359375 265.359375 342.859375 267 346.375 267.28125 C 347.152344 267.339844 347.550781 266.519531 347.019531 265.945312 C 345.5 264.300781 343.316406 263.316406 341.054688 262.550781 Z M 1284.9375 335.53125 C 1283.585938 339.023438 1281.851562 342.355469 1280.0625 345.636719 C 1278.214844 349.015625 1275.78125 352.289062 1274.933594 356.097656 C 1274.636719 357.433594 1276.359375 358.695312 1277.5 357.796875 C 1280.484375 355.449219 1282.367188 352.011719 1284.257812 348.78125 C 1286.242188 345.394531 1287.96875 341.882812 1289.316406 338.195312 C 1291.589844 331.972656 1292.867188 325.265625 1292.042969 318.636719 C 1291.640625 315.417969 1290.628906 312.542969 1289.304688 309.820312 C 1291.007812 308.164062 1292.726562 306.527344 1294.484375 304.933594 C 1295.601562 303.917969 1296.714844 302.910156 1297.894531 301.964844 C 1299.152344 300.960938 1300.492188 300.097656 1301.460938 298.789062 C 1302.113281 297.914062 1301.351562 296.921875 1300.34375 297.121094 C 1298.6875 297.453125 1297.335938 298.429688 1295.960938 299.371094 C 1294.648438 300.277344 1293.34375 301.21875 1292.125 302.25 C 1290.457031 303.65625 1289.175781 305.394531 1287.808594 307.0625 C 1286.425781 304.730469 1284.867188 302.46875 1283.132812 300.242188 C 1278.691406 294.535156 1273.527344 287.675781 1275.773438 280.027344 C 1276.097656 278.925781 1274.269531 278.316406 1273.847656 279.394531 C 1268.308594 293.441406 1284.03125 303.003906 1286.953125 315.367188 C 1288.53125 322.050781 1287.382812 329.207031 1284.9375 335.53125 Z M 1392.9375 382.894531 C 1394.394531 382.492188 1395.839844 382.039062 1397.246094 381.488281 C 1400.738281 380.109375 1404.035156 378.183594 1407.128906 376.066406 C 1408.363281 375.222656 1407.140625 373.496094 1405.863281 374.164062 C 1402.691406 375.828125 1399.367188 377.101562 1395.996094 378.292969 C 1394.355469 378.871094 1392.683594 379.324219 1391.03125 379.859375 C 1389.351562 380.398438 1387.527344 380.835938 1386.207031 382.066406 C 1386.164062 382.109375 1386.191406 382.183594 1386.164062 382.234375 C 1383.890625 382.191406 1381.605469 382.210938 1379.359375 382.449219 C 1373.214844 383.113281 1367.195312 384.804688 1361.394531 386.894531 C 1355.496094 389.015625 1349.113281 391.570312 1344.222656 395.582031 C 1343.539062 396.140625 1343.75 397.613281 1344.847656 397.421875 C 1350.527344 396.433594 1355.925781 393.820312 1361.273438 391.753906 C 1366.871094 389.589844 1372.632812 387.816406 1378.566406 386.859375 C 1389.117188 385.160156 1400.105469 386.332031 1409.375 391.90625 C 1410.398438 392.523438 1411.453125 390.894531 1410.527344 390.15625 C 1405.414062 386.09375 1399.296875 383.90625 1392.9375 382.894531 Z M 1400.796875 501.871094 C 1399.878906 501.035156 1398.640625 500.609375 1397.472656 500.210938 C 1396.300781 499.8125 1395.121094 499.441406 1393.925781 499.132812 C 1393.117188 498.921875 1392.289062 498.824219 1391.472656 498.648438 C 1396.695312 496.082031 1401.605469 492.417969 1407.460938 491.703125 C 1408.441406 491.582031 1408.347656 490.140625 1407.355469 490.171875 C 1401.082031 490.382812 1395.910156 493.859375 1390.335938 496.28125 C 1387.394531 497.558594 1384.375 498.394531 1381.152344 498.359375 C 1379.582031 498.339844 1378.042969 498.136719 1376.515625 497.773438 C 1375.257812 497.476562 1373.292969 496.519531 1372.042969 497.085938 C 1371.625 497.277344 1371.425781 497.648438 1371.542969 498.101562 C 1371.898438 499.503906 1373.902344 500.136719 1375.121094 500.546875 C 1376.699219 501.078125 1378.382812 501.3125 1380.042969 501.398438 C 1382.882812 501.550781 1385.679688 500.925781 1388.34375 499.960938 C 1390.050781 500.292969 1391.761719 500.609375 1393.433594 501.082031 C 1394.570312 501.40625 1395.703125 501.742188 1396.824219 502.105469 C 1397.433594 502.304688 1398.042969 502.484375 1398.65625 502.671875 C 1399.277344 502.863281 1399.78125 502.964844 1400.425781 502.976562 C 1401 502.988281 1401.175781 502.214844 1400.796875 501.871094 Z M 1400.796875 501.871094 " fill-opacity="1" fill-rule="nonzero"/></g></g></g></svg>