<svg xmlns="http://www.w3.org/2000/svg" xmlns:xlink="http://www.w3.org/1999/xlink" width="1080" zoomAndPan="magnify" viewBox="0 0 810 809.999993" height="1080" preserveAspectRatio="xMidYMid meet" version="1.0"><defs><clipPath id="39866abd19"><path d="M 0 16.199219 L 810 16.199219 L 810 793.949219 L 0 793.949219 Z M 0 16.199219 " clip-rule="nonzero"/></clipPath></defs><g clip-path="url(#39866abd19)"><path fill="#fbe4ea" d="M 682.398438 471 C 745.761719 449.003906 792.753906 405.765625 810.070312 359.707031 L 728.902344 320.355469 L 768.246094 239.175781 C 726.128906 213.75 662.457031 208.925781 599.09375 230.917969 C 549.511719 248.128906 509.980469 278.359375 486.820312 312.761719 C 486.648438 312.640625 486.484375 312.519531 486.3125 312.398438 C 513.984375 279.078125 531.582031 229.195312 531.582031 173.417969 C 531.582031 106.335938 506.148438 47.753906 468.324219 16.292969 L 404.542969 80.085938 L 340.761719 16.292969 C 302.9375 47.753906 277.503906 106.335938 277.503906 173.417969 C 277.503906 221.816406 290.765625 265.761719 312.347656 298.320312 C 288.589844 270.003906 253.484375 245.671875 210.976562 230.917969 C 147.613281 208.925781 83.941406 213.75 41.824219 239.175781 L 81.167969 320.359375 L 0 359.707031 C 17.316406 405.765625 64.308594 449.003906 127.671875 471 C 163.757812 483.527344 199.9375 487.332031 232.1875 483.609375 C 203.171875 499.152344 175.257812 523.414062 152.628906 555.007812 C 113.570312 609.539062 100.132812 671.972656 112.558594 719.582031 L 201.554688 704.878906 L 216.253906 793.890625 C 265.324219 790.347656 320.109375 757.542969 359.167969 703.011719 C 389.214844 661.066406 404.0625 614.460938 403.679688 573.503906 C 403.929688 573.507812 404.175781 573.523438 404.425781 573.523438 C 404.046875 614.472656 418.894531 661.074219 448.933594 703.011719 C 487.996094 757.542969 542.78125 790.347656 591.851562 793.890625 L 606.550781 704.878906 L 695.546875 719.582031 C 707.972656 671.972656 694.535156 609.539062 655.476562 555.007812 C 632.683594 523.1875 604.53125 498.804688 575.289062 483.277344 C 608.191406 487.515625 645.339844 483.863281 682.398438 471 Z M 682.398438 471 " fill-opacity="1" fill-rule="nonzero"/></g><path fill="#fbe4ea" d="M 505.304688 425.839844 C 505.304688 427.484375 505.265625 429.121094 505.1875 430.761719 C 505.105469 432.402344 504.984375 434.039062 504.824219 435.671875 C 504.664062 437.304688 504.460938 438.933594 504.222656 440.558594 C 503.980469 442.179688 503.699219 443.796875 503.378906 445.40625 C 503.058594 447.015625 502.699219 448.617188 502.300781 450.210938 C 501.902344 451.800781 501.464844 453.382812 500.988281 454.953125 C 500.511719 456.523438 499.996094 458.082031 499.445312 459.628906 C 498.890625 461.171875 498.300781 462.703125 497.671875 464.222656 C 497.046875 465.738281 496.382812 467.238281 495.679688 468.722656 C 494.976562 470.203125 494.238281 471.671875 493.464844 473.117188 C 492.691406 474.566406 491.882812 475.992188 491.039062 477.402344 C 490.195312 478.808594 489.320312 480.195312 488.40625 481.558594 C 487.496094 482.925781 486.550781 484.265625 485.574219 485.585938 C 484.597656 486.902344 483.585938 488.195312 482.546875 489.464844 C 481.503906 490.734375 480.433594 491.976562 479.332031 493.191406 C 478.230469 494.410156 477.097656 495.597656 475.9375 496.757812 C 474.777344 497.917969 473.589844 499.050781 472.375 500.152344 C 471.15625 501.253906 469.914062 502.324219 468.648438 503.367188 C 467.378906 504.40625 466.085938 505.417969 464.765625 506.394531 C 463.449219 507.371094 462.109375 508.316406 460.742188 509.230469 C 459.378906 510.140625 457.992188 511.019531 456.585938 511.863281 C 455.175781 512.707031 453.75 513.515625 452.304688 514.289062 C 450.855469 515.0625 449.390625 515.800781 447.90625 516.503906 C 446.421875 517.203125 444.921875 517.871094 443.40625 518.496094 C 441.890625 519.125 440.359375 519.714844 438.816406 520.269531 C 437.269531 520.820312 435.714844 521.335938 434.144531 521.8125 C 432.574219 522.289062 430.992188 522.726562 429.398438 523.125 C 427.808594 523.523438 426.207031 523.882812 424.597656 524.203125 C 422.988281 524.523438 421.371094 524.804688 419.75 525.046875 C 418.125 525.285156 416.496094 525.488281 414.863281 525.648438 C 413.230469 525.808594 411.59375 525.929688 409.957031 526.011719 C 408.316406 526.089844 406.675781 526.132812 405.035156 526.132812 C 403.394531 526.132812 401.753906 526.089844 400.117188 526.011719 C 398.476562 525.929688 396.839844 525.808594 395.207031 525.648438 C 393.574219 525.488281 391.945312 525.285156 390.324219 525.046875 C 388.699219 524.804688 387.082031 524.523438 385.472656 524.203125 C 383.863281 523.882812 382.261719 523.523438 380.671875 523.125 C 379.078125 522.726562 377.5 522.289062 375.929688 521.8125 C 374.359375 521.335938 372.800781 520.820312 371.253906 520.269531 C 369.710938 519.714844 368.179688 519.125 366.664062 518.496094 C 365.148438 517.871094 363.648438 517.203125 362.164062 516.503906 C 360.679688 515.800781 359.214844 515.0625 357.769531 514.289062 C 356.320312 513.515625 354.894531 512.707031 353.484375 511.863281 C 352.078125 511.019531 350.691406 510.140625 349.328125 509.230469 C 347.964844 508.316406 346.621094 507.371094 345.304688 506.394531 C 343.988281 505.417969 342.691406 504.40625 341.425781 503.367188 C 340.15625 502.324219 338.914062 501.253906 337.699219 500.152344 C 336.480469 499.050781 335.292969 497.917969 334.132812 496.757812 C 332.972656 495.597656 331.84375 494.410156 330.738281 493.191406 C 329.636719 491.976562 328.566406 490.734375 327.523438 489.464844 C 326.484375 488.195312 325.476562 486.902344 324.496094 485.585938 C 323.519531 484.265625 322.574219 482.925781 321.664062 481.558594 C 320.75 480.195312 319.875 478.808594 319.03125 477.402344 C 318.1875 475.992188 317.378906 474.566406 316.605469 473.117188 C 315.832031 471.671875 315.09375 470.203125 314.390625 468.722656 C 313.691406 467.238281 313.027344 465.738281 312.398438 464.222656 C 311.769531 462.703125 311.179688 461.171875 310.625 459.628906 C 310.074219 458.082031 309.558594 456.523438 309.082031 454.953125 C 308.605469 453.382812 308.167969 451.800781 307.769531 450.210938 C 307.371094 448.617188 307.011719 447.015625 306.691406 445.40625 C 306.371094 443.796875 306.089844 442.179688 305.851562 440.558594 C 305.609375 438.933594 305.410156 437.304688 305.246094 435.671875 C 305.085938 434.039062 304.964844 432.402344 304.886719 430.761719 C 304.804688 429.121094 304.765625 427.484375 304.765625 425.839844 C 304.765625 424.199219 304.804688 422.558594 304.886719 420.921875 C 304.964844 419.28125 305.085938 417.644531 305.246094 416.011719 C 305.410156 414.378906 305.609375 412.75 305.851562 411.125 C 306.089844 409.503906 306.371094 407.886719 306.691406 406.277344 C 307.011719 404.664062 307.371094 403.066406 307.769531 401.472656 C 308.167969 399.878906 308.605469 398.300781 309.082031 396.730469 C 309.558594 395.15625 310.074219 393.601562 310.625 392.054688 C 311.179688 390.507812 311.769531 388.976562 312.398438 387.460938 C 313.027344 385.945312 313.691406 384.445312 314.390625 382.960938 C 315.09375 381.476562 315.832031 380.011719 316.605469 378.566406 C 317.378906 377.117188 318.1875 375.691406 319.03125 374.28125 C 319.875 372.875 320.75 371.488281 321.664062 370.121094 C 322.574219 368.757812 323.519531 367.417969 324.496094 366.097656 C 325.476562 364.78125 326.484375 363.488281 327.523438 362.21875 C 328.566406 360.949219 329.636719 359.707031 330.738281 358.492188 C 331.84375 357.273438 332.972656 356.085938 334.132812 354.925781 C 335.292969 353.765625 336.480469 352.632812 337.699219 351.53125 C 338.914062 350.429688 340.15625 349.355469 341.425781 348.316406 C 342.691406 347.273438 343.988281 346.265625 345.304688 345.289062 C 346.621094 344.308594 347.964844 343.363281 349.328125 342.453125 C 350.691406 341.542969 352.078125 340.664062 353.484375 339.820312 C 354.894531 338.976562 356.320312 338.167969 357.769531 337.394531 C 359.214844 336.621094 360.679688 335.882812 362.164062 335.179688 C 363.648438 334.476562 365.148438 333.8125 366.664062 333.183594 C 368.179688 332.558594 369.710938 331.964844 371.253906 331.414062 C 372.800781 330.859375 374.359375 330.347656 375.929688 329.871094 C 377.5 329.394531 379.078125 328.957031 380.671875 328.554688 C 382.261719 328.15625 383.863281 327.796875 385.472656 327.476562 C 387.082031 327.15625 388.699219 326.878906 390.324219 326.636719 C 391.945312 326.394531 393.574219 326.195312 395.207031 326.035156 C 396.839844 325.871094 398.476562 325.753906 400.117188 325.671875 C 401.753906 325.589844 403.394531 325.550781 405.035156 325.550781 C 406.675781 325.550781 408.316406 325.589844 409.957031 325.671875 C 411.59375 325.753906 413.230469 325.871094 414.863281 326.035156 C 416.496094 326.195312 418.125 326.394531 419.75 326.636719 C 421.371094 326.878906 422.988281 327.15625 424.597656 327.476562 C 426.207031 327.796875 427.808594 328.15625 429.398438 328.554688 C 430.992188 328.957031 432.574219 329.394531 434.144531 329.871094 C 435.714844 330.347656 437.269531 330.859375 438.816406 331.414062 C 440.359375 331.964844 441.890625 332.558594 443.40625 333.183594 C 444.921875 333.8125 446.421875 334.476562 447.90625 335.179688 C 449.390625 335.882812 450.855469 336.621094 452.304688 337.394531 C 453.75 338.167969 455.175781 338.976562 456.585938 339.820312 C 457.992188 340.664062 459.378906 341.542969 460.742188 342.453125 C 462.109375 343.363281 463.449219 344.308594 464.765625 345.289062 C 466.085938 346.265625 467.378906 347.273438 468.648438 348.316406 C 469.914062 349.355469 471.15625 350.429688 472.375 351.53125 C 473.589844 352.632812 474.777344 353.765625 475.9375 354.925781 C 477.097656 356.085938 478.230469 357.273438 479.332031 358.492188 C 480.433594 359.707031 481.503906 360.949219 482.546875 362.21875 C 483.585938 363.488281 484.597656 364.78125 485.574219 366.097656 C 486.550781 367.417969 487.496094 368.757812 488.40625 370.121094 C 489.320312 371.488281 490.195312 372.875 491.039062 374.28125 C 491.882812 375.691406 492.691406 377.117188 493.464844 378.566406 C 494.238281 380.011719 494.976562 381.476562 495.679688 382.960938 C 496.382812 384.445312 497.046875 385.945312 497.671875 387.460938 C 498.300781 388.976562 498.890625 390.507812 499.445312 392.054688 C 499.996094 393.601562 500.511719 395.15625 500.988281 396.730469 C 501.464844 398.300781 501.902344 399.878906 502.300781 401.472656 C 502.699219 403.066406 503.058594 404.664062 503.378906 406.277344 C 503.699219 407.886719 503.980469 409.503906 504.222656 411.125 C 504.460938 412.75 504.664062 414.378906 504.824219 416.011719 C 504.984375 417.644531 505.105469 419.28125 505.1875 420.921875 C 505.265625 422.558594 505.304688 424.199219 505.304688 425.839844 Z M 505.304688 425.839844 " fill-opacity="1" fill-rule="nonzero"/><path fill="#fbe4ea" d="M 403.800781 341.40625 L 489.371094 426.996094 L 403.800781 512.582031 L 318.226562 426.996094 Z M 403.800781 341.40625 " fill-opacity="1" fill-rule="nonzero"/></svg>