<svg xmlns="http://www.w3.org/2000/svg" xmlns:xlink="http://www.w3.org/1999/xlink" width="1080" zoomAndPan="magnify" viewBox="0 0 810 809.999993" height="1080" preserveAspectRatio="xMidYMid meet" version="1.0"><defs><clipPath id="258b1be125"><path d="M 193 4 L 807 4 L 807 636 L 193 636 Z M 193 4 " clip-rule="nonzero"/></clipPath><clipPath id="5eba9849b4"><path d="M 248.765625 0 L 860.597656 372.394531 L 507.308594 952.832031 L -104.519531 580.441406 Z M 248.765625 0 " clip-rule="nonzero"/></clipPath><clipPath id="d8699cc48f"><path d="M 248.765625 0 L 860.597656 372.394531 L 507.308594 952.832031 L -104.519531 580.441406 Z M 248.765625 0 " clip-rule="nonzero"/></clipPath><clipPath id="6d8755db87"><path d="M 258 212 L 636 212 L 636 807 L 258 807 Z M 258 212 " clip-rule="nonzero"/></clipPath><clipPath id="e775620b70"><path d="M 248.765625 0 L 860.597656 372.394531 L 507.308594 952.832031 L -104.519531 580.441406 Z M 248.765625 0 " clip-rule="nonzero"/></clipPath><clipPath id="cd9fd65781"><path d="M 248.765625 0 L 860.597656 372.394531 L 507.308594 952.832031 L -104.519531 580.441406 Z M 248.765625 0 " clip-rule="nonzero"/></clipPath></defs><g clip-path="url(#258b1be125)"><g clip-path="url(#5eba9849b4)"><g clip-path="url(#d8699cc48f)"><path fill="#65a888" d="M 380.296875 578.859375 C 380.296875 578.859375 261.5625 511.699219 209.542969 351.71875 C 157.527344 191.738281 248.667969 4.199219 246.667969 4.6875 C 244.667969 5.171875 431.171875 72.980469 485.492188 257.640625 C 539.8125 442.304688 380.296875 578.859375 380.296875 578.859375 Z M 678.136719 598.601562 C 755.191406 550.398438 806.253906 459.972656 806.253906 459.972656 C 806.253906 459.972656 694.640625 390.902344 585.691406 429.914062 C 445.015625 479.992188 406.558594 617.835938 406.558594 617.835938 C 406.558594 617.835938 566.753906 668.214844 678.136719 598.601562 Z M 678.136719 598.601562 " fill-opacity="1" fill-rule="nonzero"/></g></g></g><g clip-path="url(#6d8755db87)"><g clip-path="url(#e775620b70)"><g clip-path="url(#cd9fd65781)"><path fill="#65a888" d="M 634.761719 494.417969 C 633.347656 487.878906 626.714844 483.839844 620.171875 485.253906 C 515.140625 509.898438 436.035156 567.074219 372.625 635.792969 C 409.179688 536.535156 442.433594 372.246094 348.984375 218.277344 C 345.445312 212.429688 337.964844 210.71875 332.453125 214.175781 C 326.734375 217.507812 324.898438 225.191406 328.355469 230.703125 C 458.75 445.765625 327.355469 684.039062 310.75 712.257812 C 292.664062 737.304688 276.28125 762.820312 260.691406 787.964844 C 257.164062 793.765625 258.949219 801.097656 264.75 804.628906 C 270.347656 808.035156 277.886719 806.378906 281.417969 800.578125 C 295.996094 777.089844 311.246094 753.4375 327.78125 730.003906 C 328.492188 729.300781 329.203125 728.597656 329.707031 727.769531 L 331.09375 725.492188 C 400.625 628.988281 491.410156 540.027344 625.855469 508.582031 C 632.269531 507.378906 636.175781 500.957031 634.761719 494.417969 Z M 634.761719 494.417969 " fill-opacity="1" fill-rule="nonzero"/></g></g></g></svg>