<svg xmlns="http://www.w3.org/2000/svg" xmlns:xlink="http://www.w3.org/1999/xlink" width="1080" zoomAndPan="magnify" viewBox="0 0 810 809.999993" height="1080" preserveAspectRatio="xMidYMid meet" version="1.0"><defs><clipPath id="72001825d3"><path d="M 535 486 L 764 486 L 764 789 L 535 789 Z M 535 486 " clip-rule="nonzero"/></clipPath><clipPath id="ed86aa7135"><path d="M -86.925781 269.785156 L 488.605469 -34.460938 L 840.871094 631.910156 L 265.339844 936.152344 Z M -86.925781 269.785156 " clip-rule="nonzero"/></clipPath><clipPath id="99c7b058c4"><path d="M -86.925781 269.785156 L 488.605469 -34.460938 L 840.871094 631.910156 L 265.339844 936.152344 Z M -86.925781 269.785156 " clip-rule="nonzero"/></clipPath><clipPath id="80601679c5"><path d="M 10 384 L 423 384 L 423 798 L 10 798 Z M 10 384 " clip-rule="nonzero"/></clipPath><clipPath id="4b7423f269"><path d="M -86.925781 269.785156 L 488.605469 -34.460938 L 840.871094 631.910156 L 265.339844 936.152344 Z M -86.925781 269.785156 " clip-rule="nonzero"/></clipPath><clipPath id="c248a726c8"><path d="M -86.925781 269.785156 L 488.605469 -34.460938 L 840.871094 631.910156 L 265.339844 936.152344 Z M -86.925781 269.785156 " clip-rule="nonzero"/></clipPath><clipPath id="b3cb6dff77"><path d="M 317 7 L 541 7 L 541 761 L 317 761 Z M 317 7 " clip-rule="nonzero"/></clipPath><clipPath id="ec4b354492"><path d="M -86.925781 269.785156 L 488.605469 -34.460938 L 840.871094 631.910156 L 265.339844 936.152344 Z M -86.925781 269.785156 " clip-rule="nonzero"/></clipPath><clipPath id="53e67f974b"><path d="M -86.925781 269.785156 L 488.605469 -34.460938 L 840.871094 631.910156 L 265.339844 936.152344 Z M -86.925781 269.785156 " clip-rule="nonzero"/></clipPath></defs><g clip-path="url(#72001825d3)"><g clip-path="url(#ed86aa7135)"><g clip-path="url(#99c7b058c4)"><path fill="#65a888" d="M 535.085938 788.023438 C 534.730469 720.171875 557.308594 652.402344 598.289062 598.328125 C 639.269531 544.25 698.402344 504.1875 763.820312 486.183594 C 739.597656 614.128906 652.398438 731.515625 535.085938 788.023438 " fill-opacity="1" fill-rule="nonzero"/></g></g></g><g clip-path="url(#80601679c5)"><g clip-path="url(#4b7423f269)"><g clip-path="url(#c248a726c8)"><path fill="#65a888" d="M 422.285156 797.902344 C 408.832031 694.230469 360.378906 595.414062 286.652344 521.296875 C 212.929688 447.175781 114.378906 398.195312 10.78125 384.191406 C 74.160156 574.546875 231.515625 735.804688 422.285156 797.902344 " fill-opacity="1" fill-rule="nonzero"/></g></g></g><g clip-path="url(#b3cb6dff77)"><g clip-path="url(#ec4b354492)"><g clip-path="url(#53e67f974b)"><path fill="#65a888" d="M 486.507812 760.675781 C 393.527344 661.828125 334.230469 531.84375 320.527344 396.832031 C 306.824219 261.820312 338.789062 122.578125 410.015625 7.074219 C 548.902344 227.390625 581.222656 518.078125 486.507812 760.675781 " fill-opacity="1" fill-rule="nonzero"/></g></g></g></svg>