<?xml version="1.0" encoding="UTF-8" standalone="no"?>
<!DOCTYPE svg PUBLIC "-//W3C//DTD SVG 1.1//EN" "http://www.w3.org/Graphics/SVG/1.1/DTD/svg11.dtd">
<!-- Created with Vectornator (http://vectornator.io/) -->
<svg height="100%" stroke-miterlimit="10" style="fill-rule:nonzero;clip-rule:evenodd;stroke-linecap:round;stroke-linejoin:round;" version="1.1" viewBox="0 0 300 300" width="100%" xml:space="preserve" xmlns="http://www.w3.org/2000/svg" xmlns:xlink="http://www.w3.org/1999/xlink">
<defs/>
<clipPath id="ArtboardFrame">
<rect height="300" width="300" x="0" y="0"/>
</clipPath>
<g clip-path="url(#ArtboardFrame)" id="Untitled">
<g opacity="1">
<clipPath id="ClipPath">
<path d="M-758.85-284.169L557.251-284.169L557.251 428.359L-758.85 428.359L-758.85-284.169Z"/>
</clipPath>
<g clip-path="url(#ClipPath)">
<clipPath id="ClipPath_2">
<path d="M-174.552-952.557L878.363 143.812L-174.552 1240.18L-1227.46 143.812L-174.552-952.557Z"/>
</clipPath>
<g clip-path="url(#ClipPath_2)">
<clipPath id="ClipPath_3">
<path d="M-174.552-952.557L878.363 143.812L-174.552 1240.18L-1227.46 143.812L-174.552-952.557Z"/>
</clipPath>
<g clip-path="url(#ClipPath_3)">
<path d="M214.754 190.51C234.598 182.788 252.92 168.679 264.828 153.191C268.105 148.93 271.243 143.939 270.836 138.503C270.429 133.063 264.593 128.018 259.977 130.61C268.234 127.03 269.047 114.159 263.693 106.701C258.349 99.2403 249.333 95.8906 240.862 92.9245C224.092 87.0659 206.348 81.2252 189.011 82.8755C189.835 63.257 184.759 43.3475 173.365 27.6618C171.245 24.7526 168.621 21.7865 165.141 21.3249C161.35 20.8197 157.72 23.6152 155.888 27.1177C154.057 30.6201 153.65 34.7102 153.265 38.6776C149.463 28.2851 135.006 25.8454 126.097 31.9827C117.198 38.1245 113.257 49.7803 112.347 60.8618C111.458 71.707 113.054 82.5009 115.709 93.0717C103.094 86.5218 88.9001 83.3595 75.8354 84.6652C66.9429 85.5539 56.3381 90.5505 56.322 99.8547C56.3177 102.876 57.4304 106.279 55.6731 108.687C52.7614 112.678 46.6585 108.931 41.9156 109.759C34.9753 110.965 33.7748 120.914 35.3351 128.054C40.5052 151.657 57.6263 172.051 79.3993 180.531C82.9011 181.895 86.8793 182.923 91.0954 183.641C83.5532 192.034 77.6677 202.026 72.9623 212.477C66.9547 225.805 62.9475 242.735 71.6483 254.34C77.7769 253.237 83.9013 252.135 90.0245 251.038C89.715 255.681 89.4227 260.476 90.8994 264.867C92.3761 269.257 96.1113 273.178 100.579 273.239C105.065 273.299 108.706 269.702 111.822 266.348C121.749 255.659 133.529 242.723 142.556 228.444C146.797 241.803 154.582 253.865 163.706 264.353C168.707 270.102 174.211 275.595 180.915 278.962C187.629 282.324 195.778 283.309 202.504 279.982C209.239 276.658 213.855 268.386 211.874 260.912C216.168 265.899 224.563 264.714 229.061 259.923C233.559 255.131 234.897 248.01 234.994 241.311C235.208 226.71 226.962 206.518 214.754 190.51Z" fill="#fbe4ea" fill-rule="nonzero" opacity="1" stroke="none"/>
</g>
</g>
</g>
</g>
<g opacity="1">
<clipPath id="ClipPath_4">
<path d="M-657.117-218.38L201.722-218.38L201.722 426.129L-657.117 426.129L-657.117-218.38Z"/>
</clipPath>
<g clip-path="url(#ClipPath_4)">
<clipPath id="ClipPath_5">
<path d="M-174.552-952.557L878.363 143.812L-174.552 1240.18L-1227.46 143.812L-174.552-952.557Z"/>
</clipPath>
<g clip-path="url(#ClipPath_5)">
<clipPath id="ClipPath_6">
<path d="M-174.552-952.557L878.363 143.812L-174.552 1240.18L-1227.46 143.812L-174.552-952.557Z"/>
</clipPath>
<g clip-path="url(#ClipPath_6)">
<path d="M186.762 160.072C187.854 160.033 188.175 158.33 187.158 157.868C183.399 156.166 178.934 155.778 174.875 155.481C170.517 155.168 166.083 155.647 161.8 156.483C154.7 157.873 148.157 160.839 142.031 164.707C142.342 164.04 142.706 163.4 142.995 162.72C143.306 162.772 143.648 162.756 144.002 162.511C151.937 157.062 160.375 152.21 168.975 148.016C173.108 146.003 177.338 144.186 181.589 142.479C185.873 140.754 190.499 139.273 194.483 136.904C195.425 136.346 194.783 134.992 193.862 134.992C189.3 134.979 184.438 136.534 180.144 138.041C175.539 139.67 171.052 141.643 166.672 143.83C158.748 147.78 151.519 152.698 144.623 158.291C145.094 156.557 145.394 154.772 145.619 152.972C145.919 154.48 147.975 154.457 148.692 153.255C150.127 150.842 150.93 148.116 151.819 145.45C152.74 142.728 153.554 139.97 154.389 137.222C155.214 134.5 156.081 131.786 156.82 129.042C157.57 126.29 158.319 123.632 158.169 120.749C158.084 119.115 155.824 118.161 154.818 119.577C153.126 121.951 152.355 124.586 151.509 127.373C150.641 130.188 149.892 133.031 149.131 135.871C147.846 140.61 146.326 145.576 145.822 150.538C145.929 149.126 146.047 147.71 146.036 146.304C146.004 142.271 145.447 138.407 144.355 134.543C143.83 132.67 143.006 130.976 142.203 129.224C141.378 127.43 140.607 125.335 138.797 124.412C137.855 123.937 136.87 124.572 136.623 125.553C136.184 127.339 136.988 129.203 137.395 130.919C137.769 132.518 137.93 134.199 138.198 135.828C138.776 139.335 139.129 142.998 139.226 146.556C139.322 149.958 139.086 153.333 138.69 156.705C138.251 160.329 137.919 164.001 136.795 167.481C136.324 168.941 137.405 169.981 138.498 169.938C138.915 170.104 139.386 170.13 139.89 169.833C146.925 165.708 154.775 162.804 162.699 161.257C166.651 160.486 170.624 160.177 174.618 159.937C178.687 159.689 182.703 160.216 186.762 160.072ZM200.651 175.509C199.12 174.629 197.256 174.32 195.564 173.888C193.872 173.457 192.17 173.144 190.446 172.86C186.826 172.277 183.153 171.959 179.49 171.807C172.23 171.501 165.002 171.959 157.805 173.009C155.846 173.296 156.006 176.358 158.02 176.232C165.077 175.787 172.187 175.822 179.233 176.315C182.714 176.559 186.173 176.898 189.642 177.268C191.377 177.451 193.112 177.665 194.857 177.83C196.592 177.996 198.413 178.415 200.158 178.218C201.55 178.061 201.85 176.197 200.651 175.509Z" fill="#524956" fill-rule="nonzero" opacity="1" stroke="none"/>
</g>
</g>
</g>
</g>
</g>
</svg>
