<svg xmlns="http://www.w3.org/2000/svg" xmlns:xlink="http://www.w3.org/1999/xlink" width="1080" zoomAndPan="magnify" viewBox="0 0 810 809.999993" height="1080" preserveAspectRatio="xMidYMid meet" version="1.0"><defs><clipPath id="000f8c42db"><path d="M 23 8 L 800 8 L 800 806 L 23 806 Z M 23 8 " clip-rule="nonzero"/></clipPath><clipPath id="426c110963"><path d="M 109.0625 -105.660156 L 889.957031 115.09375 L 678.179688 864.234375 L -102.714844 643.480469 Z M 109.0625 -105.660156 " clip-rule="nonzero"/></clipPath><clipPath id="1acad07d57"><path d="M 109.0625 -105.660156 L 889.957031 115.09375 L 678.179688 864.234375 L -102.714844 643.480469 Z M 109.0625 -105.660156 " clip-rule="nonzero"/></clipPath><clipPath id="7b9f5588bc"><path d="M 307 331 L 493 331 L 493 525 L 307 525 Z M 307 331 " clip-rule="nonzero"/></clipPath><clipPath id="2a01264ead"><path d="M 109.0625 -105.660156 L 889.957031 115.09375 L 678.179688 864.234375 L -102.714844 643.480469 Z M 109.0625 -105.660156 " clip-rule="nonzero"/></clipPath><clipPath id="8c32999690"><path d="M 109.0625 -105.660156 L 889.957031 115.09375 L 678.179688 864.234375 L -102.714844 643.480469 Z M 109.0625 -105.660156 " clip-rule="nonzero"/></clipPath></defs><g clip-path="url(#000f8c42db)"><g clip-path="url(#426c110963)"><g clip-path="url(#1acad07d57)"><path fill="#fbe4ea" d="M 775.683594 508.570312 C 772.3125 514.160156 768.957031 519.792969 765.527344 525.375 C 763.550781 528.597656 760.449219 530.683594 757.757812 533.210938 C 751.402344 539.191406 743.171875 542.699219 737.78125 550.128906 C 734.023438 555.308594 727.96875 558.847656 721.398438 560.664062 C 719.921875 561.070312 718.195312 561.25 717.0625 562.140625 C 710.207031 567.542969 701.988281 567.714844 693.910156 568.359375 C 692.46875 568.476562 690.96875 567.65625 689.472656 567.402344 C 687.769531 567.117188 685.765625 566.316406 684.371094 566.894531 C 677.714844 569.660156 671.089844 567.496094 664.859375 566.222656 C 658.265625 564.875 651.808594 564.078125 645.21875 564.636719 C 638.417969 565.207031 632.101562 562.980469 625.972656 561.058594 C 617.824219 558.496094 609.691406 556.199219 601.429688 554.058594 C 593 551.875 584.082031 549.09375 577.292969 542.640625 C 574.910156 540.375 572.394531 538.246094 569.859375 536.148438 C 569.046875 535.472656 568.007812 534.738281 567.027344 534.660156 C 560.976562 534.179688 557.609375 529.804688 553.644531 526.066406 C 549.65625 522.3125 545.210938 519.039062 540.914062 515.621094 C 536.238281 511.894531 531.355469 508.648438 525.175781 507.828125 C 519.242188 507.042969 515.890625 508.269531 513.425781 512.65625 C 511.125 516.75 511.980469 520.390625 515.886719 523.304688 C 516.765625 523.957031 518.125 524.609375 518.300781 525.457031 C 519.550781 531.539062 525.992188 533.695312 528.320312 538.96875 C 528.859375 540.183594 530.542969 541.539062 531.820312 541.675781 C 539.8125 542.535156 544.132812 548.628906 549.332031 553.480469 C 550.933594 554.976562 552.402344 556.625 554 558.125 C 556.042969 560.042969 558.160156 561.882812 560.246094 563.753906 C 561.230469 564.636719 562.074219 565.902344 563.230469 566.339844 C 568.46875 568.339844 570.726562 573.382812 574.445312 576.917969 C 576.957031 579.308594 579.464844 581.707031 581.972656 584.105469 C 582.605469 584.707031 583.523438 585.210938 583.816406 585.953125 C 587.011719 594.101562 593.71875 599.804688 598.265625 606.96875 C 600.574219 610.597656 601.90625 614.972656 603.058594 619.179688 C 604.527344 624.546875 605.792969 629.8125 610.160156 633.800781 C 611.539062 635.0625 612.730469 637.050781 613.042969 638.871094 C 613.816406 643.351562 614.273438 647.921875 614.390625 652.46875 C 614.503906 656.816406 614.144531 661.191406 613.753906 665.53125 C 613.539062 667.90625 612.875 670.246094 612.332031 672.582031 C 612.140625 673.410156 611.296875 674.265625 611.441406 674.957031 C 613.136719 683.027344 608.648438 690.003906 607.546875 697.566406 C 607.324219 699.089844 606.269531 700.710938 606.582031 702.058594 C 609.226562 713.441406 602.105469 722.160156 598.675781 731.871094 C 596.929688 736.8125 594.308594 741.574219 593.386719 746.652344 C 592.324219 752.542969 588.617188 756.488281 585.269531 760.746094 C 582.667969 764.054688 580.421875 767.238281 579.078125 771.414062 C 577.867188 775.179688 574.753906 778.332031 572.460938 781.78125 C 561.035156 778.328125 551.011719 773.808594 542.902344 765.492188 C 539.761719 762.277344 535.25 760.601562 533.15625 755.996094 C 532.546875 754.648438 529.351562 754.472656 526.875 753.597656 C 525.347656 756.730469 523.546875 759.335938 522.773438 762.21875 C 520.671875 770.050781 519.015625 778 517.152344 785.898438 C 516.953125 786.738281 516.714844 787.648438 516.226562 788.339844 C 513.210938 792.574219 509.347656 796.089844 508.367188 801.777344 C 507.800781 805.054688 504.773438 805.808594 501.4375 804.699219 C 495.804688 802.832031 490.242188 800.730469 484.578125 798.964844 C 482.300781 798.253906 479.839844 797.972656 477.445312 797.832031 C 473.300781 797.585938 469.640625 796.460938 466.882812 793.164062 C 466.320312 792.492188 465.800781 791.628906 465.058594 791.289062 C 454.546875 786.429688 446.601562 777.851562 436.84375 771.878906 C 434.585938 770.5 432.804688 767.878906 431.539062 765.449219 C 429.074219 760.722656 426.320312 756.570312 421.945312 753.167969 C 416.234375 748.722656 411.300781 743.28125 405.945312 738.363281 C 401.730469 734.496094 397.386719 730.777344 393.097656 726.996094 C 392.273438 726.269531 391.046875 725.722656 390.667969 724.816406 C 389 720.820312 388.433594 716.015625 385.828125 712.855469 C 383.109375 709.5625 380.171875 706.792969 379.703125 702.335938 C 379.65625 701.898438 379.785156 701.316406 379.550781 701.039062 C 372.171875 692.378906 376.867188 681.398438 373.929688 671.875 C 372.980469 668.796875 372.246094 665.539062 372.125 662.335938 C 371.898438 656.207031 371.203125 649.84375 372.476562 643.964844 C 374.425781 634.964844 373.738281 626.003906 374.222656 617.023438 C 374.714844 607.824219 375.921875 598.660156 376.847656 589.488281 C 377.15625 586.445312 378.070312 583.375 377.839844 580.382812 C 377.175781 571.765625 380.359375 563.632812 380.671875 555.023438 C 379.652344 553.941406 378.664062 552.773438 377.558594 551.734375 C 373.644531 548.070312 369.242188 548.027344 366.292969 552.433594 C 364.035156 555.816406 362.113281 559.890625 361.597656 563.863281 C 360.765625 570.257812 358.21875 576.066406 356.03125 581.847656 C 352.875 590.183594 347.429688 597.648438 344.234375 605.980469 C 341.515625 613.070312 338.761719 619.855469 334.851562 626.480469 C 332.179688 631 331.421875 636.253906 325.429688 637.921875 C 324.644531 638.136719 323.96875 639.527344 323.652344 640.507812 C 321.726562 646.527344 320.132812 652.671875 317.949219 658.59375 C 317.175781 660.695312 315.421875 663.027344 313.488281 663.992188 C 306.375 667.539062 301.113281 673.085938 295.949219 678.832031 C 293.152344 681.945312 289.820312 683.675781 285.480469 683.5625 C 283.867188 683.519531 282.175781 684.296875 280.613281 684.933594 C 276.347656 686.664062 272.144531 688.542969 267.894531 690.3125 C 265.453125 691.328125 262.359375 691.617188 260.621094 693.316406 C 256.191406 697.660156 250.8125 699.90625 245.191406 701.882812 C 240.457031 703.550781 235.796875 705.707031 230.910156 706.601562 C 227.097656 707.296875 223.960938 709.058594 220.503906 710.335938 C 215.21875 712.296875 209.46875 713.015625 203.898438 714.171875 C 202.84375 714.390625 201.34375 713.730469 200.667969 714.261719 C 195.992188 717.921875 190.734375 716.734375 185.46875 716.800781 C 182.335938 716.84375 179.566406 716.960938 176.535156 715.703125 C 174.605469 714.902344 171.53125 714.996094 169.757812 716.035156 C 164.648438 719.03125 159.894531 717.621094 155.164062 715.734375 C 150.757812 713.972656 146.523438 711.773438 142.261719 709.675781 C 137.128906 707.152344 135.578125 704.007812 136.15625 698.589844 C 136.664062 693.8125 136.449219 688.9375 137.246094 684.222656 C 138.296875 677.980469 140.375 671.910156 141.371094 665.664062 C 142.421875 659.09375 145.117188 652.722656 144.402344 644.925781 C 134.5 650.585938 125.355469 655.027344 115.601562 658.199219 C 113.121094 659.003906 110.832031 660.476562 108.570312 661.832031 C 103.519531 664.859375 98.046875 666.128906 92.207031 666.359375 C 90.328125 666.429688 88.40625 667.109375 86.640625 667.839844 C 81.917969 669.804688 79.023438 669.347656 77.519531 664.851562 C 72.734375 650.539062 66.679688 636.460938 68.59375 620.703125 C 69.28125 615.050781 68.910156 609.265625 69.011719 603.539062 C 69.027344 602.660156 68.722656 601.65625 69.046875 600.921875 C 71.351562 595.714844 69.964844 590.472656 69.148438 585.308594 C 68.359375 580.316406 69.140625 575.863281 71.199219 571.199219 C 73.21875 566.628906 73.941406 561.5 75.425781 556.671875 C 77.773438 549.03125 78.210938 540.96875 83.777344 534.140625 C 87.964844 529.007812 89.929688 522.0625 92.84375 515.902344 C 93.40625 514.710938 93.527344 513.246094 94.28125 512.226562 C 99.105469 505.710938 104.058594 499.292969 108.949219 492.824219 C 110 491.4375 110.957031 489.972656 111.984375 488.566406 C 113.148438 486.972656 114.007812 484.625 115.578125 483.960938 C 122.578125 480.996094 125.351562 474.289062 129.851562 469.085938 C 131.761719 466.878906 134.617188 465.058594 137.394531 464.167969 C 140.25 463.253906 142.585938 462.074219 144.660156 459.96875 C 147.589844 456.992188 151.058594 455.691406 155.445312 456.152344 C 157.589844 456.378906 160.183594 455.464844 162.066406 454.265625 C 164.984375 452.410156 167.828125 451.292969 171.34375 451.484375 C 173.460938 451.601562 175.699219 451.1875 177.738281 450.550781 C 181.375 449.417969 184.886719 448.3125 188.683594 449.976562 C 189.609375 450.382812 190.96875 450.46875 191.890625 450.105469 C 196.925781 448.109375 201.894531 445.945312 206.875 443.804688 C 208.492188 443.105469 210 442.046875 211.679688 441.605469 C 219.273438 439.609375 226.863281 437.523438 234.5625 436 C 237.957031 435.328125 240.726562 434.101562 243.367188 431.96875 C 246.445312 429.480469 249.601562 427.433594 250.449219 422.933594 C 250.894531 420.570312 253.25 418.5625 254.953125 416.085938 C 254.09375 414.824219 253.078125 413.695312 252.480469 412.378906 C 250.886719 408.871094 248.609375 408.578125 245.59375 410.539062 C 244.871094 411.007812 243.960938 411.445312 243.132812 411.453125 C 235.730469 411.488281 228.515625 412.28125 221.386719 414.609375 C 216.898438 416.074219 212.039062 416.402344 207.34375 417.226562 C 201.664062 418.222656 196.328125 416.949219 191.292969 414.441406 C 188.789062 413.195312 186.394531 413.378906 183.710938 413.386719 C 179.175781 413.402344 174.589844 412.457031 170.117188 411.507812 C 166.039062 410.640625 162.035156 409.347656 158.074219 408.03125 C 154.765625 406.929688 151.613281 405.355469 148.292969 404.3125 C 146.335938 403.699219 144.078125 403.183594 142.128906 403.550781 C 136.953125 404.515625 132.542969 403.582031 128.652344 399.941406 C 127.394531 398.765625 125.867188 397.746094 124.28125 397.074219 C 114.894531 393.097656 106.089844 388.222656 98.710938 381.058594 C 97.078125 379.476562 95.34375 378.683594 92.867188 378.746094 C 87.003906 378.902344 82.554688 376.1875 80.585938 370.5625 C 79.097656 366.300781 76.023438 363.589844 72.699219 361.039062 C 66.558594 356.324219 61.839844 350.726562 60.425781 342.84375 C 60.277344 342.011719 59.917969 341.15625 59.441406 340.453125 C 56.761719 336.46875 53.863281 332.625 51.339844 328.546875 C 49.15625 325.019531 47.375 321.25 45.433594 317.578125 C 44.917969 316.605469 44.683594 315.402344 43.96875 314.628906 C 34.574219 304.5 34.695312 291.269531 32.238281 278.894531 C 31.773438 276.539062 31.898438 274.0625 31.375 271.722656 C 28.882812 260.554688 25.863281 249.484375 23.859375 238.234375 C 22.839844 232.53125 23.480469 226.515625 23.554688 220.648438 C 23.625 214.972656 23.851562 209.300781 24.152344 203.636719 C 24.527344 196.527344 25.574219 189.652344 30.457031 183.898438 C 32.25 181.777344 33.394531 179.109375 34.96875 176.472656 C 43.085938 178.226562 51.125 179.453125 58.835938 181.777344 C 66.28125 184.019531 73.390625 187.390625 81.851562 190.742188 C 81.136719 187.097656 80.742188 184.589844 80.144531 182.128906 C 78.480469 175.316406 76.925781 168.628906 78.703125 161.433594 C 79.554688 157.976562 78.488281 154.074219 78.5 150.371094 C 78.503906 148.425781 78.339844 146.070312 79.3125 144.609375 C 82.660156 139.59375 82.527344 133.925781 83.09375 128.371094 C 83.398438 125.390625 84.601562 123.539062 87.699219 122.785156 C 95.804688 120.8125 103.835938 118.5625 111.945312 116.617188 C 113.574219 116.226562 115.894531 116.023438 117.054688 116.878906 C 120.195312 119.191406 123.214844 118.472656 126.445312 117.675781 C 129.5 116.921875 132.546875 116.570312 135.398438 118.480469 C 135.925781 118.835938 136.640625 119.191406 137.230469 119.140625 C 147.75 118.195312 157.191406 123.933594 167.621094 123.976562 C 170.925781 123.992188 174.328125 125.949219 177.492188 127.429688 C 179.996094 128.605469 182.164062 129.257812 185.019531 128.371094 C 190.136719 126.78125 194.304688 130.386719 198.90625 131.652344 C 200.964844 132.214844 203.027344 132.785156 205.042969 133.484375 C 209.160156 134.910156 213.222656 136.488281 217.34375 137.890625 C 226.675781 141.0625 234.414062 146.839844 242.054688 152.8125 C 244.832031 154.980469 247.738281 156.984375 250.519531 159.152344 C 252.078125 160.367188 253.65625 161.621094 254.949219 163.09375 C 259.855469 168.6875 264.683594 174.347656 269.457031 180.050781 C 270.5625 181.375 271.589844 182.878906 272.199219 184.46875 C 273.996094 189.191406 275.1875 194.152344 280.105469 197.007812 C 281.1875 197.636719 281.300781 199.761719 282.152344 200.996094 C 283.101562 202.378906 284.160156 204.207031 285.558594 204.671875 C 292.386719 206.941406 294.441406 213.472656 298.289062 218.363281 C 300.992188 221.792969 303.402344 225.457031 305.828125 229.09375 C 307.5 231.601562 308.992188 234.230469 310.523438 236.832031 C 310.851562 237.390625 310.816406 238.351562 311.261719 238.632812 C 316.046875 241.679688 316.425781 247.769531 319.898438 251.402344 C 324.253906 255.960938 326.335938 261.691406 329.8125 266.621094 C 333.878906 272.382812 336.605469 278.488281 338.699219 285.335938 C 340.550781 291.398438 345.445312 296.589844 351.550781 299.773438 C 354.378906 301.246094 360.328125 300.667969 362.316406 298.871094 C 364.414062 296.984375 365.367188 288.859375 363.089844 285.71875 C 358.097656 278.816406 356.992188 270.722656 355.226562 262.816406 C 354.761719 260.734375 354.625 258.449219 354.949219 256.355469 C 355.4375 253.253906 354.765625 250.796875 352.699219 248.441406 C 349.769531 245.113281 348.988281 241.226562 349.542969 236.75 C 349.910156 233.816406 349.117188 230.734375 348.839844 227.71875 C 348.230469 221.148438 347.429688 214.585938 347.046875 208 C 346.363281 196.441406 345.863281 184.867188 345.464844 173.296875 C 345.386719 171.164062 346.039062 168.980469 346.519531 166.863281 C 348.039062 160.167969 349.347656 153.46875 348.15625 146.558594 C 347.457031 142.488281 348.324219 138.925781 350.417969 135.210938 C 353.40625 129.902344 356.886719 124.640625 357.070312 118.140625 C 357.105469 116.871094 357.617188 115.5 358.265625 114.378906 C 363.234375 105.792969 366.953125 96.675781 370.199219 87.328125 C 370.742188 85.757812 372.140625 84.433594 373.292969 83.132812 C 375.152344 81.03125 377.109375 79.011719 379.078125 77.011719 C 387.3125 68.636719 392.910156 57.75 403.714844 51.761719 C 406.46875 50.238281 408.117188 46.839844 410.742188 44.953125 C 414.65625 42.140625 418.722656 39.097656 423.210938 37.621094 C 428.785156 35.792969 432.378906 31.648438 436.738281 28.425781 C 439.972656 26.035156 443.125 23.96875 447.128906 22.929688 C 450.921875 21.945312 454.40625 19.832031 458.136719 18.53125 C 460.347656 17.765625 462.820312 17.09375 465.085938 17.316406 C 467.984375 17.59375 470.003906 17.089844 472.144531 14.957031 C 476.25 10.863281 481.402344 9.027344 487.273438 9.859375 C 495.867188 11.074219 504.253906 8.625 512.496094 8.390625 C 515.414062 12.078125 518.367188 15.367188 520.785156 19.015625 C 522.464844 21.546875 523.886719 24.453125 524.570312 27.394531 C 525.957031 33.367188 526.757812 39.476562 527.804688 45.527344 C 528.03125 46.816406 527.898438 48.378906 528.589844 49.34375 C 534.054688 56.964844 533.46875 65.453125 532.628906 74.085938 C 532.457031 75.835938 533.039062 77.820312 533.789062 79.464844 C 534.9375 81.988281 536.527344 84.3125 538.117188 87.03125 C 543.742188 88.070312 547.445312 86.574219 549.980469 81.246094 C 551.558594 77.925781 553.078125 75.105469 557.0625 74.128906 C 558.585938 73.753906 560.390625 72.265625 561 70.828125 C 562.886719 66.40625 566.671875 64.257812 570.335938 61.796875 C 572.328125 60.457031 574.226562 58.886719 575.875 57.144531 C 581.269531 51.433594 587.972656 47.597656 594.820312 44.085938 C 601.203125 40.8125 605.269531 43.359375 610.078125 48.511719 C 615.144531 53.9375 616.183594 61.507812 621.527344 66.480469 C 621.996094 66.914062 622.363281 67.542969 622.578125 68.152344 C 625.863281 77.410156 628.636719 86.886719 632.503906 95.894531 C 636.464844 105.109375 636.980469 115 639.441406 124.492188 C 640.21875 127.5 639.40625 130.921875 639.324219 134.15625 C 639.140625 141.605469 638.761719 149.058594 638.832031 156.503906 C 638.886719 162.351562 637.875 167.855469 635.367188 173.109375 C 634.992188 173.894531 634.375 174.652344 634.277344 175.46875 C 633.324219 183.539062 632.484375 191.625 631.546875 199.695312 C 631.269531 202.0625 631.527344 204.960938 630.261719 206.664062 C 624.632812 214.230469 621.542969 222.796875 618.984375 231.695312 C 618.449219 233.542969 617.164062 235.183594 616.148438 236.878906 C 611.101562 245.320312 606.542969 253.941406 600.429688 261.875 C 595.441406 268.355469 589.742188 273.652344 583.882812 279.058594 C 578.890625 283.671875 574.289062 288.71875 569.222656 293.246094 C 562.84375 298.941406 556.289062 304.464844 549.5625 309.746094 C 546.660156 312.023438 543.074219 313.410156 539.910156 315.386719 C 536.785156 317.339844 533.210938 319.023438 530.925781 321.742188 C 528.464844 324.667969 525.433594 325.96875 522.28125 327.492188 C 520.363281 328.421875 518.695312 329.886719 516.757812 330.761719 C 510.3125 333.667969 509.128906 340.230469 506.292969 345.613281 C 504.71875 348.609375 506.851562 353.007812 510.21875 353.917969 C 512.945312 354.65625 515.738281 355.140625 518.496094 355.769531 C 521.835938 356.53125 524.761719 356.035156 527.96875 354.40625 C 535.535156 350.570312 543.375 347.398438 551.476562 344.601562 C 558.414062 342.210938 566.429688 340.785156 571.695312 334.5625 C 584.875 330.394531 594.734375 319.214844 608.941406 317.058594 C 611.589844 316.660156 613.855469 313.894531 616.519531 313.394531 C 622.316406 312.308594 628.257812 311.992188 634.136719 311.324219 C 635.835938 311.128906 637.507812 310.722656 639.207031 310.566406 C 641.578125 310.347656 643.96875 310.066406 646.339844 310.175781 C 649.390625 310.320312 652.460938 310.648438 655.460938 311.214844 C 665.152344 313.046875 675.082031 312.90625 684.730469 315.433594 C 692.726562 317.53125 700.179688 321.613281 708.707031 321.894531 C 710.511719 321.953125 712.40625 323.308594 714.027344 324.410156 C 724.019531 331.203125 734.144531 337.824219 743.820312 345.046875 C 749.917969 349.601562 756.195312 354.183594 758.789062 362.164062 C 759.664062 364.859375 762.113281 367.421875 764.484375 369.191406 C 773.699219 376.058594 779.992188 384.972656 785.300781 395.066406 C 788.3125 400.800781 790.21875 406.757812 792.488281 412.683594 C 793.5625 415.484375 795.792969 417.828125 797.371094 420.457031 C 798.984375 423.140625 802.105469 425.921875 797.125 428.558594 C 796.59375 428.839844 796.570312 430.476562 796.652344 431.453125 C 797.101562 436.785156 793.914062 439.980469 790.097656 442.792969 C 788.519531 443.957031 786.933594 445.246094 785.144531 445.96875 C 777.203125 449.160156 770.894531 455.652344 761.824219 456.71875 C 756.484375 457.351562 751.328125 459.445312 746.058594 460.761719 C 744.378906 461.179688 742.589844 461.144531 740.871094 461.421875 C 739.238281 461.6875 737.632812 462.09375 734.957031 462.664062 C 742.527344 470.269531 749.398438 476.964844 755.992188 483.921875 C 758.207031 486.261719 759.871094 489.175781 761.515625 491.988281 C 762.730469 494.070312 763.960938 495.722656 766.058594 497.265625 C 769.984375 500.179688 774.613281 502.90625 775.683594 508.570312 Z M 775.683594 508.570312 " fill-opacity="1" fill-rule="nonzero"/></g></g></g><g clip-path="url(#7b9f5588bc)"><g clip-path="url(#2a01264ead)"><g clip-path="url(#8c32999690)"><path fill="#65a888" d="M 403.574219 453.953125 C 402.851562 460.089844 402.496094 466.304688 401.292969 472.351562 C 400.136719 478.171875 397.96875 483.785156 396.539062 489.558594 C 396.097656 491.359375 396.480469 493.417969 396.734375 495.328125 C 397.316406 499.757812 399.398438 504.511719 398.378906 508.496094 C 397.214844 513.019531 393.613281 517.070312 390.558594 520.917969 C 386.996094 525.410156 382.507812 525.019531 377.652344 522.578125 C 375.78125 521.636719 373.28125 521.839844 371.054688 521.714844 C 359.71875 521.0625 352.984375 513.746094 353.734375 502.527344 C 353.859375 500.628906 354.472656 498.351562 355.691406 497.003906 C 359.03125 493.320312 362.390625 489.347656 366.546875 486.8125 C 369.980469 484.714844 371.238281 482.078125 372.5 478.738281 C 375.054688 471.996094 377.21875 464.921875 380.980469 458.875 C 384.585938 453.082031 383.941406 448.222656 381.21875 441.96875 C 373.828125 447.445312 363.914062 446.058594 357.332031 452.808594 C 356.371094 453.796875 354.65625 454.414062 353.242188 454.515625 C 351.054688 454.664062 350.457031 455.859375 349.617188 457.589844 C 348.558594 459.773438 346.921875 461.730469 345.296875 463.582031 C 341.0625 468.40625 336.011719 469.933594 329.734375 467.632812 C 326.953125 466.617188 323.785156 466.6875 320.847656 466.03125 C 315.148438 464.753906 310.65625 462.171875 308.941406 455.917969 C 305.628906 443.835938 306.8125 440.160156 316.910156 432.066406 C 324.71875 425.8125 332.5625 428.859375 340.394531 431.753906 C 341.976562 432.34375 343.296875 433.644531 345.277344 434.980469 C 354.582031 427.644531 367.335938 426.914062 376.863281 418.140625 C 375.0625 415.527344 373.574219 412.984375 371.710938 410.746094 C 365.160156 402.882812 358.363281 395.21875 351.894531 387.289062 C 347.953125 382.457031 348.148438 382.324219 341.917969 384.015625 C 340.234375 384.472656 338.464844 385.148438 336.789062 385.023438 C 330.441406 384.535156 324.023438 383.886719 321.339844 376.632812 C 318.761719 369.671875 316.832031 363.042969 322.273438 356.066406 C 329.371094 346.957031 338.019531 342.410156 349.582031 343.945312 C 355.125 344.683594 359.574219 349.085938 359.761719 354.304688 C 359.964844 359.960938 359.757812 365.628906 359.71875 372.152344 C 369.640625 382.578125 380.117188 393.589844 391.320312 405.363281 C 392.945312 399.625 394.199219 394.722656 395.734375 389.914062 C 396.78125 386.632812 398.457031 383.546875 399.433594 380.25 C 401.199219 374.289062 403.949219 368.75 401.269531 361.84375 C 399.273438 356.691406 399.09375 350.457031 399.625 344.847656 C 399.902344 341.910156 403.152344 338.988281 405.574219 336.574219 C 413.65625 328.511719 430.839844 330.976562 436.542969 340.835938 C 439.695312 346.285156 438.085938 356.027344 433.183594 359.910156 C 430.089844 362.359375 426.558594 364.273438 423.570312 366.835938 C 421.992188 368.191406 420.496094 370.28125 420.105469 372.265625 C 418.136719 382.285156 416.53125 392.375 414.847656 402.445312 C 414.777344 402.863281 415.167969 403.359375 415.515625 404.257812 C 425.976562 403.203125 436.773438 403.472656 446.226562 397.273438 C 447.21875 396.621094 448.628906 396.113281 449.757812 396.253906 C 453.769531 396.746094 455.789062 394.585938 457.289062 391.34375 C 460.117188 385.242188 466.140625 383.308594 471.65625 381.136719 C 475.992188 379.425781 483.285156 383.375 485.589844 387.691406 C 486.640625 389.667969 487.601562 391.761719 489 393.476562 C 493.390625 398.84375 493.089844 405.160156 492.726562 411.402344 C 492.617188 413.265625 491.511719 415.285156 490.335938 416.835938 C 485.871094 422.726562 470.339844 425.953125 464.023438 421.796875 C 458.375 418.082031 453.210938 419.113281 447.03125 420.003906 C 439.847656 421.035156 433.863281 423.800781 427.738281 426.996094 C 426.488281 427.652344 424.820312 427.671875 423.339844 427.695312 C 419.734375 427.75 417.125 429.320312 415.554688 432.003906 C 417.238281 435.625 418.636719 439.042969 420.402344 442.261719 C 421.34375 443.980469 422.867188 445.398438 424.234375 446.851562 C 425.082031 447.753906 426.777344 448.34375 426.972656 449.296875 C 428.347656 456.148438 434.839844 459.496094 437.6875 465.363281 C 439.636719 469.378906 443.113281 471.550781 448.023438 471.339844 C 452.015625 471.171875 456.039062 471.859375 460.054688 472.054688 C 471.308594 472.605469 476.535156 483.402344 473.375 491.78125 C 470.3125 499.886719 466.082031 506.699219 458.433594 510.835938 C 455.675781 512.332031 452.199219 513.585938 449.183594 513.328125 C 442.105469 512.726562 435.414062 510.121094 429.769531 505.75 C 426.042969 502.871094 424.871094 497.773438 426.78125 494.070312 C 430.535156 486.800781 426.277344 482.34375 422.167969 478.285156 C 418.996094 475.152344 417.113281 471.738281 415.15625 467.910156 C 413.042969 463.773438 409.527344 460.355469 406.652344 456.601562 C 405.894531 455.609375 405.25 454.53125 404.546875 453.492188 C 404.308594 452.875 404.066406 452.261719 403.828125 451.644531 C 403.742188 452.410156 403.660156 453.179688 403.574219 453.953125 Z M 403.574219 453.953125 " fill-opacity="1" fill-rule="nonzero"/></g></g></g></svg>