<?xml version="1.0" encoding="UTF-8" standalone="no"?>
<!DOCTYPE svg PUBLIC "-//W3C//DTD SVG 1.1//EN" "http://www.w3.org/Graphics/SVG/1.1/DTD/svg11.dtd">
<!-- Created with Vectornator (http://vectornator.io/) -->
<svg height="100%" stroke-miterlimit="10" style="fill-rule:nonzero;clip-rule:evenodd;stroke-linecap:round;stroke-linejoin:round;" version="1.1" viewBox="0 0 810 810" width="100%" xml:space="preserve" xmlns="http://www.w3.org/2000/svg" xmlns:xlink="http://www.w3.org/1999/xlink">
<defs/>
<g id="Untitled">
<g opacity="1">
<clipPath clip-rule="nonzero" id="ClipPath">
<path d="M23 8L800 8L800 806L23 806L23 8Z"/>
</clipPath>
<g clip-path="url(#ClipPath)">
<clipPath clip-rule="nonzero" id="ClipPath_2">
<path d="M109.062-105.66L889.957 115.094L678.18 864.234L-102.715 643.48L109.062-105.66Z"/>
</clipPath>
<g clip-path="url(#ClipPath_2)">
<clipPath clip-rule="nonzero" id="ClipPath_3">
<path d="M109.062-105.66L889.957 115.094L678.18 864.234L-102.715 643.48L109.062-105.66Z"/>
</clipPath>
<g clip-path="url(#ClipPath_3)">
<path d="M775.684 508.57C772.312 514.16 768.957 519.793 765.527 525.375C763.551 528.598 760.449 530.684 757.758 533.211C751.402 539.191 743.172 542.699 737.781 550.129C734.023 555.309 727.969 558.848 721.398 560.664C719.922 561.07 718.195 561.25 717.062 562.141C710.207 567.543 701.988 567.715 693.91 568.359C692.469 568.477 690.969 567.656 689.473 567.402C687.77 567.117 685.766 566.316 684.371 566.895C677.715 569.66 671.09 567.496 664.859 566.223C658.266 564.875 651.809 564.078 645.219 564.637C638.418 565.207 632.102 562.98 625.973 561.059C617.824 558.496 609.691 556.199 601.43 554.059C593 551.875 584.082 549.094 577.293 542.641C574.91 540.375 572.395 538.246 569.859 536.148C569.047 535.473 568.008 534.738 567.027 534.66C560.977 534.18 557.609 529.805 553.645 526.066C549.656 522.312 545.211 519.039 540.914 515.621C536.238 511.895 531.355 508.648 525.176 507.828C519.242 507.043 515.891 508.27 513.426 512.656C511.125 516.75 511.98 520.391 515.887 523.305C516.766 523.957 518.125 524.609 518.301 525.457C519.551 531.539 525.992 533.695 528.32 538.969C528.859 540.184 530.543 541.539 531.82 541.676C539.812 542.535 544.133 548.629 549.332 553.48C550.934 554.977 552.402 556.625 554 558.125C556.043 560.043 558.16 561.883 560.246 563.754C561.23 564.637 562.074 565.902 563.23 566.34C568.469 568.34 570.727 573.383 574.445 576.918C576.957 579.309 579.465 581.707 581.973 584.105C582.605 584.707 583.523 585.211 583.816 585.953C587.012 594.102 593.719 599.805 598.266 606.969C600.574 610.598 601.906 614.973 603.059 619.18C604.527 624.547 605.793 629.812 610.16 633.801C611.539 635.062 612.73 637.051 613.043 638.871C613.816 643.352 614.273 647.922 614.391 652.469C614.504 656.816 614.145 661.191 613.754 665.531C613.539 667.906 612.875 670.246 612.332 672.582C612.141 673.41 611.297 674.266 611.441 674.957C613.137 683.027 608.648 690.004 607.547 697.566C607.324 699.09 606.27 700.711 606.582 702.059C609.227 713.441 602.105 722.16 598.676 731.871C596.93 736.812 594.309 741.574 593.387 746.652C592.324 752.543 588.617 756.488 585.27 760.746C582.668 764.055 580.422 767.238 579.078 771.414C577.867 775.18 574.754 778.332 572.461 781.781C561.035 778.328 551.012 773.809 542.902 765.492C539.762 762.277 535.25 760.602 533.156 755.996C532.547 754.648 529.352 754.473 526.875 753.598C525.348 756.73 523.547 759.336 522.773 762.219C520.672 770.051 519.016 778 517.152 785.898C516.953 786.738 516.715 787.648 516.227 788.34C513.211 792.574 509.348 796.09 508.367 801.777C507.801 805.055 504.773 805.809 501.438 804.699C495.805 802.832 490.242 800.73 484.578 798.965C482.301 798.254 479.84 797.973 477.445 797.832C473.301 797.586 469.641 796.461 466.883 793.164C466.32 792.492 465.801 791.629 465.059 791.289C454.547 786.43 446.602 777.852 436.844 771.879C434.586 770.5 432.805 767.879 431.539 765.449C429.074 760.723 426.32 756.57 421.945 753.168C416.234 748.723 411.301 743.281 405.945 738.363C401.73 734.496 397.387 730.777 393.098 726.996C392.273 726.27 391.047 725.723 390.668 724.816C389 720.82 388.434 716.016 385.828 712.855C383.109 709.562 380.172 706.793 379.703 702.336C379.656 701.898 379.785 701.316 379.551 701.039C372.172 692.379 376.867 681.398 373.93 671.875C372.98 668.797 372.246 665.539 372.125 662.336C371.898 656.207 371.203 649.844 372.477 643.965C374.426 634.965 373.738 626.004 374.223 617.023C374.715 607.824 375.922 598.66 376.848 589.488C377.156 586.445 378.07 583.375 377.84 580.383C377.176 571.766 380.359 563.633 380.672 555.023C379.652 553.941 378.664 552.773 377.559 551.734C373.645 548.07 369.242 548.027 366.293 552.434C364.035 555.816 362.113 559.891 361.598 563.863C360.766 570.258 358.219 576.066 356.031 581.848C352.875 590.184 347.43 597.648 344.234 605.98C341.516 613.07 338.762 619.855 334.852 626.48C332.18 631 331.422 636.254 325.43 637.922C324.645 638.137 323.969 639.527 323.652 640.508C321.727 646.527 320.133 652.672 317.949 658.594C317.176 660.695 315.422 663.027 313.488 663.992C306.375 667.539 301.113 673.086 295.949 678.832C293.152 681.945 289.82 683.676 285.48 683.562C283.867 683.52 282.176 684.297 280.613 684.934C276.348 686.664 272.145 688.543 267.895 690.312C265.453 691.328 262.359 691.617 260.621 693.316C256.191 697.66 250.812 699.906 245.191 701.883C240.457 703.551 235.797 705.707 230.91 706.602C227.098 707.297 223.961 709.059 220.504 710.336C215.219 712.297 209.469 713.016 203.898 714.172C202.844 714.391 201.344 713.73 200.668 714.262C195.992 717.922 190.734 716.734 185.469 716.801C182.336 716.844 179.566 716.961 176.535 715.703C174.605 714.902 171.531 714.996 169.758 716.035C164.648 719.031 159.895 717.621 155.164 715.734C150.758 713.973 146.523 711.773 142.262 709.676C137.129 707.152 135.578 704.008 136.156 698.59C136.664 693.812 136.449 688.938 137.246 684.223C138.297 677.98 140.375 671.91 141.371 665.664C142.422 659.094 145.117 652.723 144.402 644.926C134.5 650.586 125.355 655.027 115.602 658.199C113.121 659.004 110.832 660.477 108.57 661.832C103.52 664.859 98.0469 666.129 92.207 666.359C90.3281 666.43 88.4062 667.109 86.6406 667.84C81.918 669.805 79.0234 669.348 77.5195 664.852C72.7344 650.539 66.6797 636.461 68.5938 620.703C69.2812 615.051 68.9102 609.266 69.0117 603.539C69.0273 602.66 68.7227 601.656 69.0469 600.922C71.3516 595.715 69.9648 590.473 69.1484 585.309C68.3594 580.316 69.1406 575.863 71.1992 571.199C73.2188 566.629 73.9414 561.5 75.4258 556.672C77.7734 549.031 78.2109 540.969 83.7773 534.141C87.9648 529.008 89.9297 522.062 92.8438 515.902C93.4062 514.711 93.5273 513.246 94.2812 512.227C99.1055 505.711 104.059 499.293 108.949 492.824C110 491.438 110.957 489.973 111.984 488.566C113.148 486.973 114.008 484.625 115.578 483.961C122.578 480.996 125.352 474.289 129.852 469.086C131.762 466.879 134.617 465.059 137.395 464.168C140.25 463.254 142.586 462.074 144.66 459.969C147.59 456.992 151.059 455.691 155.445 456.152C157.59 456.379 160.184 455.465 162.066 454.266C164.984 452.41 167.828 451.293 171.344 451.484C173.461 451.602 175.699 451.188 177.738 450.551C181.375 449.418 184.887 448.312 188.684 449.977C189.609 450.383 190.969 450.469 191.891 450.105C196.926 448.109 201.895 445.945 206.875 443.805C208.492 443.105 210 442.047 211.68 441.605C219.273 439.609 226.863 437.523 234.562 436C237.957 435.328 240.727 434.102 243.367 431.969C246.445 429.48 249.602 427.434 250.449 422.934C250.895 420.57 253.25 418.562 254.953 416.086C254.094 414.824 253.078 413.695 252.48 412.379C250.887 408.871 248.609 408.578 245.594 410.539C244.871 411.008 243.961 411.445 243.133 411.453C235.73 411.488 228.516 412.281 221.387 414.609C216.898 416.074 212.039 416.402 207.344 417.227C201.664 418.223 196.328 416.949 191.293 414.441C188.789 413.195 186.395 413.379 183.711 413.387C179.176 413.402 174.59 412.457 170.117 411.508C166.039 410.641 162.035 409.348 158.074 408.031C154.766 406.93 151.613 405.355 148.293 404.312C146.336 403.699 144.078 403.184 142.129 403.551C136.953 404.516 132.543 403.582 128.652 399.941C127.395 398.766 125.867 397.746 124.281 397.074C114.895 393.098 106.09 388.223 98.7109 381.059C97.0781 379.477 95.3438 378.684 92.8672 378.746C87.0039 378.902 82.5547 376.188 80.5859 370.562C79.0977 366.301 76.0234 363.59 72.6992 361.039C66.5586 356.324 61.8398 350.727 60.4258 342.844C60.2773 342.012 59.918 341.156 59.4414 340.453C56.7617 336.469 53.8633 332.625 51.3398 328.547C49.1562 325.02 47.375 321.25 45.4336 317.578C44.918 316.605 44.6836 315.402 43.9688 314.629C34.5742 304.5 34.6953 291.27 32.2383 278.895C31.7734 276.539 31.8984 274.062 31.375 271.723C28.8828 260.555 25.8633 249.484 23.8594 238.234C22.8398 232.531 23.4805 226.516 23.5547 220.648C23.625 214.973 23.8516 209.301 24.1523 203.637C24.5273 196.527 25.5742 189.652 30.457 183.898C32.25 181.777 33.3945 179.109 34.9688 176.473C43.0859 178.227 51.125 179.453 58.8359 181.777C66.2812 184.02 73.3906 187.391 81.8516 190.742C81.1367 187.098 80.7422 184.59 80.1445 182.129C78.4805 175.316 76.9258 168.629 78.7031 161.434C79.5547 157.977 78.4883 154.074 78.5 150.371C78.5039 148.426 78.3398 146.07 79.3125 144.609C82.6602 139.594 82.5273 133.926 83.0938 128.371C83.3984 125.391 84.6016 123.539 87.6992 122.785C95.8047 120.812 103.836 118.562 111.945 116.617C113.574 116.227 115.895 116.023 117.055 116.879C120.195 119.191 123.215 118.473 126.445 117.676C129.5 116.922 132.547 116.57 135.398 118.48C135.926 118.836 136.641 119.191 137.23 119.141C147.75 118.195 157.191 123.934 167.621 123.977C170.926 123.992 174.328 125.949 177.492 127.43C179.996 128.605 182.164 129.258 185.02 128.371C190.137 126.781 194.305 130.387 198.906 131.652C200.965 132.215 203.027 132.785 205.043 133.484C209.16 134.91 213.223 136.488 217.344 137.891C226.676 141.062 234.414 146.84 242.055 152.812C244.832 154.98 247.738 156.984 250.52 159.152C252.078 160.367 253.656 161.621 254.949 163.094C259.855 168.688 264.684 174.348 269.457 180.051C270.562 181.375 271.59 182.879 272.199 184.469C273.996 189.191 275.188 194.152 280.105 197.008C281.188 197.637 281.301 199.762 282.152 200.996C283.102 202.379 284.16 204.207 285.559 204.672C292.387 206.941 294.441 213.473 298.289 218.363C300.992 221.793 303.402 225.457 305.828 229.094C307.5 231.602 308.992 234.23 310.523 236.832C310.852 237.391 310.816 238.352 311.262 238.633C316.047 241.68 316.426 247.77 319.898 251.402C324.254 255.961 326.336 261.691 329.812 266.621C333.879 272.383 336.605 278.488 338.699 285.336C340.551 291.398 345.445 296.59 351.551 299.773C354.379 301.246 360.328 300.668 362.316 298.871C364.414 296.984 365.367 288.859 363.09 285.719C358.098 278.816 356.992 270.723 355.227 262.816C354.762 260.734 354.625 258.449 354.949 256.355C355.438 253.254 354.766 250.797 352.699 248.441C349.77 245.113 348.988 241.227 349.543 236.75C349.91 233.816 349.117 230.734 348.84 227.719C348.23 221.148 347.43 214.586 347.047 208C346.363 196.441 345.863 184.867 345.465 173.297C345.387 171.164 346.039 168.98 346.52 166.863C348.039 160.168 349.348 153.469 348.156 146.559C347.457 142.488 348.324 138.926 350.418 135.211C353.406 129.902 356.887 124.641 357.07 118.141C357.105 116.871 357.617 115.5 358.266 114.379C363.234 105.793 366.953 96.6758 370.199 87.3281C370.742 85.7578 372.141 84.4336 373.293 83.1328C375.152 81.0312 377.109 79.0117 379.078 77.0117C387.312 68.6367 392.91 57.75 403.715 51.7617C406.469 50.2383 408.117 46.8398 410.742 44.9531C414.656 42.1406 418.723 39.0977 423.211 37.6211C428.785 35.793 432.379 31.6484 436.738 28.4258C439.973 26.0352 443.125 23.9688 447.129 22.9297C450.922 21.9453 454.406 19.832 458.137 18.5312C460.348 17.7656 462.82 17.0938 465.086 17.3164C467.984 17.5938 470.004 17.0898 472.145 14.957C476.25 10.8633 481.402 9.02734 487.273 9.85938C495.867 11.0742 504.254 8.625 512.496 8.39062C515.414 12.0781 518.367 15.3672 520.785 19.0156C522.465 21.5469 523.887 24.4531 524.57 27.3945C525.957 33.3672 526.758 39.4766 527.805 45.5273C528.031 46.8164 527.898 48.3789 528.59 49.3438C534.055 56.9648 533.469 65.4531 532.629 74.0859C532.457 75.8359 533.039 77.8203 533.789 79.4648C534.938 81.9883 536.527 84.3125 538.117 87.0312C543.742 88.0703 547.445 86.5742 549.98 81.2461C551.559 77.9258 553.078 75.1055 557.062 74.1289C558.586 73.7539 560.391 72.2656 561 70.8281C562.887 66.4062 566.672 64.2578 570.336 61.7969C572.328 60.457 574.227 58.8867 575.875 57.1445C581.27 51.4336 587.973 47.5977 594.82 44.0859C601.203 40.8125 605.27 43.3594 610.078 48.5117C615.145 53.9375 616.184 61.5078 621.527 66.4805C621.996 66.9141 622.363 67.543 622.578 68.1523C625.863 77.4102 628.637 86.8867 632.504 95.8945C636.465 105.109 636.98 115 639.441 124.492C640.219 127.5 639.406 130.922 639.324 134.156C639.141 141.605 638.762 149.059 638.832 156.504C638.887 162.352 637.875 167.855 635.367 173.109C634.992 173.895 634.375 174.652 634.277 175.469C633.324 183.539 632.484 191.625 631.547 199.695C631.27 202.062 631.527 204.961 630.262 206.664C624.633 214.23 621.543 222.797 618.984 231.695C618.449 233.543 617.164 235.184 616.148 236.879C611.102 245.32 606.543 253.941 600.43 261.875C595.441 268.355 589.742 273.652 583.883 279.059C578.891 283.672 574.289 288.719 569.223 293.246C562.844 298.941 556.289 304.465 549.562 309.746C546.66 312.023 543.074 313.41 539.91 315.387C536.785 317.34 533.211 319.023 530.926 321.742C528.465 324.668 525.434 325.969 522.281 327.492C520.363 328.422 518.695 329.887 516.758 330.762C510.312 333.668 509.129 340.23 506.293 345.613C504.719 348.609 506.852 353.008 510.219 353.918C512.945 354.656 515.738 355.141 518.496 355.77C521.836 356.531 524.762 356.035 527.969 354.406C535.535 350.57 543.375 347.398 551.477 344.602C558.414 342.211 566.43 340.785 571.695 334.562C584.875 330.395 594.734 319.215 608.941 317.059C611.59 316.66 613.855 313.895 616.52 313.395C622.316 312.309 628.258 311.992 634.137 311.324C635.836 311.129 637.508 310.723 639.207 310.566C641.578 310.348 643.969 310.066 646.34 310.176C649.391 310.32 652.461 310.648 655.461 311.215C665.152 313.047 675.082 312.906 684.73 315.434C692.727 317.531 700.18 321.613 708.707 321.895C710.512 321.953 712.406 323.309 714.027 324.41C724.02 331.203 734.145 337.824 743.82 345.047C749.918 349.602 756.195 354.184 758.789 362.164C759.664 364.859 762.113 367.422 764.484 369.191C773.699 376.059 779.992 384.973 785.301 395.066C788.312 400.801 790.219 406.758 792.488 412.684C793.562 415.484 795.793 417.828 797.371 420.457C798.984 423.141 802.105 425.922 797.125 428.559C796.594 428.84 796.57 430.477 796.652 431.453C797.102 436.785 793.914 439.98 790.098 442.793C788.52 443.957 786.934 445.246 785.145 445.969C777.203 449.16 770.895 455.652 761.824 456.719C756.484 457.352 751.328 459.445 746.059 460.762C744.379 461.18 742.59 461.145 740.871 461.422C739.238 461.688 737.633 462.094 734.957 462.664C742.527 470.27 749.398 476.965 755.992 483.922C758.207 486.262 759.871 489.176 761.516 491.988C762.73 494.07 763.961 495.723 766.059 497.266C769.984 500.18 774.613 502.906 775.684 508.57Z" fill="#fbe4ea" fill-rule="nonzero" opacity="1" stroke="none"/>
</g>
</g>
</g>
</g>
<g opacity="1">
<clipPath clip-rule="nonzero" id="ClipPath_4">
<path d="M307 331L493 331L493 525L307 525L307 331Z"/>
</clipPath>
<g clip-path="url(#ClipPath_4)">
<clipPath clip-rule="nonzero" id="ClipPath_5">
<path d="M109.062-105.66L889.957 115.094L678.18 864.234L-102.715 643.48L109.062-105.66Z"/>
</clipPath>
<g clip-path="url(#ClipPath_5)"/>
</g>
</g>
</g>
</svg>
