<?xml version="1.0" encoding="UTF-8" standalone="no"?>
<!DOCTYPE svg PUBLIC "-//W3C//DTD SVG 1.1//EN" "http://www.w3.org/Graphics/SVG/1.1/DTD/svg11.dtd">
<!-- Created with Vectornator (http://vectornator.io/) -->
<svg height="100%" stroke-miterlimit="10" style="fill-rule:nonzero;clip-rule:evenodd;stroke-linecap:round;stroke-linejoin:round;" version="1.1" viewBox="0 0 1440 810" width="100%" xml:space="preserve" xmlns="http://www.w3.org/2000/svg" xmlns:vectornator="http://vectornator.io" xmlns:xlink="http://www.w3.org/1999/xlink">
<defs/>
<g id="Untitled" vectornator:layerName="Untitled">
<g opacity="1" vectornator:layerName="path">
<clipPath id="ClipPath">
<path d="M10 238L1365 238L1365 564L10 564L10 238Z"/>
</clipPath>
<g clip-path="url(#ClipPath)">
<clipPath id="ClipPath_2">
<path d="M742.629-532.414L1725.86 450.816L742.629 1434.05L-240.602 450.816L742.629-532.414Z"/>
</clipPath>
<g clip-path="url(#ClipPath_2)">
<clipPath id="ClipPath_3">
<path d="M742.629-532.414L1725.86 450.816L742.629 1434.05L-240.602 450.816L742.629-532.414Z"/>
</clipPath>
<g clip-path="url(#ClipPath_3)">
<path d="M1363.32 477.07C1355.25 471.34 1344.68 468.797 1335.05 467.16C1324.94 465.441 1314.79 463.961 1304.69 462.191C1294.59 460.422 1284.48 458.648 1274.36 456.965C1274.05 456.914 1273.74 456.902 1273.43 456.855C1296.27 447.109 1320.43 435.418 1337.76 418.266C1340.89 415.168 1336.98 409.422 1332.95 411.082C1319.95 416.445 1307.39 422.883 1294.21 427.848C1281.73 432.543 1269.04 435.648 1256.11 438.777C1244.02 441.707 1231.96 444.789 1219.89 447.844C1226.17 438.254 1230.86 427.754 1235.49 417.27C1241.11 404.523 1246.57 391.699 1252.07 378.898C1254.82 372.508 1263.72 351.098 1251.48 348.824C1248.91 348.348 1246.16 349.254 1244.46 351.258C1230.17 368.137 1223.24 391.035 1214.7 411.32C1210.58 421.074 1206.14 430.617 1201 439.875C1198.46 444.465 1195.59 448.891 1192.19 452.891C1191.55 453.641 1190.87 454.367 1190.19 455.094C1185.86 456.133 1181.55 457.262 1177.21 458.254C1151.77 464.062 1126.3 468.418 1100.09 467.449C1087.55 466.984 1074.93 465.348 1062.48 463.848C1057.31 463.223 1052.05 462.793 1046.81 462.277C1045.82 461.324 1044.59 460.5 1043.02 459.906C1023.35 452.48 1002.25 452.867 981.418 453.055C960.867 453.238 940.348 454.617 919.902 456.645C910.316 457.594 900.781 458.977 891.223 460.156C893.09 457.543 894.445 454.668 894.508 451.305C894.605 446.18 889.156 444.207 885.082 445.023C879.5 446.141 874.98 452.988 870.93 456.723C868.297 459.152 865.164 461.457 862.094 463.723C841.305 466.578 820.531 469.57 799.719 472.23C763.75 476.828 727.535 480.371 691.234 479.949C653.285 479.516 615.422 474.191 578.613 465.047C542.605 456.102 507.77 443.086 474.434 426.828C482.867 423.992 491.035 420.359 498.863 416.121C526.188 401.34 548.855 379.875 571.438 358.883C594.992 336.988 619.781 317.273 646.785 299.773C660.324 290.996 674.059 282.578 688.164 274.738C695.152 270.855 702.375 267.113 708.801 262.328C715.25 257.527 720.906 251.801 727.246 246.844C730.5 244.301 729.352 237.395 724.352 238.324C708.75 241.223 695.012 243.73 680.684 251.016C667.367 257.793 654.461 265.59 641.871 273.625C615.59 290.395 591.211 310.086 567.566 330.348C565.668 331.973 563.789 333.637 561.902 335.277C563.805 330.566 564.91 325.664 563.906 320.859C563.031 316.676 556.484 314.41 553.223 317.207C546.586 322.895 544.242 332.824 539.809 340.289C535.367 347.777 530.094 354.809 524.668 361.605C520.207 367.199 515.484 372.559 510.672 377.844C505.551 381.609 500.398 385.34 495.02 388.746C484.137 395.645 472.781 401.484 460.82 406.262C455.73 408.297 450.566 410.219 445.371 412.023C421.41 399.426 397.484 386.691 371.867 377.777C340.672 366.922 308.324 362.727 275.602 367.59C282.164 362.328 288.738 357.098 295.391 351.992C308.289 342.094 321.57 332.77 335.004 323.617C341.445 319.227 348 315.137 353.309 309.328C357.484 304.758 362.789 300.223 363.98 294.012C364.527 291.188 362.602 288.977 360.043 288.234C353.371 286.297 344.492 290.004 338.188 292.453C330.953 295.27 324.559 300.02 318.211 304.398C304.836 313.621 291.902 323.547 279.285 333.781C262.844 347.117 247.102 361.66 233.172 377.688C217.238 382.762 201.625 388.887 186.273 395.645C181.074 397.934 175.91 400.301 170.746 402.66C174.547 396.133 177.133 388.82 173.18 381.754C171.746 379.199 167.344 378.18 165.035 380.109C158.941 385.199 157.344 393.133 152.461 399.27C147.867 405.051 142.324 409.895 136.355 414.207C131.207 417.926 125.832 421.395 120.723 425.195C114.531 427.836 108.32 430.434 102.035 432.852C74.2812 443.531 45.1367 449.777 16.3711 456.973C6.94922 459.332 9.25391 472.836 17.6055 474.711C40.6484 479.883 63.6094 476.297 85.8398 469.609C91.0312 471.387 96.3047 472.988 101.387 474.988C109.801 478.297 118.113 481.852 126.598 484.977C144.25 491.484 161.93 497.844 179.406 504.82C197.465 512.023 215.082 520.23 233.02 527.707C241.52 531.25 249.926 534.758 258.758 537.387C266.188 539.602 274.172 543.191 281.266 538.836C283.199 537.648 284.203 535.316 284.086 533.113C283.617 524.395 274.387 519.152 267.941 514.402C260.129 508.648 251.281 504.082 242.562 499.855C225.066 491.379 206.805 484.434 188.5 477.934C169.715 471.258 150.469 465.004 130.992 460.699C126.609 459.727 122.211 458.965 117.801 458.246C149.34 445.699 179.59 430.18 210.973 417.262C238.027 406.121 266.191 396.73 295.609 395.117C313.844 394.117 331.504 396.77 348.664 401.59C349.441 402.301 350.297 402.949 351.047 403.684C357.625 410.105 364.312 416.395 370.934 422.793C375.391 427.105 379.207 431.746 383.137 436.332C383.777 438.16 384.34 440.016 384.797 441.898C384.93 442.441 385.047 442.992 385.176 443.543C385.18 443.562 385.18 443.543 385.184 443.562C385.199 443.668 385.188 443.629 385.215 443.793C385.27 444.152 385.547 445.609 385.668 446.23C385.754 446.715 385.91 447.625 385.934 447.762C386.672 452.527 386.734 457.438 386.539 462.254C386.527 462.469 386.512 462.707 386.5 462.832C386.43 463.613 386.328 464.391 386.246 465.172C386.133 466.285 386.012 467.395 385.871 468.504C385.52 471.312 385.41 473.379 385.973 475.941C385.934 476.148 385.91 476.359 385.859 476.566C385.082 480.434 390.359 483.141 392.91 479.984C393.176 479.645 393.449 479.316 393.73 478.992C397.605 476.277 399.66 471.871 401.004 467.281C401.559 465.391 401.891 463.473 402.199 461.547C402.918 462.645 403.73 463.613 404.441 464.727C414.312 480.164 424.023 495.699 431.734 512.355C439.34 528.781 445.473 545.57 454.66 561.223C457.328 565.77 465.906 564.469 466.281 558.875C467.633 538.68 462.301 519.945 454.156 501.555C446.094 483.34 436.68 465.375 424.023 449.895C415.637 439.633 406.352 429.883 396.793 420.473C429.293 436.121 460.441 454.309 493.859 468.062C529.375 482.676 566.465 493.848 604.238 500.82C677.18 514.277 749.863 508.844 822.82 498.848C858.812 493.914 894.754 488.414 930.953 485.176C948.91 483.57 966.93 482.527 984.961 482.406C1002.92 482.285 1020.96 484.699 1038.75 482.223C1040.23 482.016 1041.58 481.465 1042.83 480.746C1048.12 483.531 1053.54 486.098 1059.47 487.992C1072.33 492.098 1085.01 494.125 1098.47 494.973C1119.86 496.32 1141.08 494.461 1162 490.445C1162.93 490.676 1163.85 490.922 1164.76 491.199C1169.99 492.781 1175.79 495.672 1180.97 498.324C1186.76 501.297 1192.53 504.371 1198.61 506.727C1205.14 509.258 1215.21 513.281 1221.55 508.504C1225.47 505.559 1225.53 500.77 1222.28 497.34C1219.5 494.406 1215.2 493.91 1211.48 492.895C1208.71 492.141 1206.07 491.207 1203.43 490.078C1198.98 488.18 1194.68 485.961 1190.39 483.742C1210.91 478.445 1231.64 472.848 1251.55 465.52C1258.13 467.871 1264.7 470.234 1271.51 472.039C1281.42 474.672 1291.44 477.09 1301.47 479.223C1311.49 481.352 1321.54 483.504 1331.67 485.004C1341.39 486.438 1352.76 487.188 1362.07 483.406C1364.43 482.445 1365.79 478.824 1363.32 477.07Z" fill="#524956" fill-rule="nonzero" opacity="1" stroke="none" vectornator:layerName="path"/>
</g>
</g>
</g>
</g>
<g opacity="1" vectornator:layerName="path">
<clipPath id="ClipPath_4">
<path d="M197 67L1426 67L1426 706L197 706L197 67Z"/>
</clipPath>
<g clip-path="url(#ClipPath_4)">
<clipPath id="ClipPath_5">
<path d="M742.629-532.414L1725.86 450.816L742.629 1434.05L-240.602 450.816L742.629-532.414Z"/>
</clipPath>
<g clip-path="url(#ClipPath_5)">
<clipPath id="ClipPath_6">
<path d="M742.629-532.414L1725.86 450.816L742.629 1434.05L-240.602 450.816L742.629-532.414Z"/>
</clipPath>
<g clip-path="url(#ClipPath_6)">
<path d="M863.281 610.055C854.352 614.75 843.676 614.371 833.66 613.176C815.188 610.969 797.008 606.352 779.719 599.484C776.961 598.387 774.219 597.207 771.496 595.953C775.219 620.859 771.832 646.828 760.672 669.43C757.953 674.938 752.129 681.102 746.785 678.082C742.113 675.441 742.465 667.688 737.719 665.18C733.512 662.957 728.707 666.359 724.652 668.852C706.031 680.324 680.074 672.746 665.594 656.355C651.117 639.965 646.184 617.148 645.504 595.289C645.297 588.504 645.543 581.629 646.273 574.828C645.406 575.316 644.488 575.863 643.656 576.312C630.977 583.156 616.598 587.465 602.082 586.461C587.926 585.484 574.473 579.609 560.336 578.418C554.902 577.957 549.371 578.188 544.082 576.875C538.793 575.559 533.578 572.301 531.777 567.156C529.98 562.008 533.16 555.188 538.59 554.727C534.34 557.023 528.648 554.258 526.57 549.898C524.488 545.539 525.309 540.293 527.246 535.867C529.18 531.441 532.133 527.543 534.469 523.312C540.754 511.934 542.379 498.598 547.184 486.52C556.824 462.297 580.16 444.082 605.996 440.605C610.289 440.027 614.613 440.004 618.93 440.223C618.273 437.68 617.617 435.133 617.02 432.605C613.656 418.426 610.281 404.16 609.375 389.617C608.883 381.762 609.156 373.672 612.066 366.359C614.977 359.051 620.914 352.594 628.562 350.75C636.207 348.902 645.309 352.758 647.918 360.184C648.391 355.027 648.895 349.746 651.145 345.082C653.395 340.422 657.793 336.438 662.965 336.199C666.555 336.035 669.977 337.645 673.129 339.379C693.273 350.449 709.66 368.23 719.047 389.219C721.383 394.441 722.965 399.59 724.098 404.711C724.461 404.031 724.734 403.293 725.109 402.617C732.793 388.781 743.18 375.953 757.07 368.367C776.402 357.812 799.695 358.656 821.691 359.781C828.203 360.113 836.105 361.406 838.414 367.504C840.52 373.07 837.773 381.809 843.465 383.543C846.789 384.551 850.484 381.641 853.695 382.961C856.914 384.289 857.195 388.66 856.957 392.133C855.688 410.664 854.391 429.34 849.477 447.246C844.562 465.156 835.715 482.473 821.578 494.512C820.055 495.805 818.422 496.871 816.805 497.98C820.219 498.957 823.598 500.055 826.895 501.371C849.504 510.395 868.902 527.254 880.988 548.387C882.402 550.863 883.75 553.836 882.637 556.461C880.316 561.926 871.152 559.406 867.051 563.699C864.266 566.613 865.07 571.48 867.137 574.945C869.203 578.406 872.297 581.219 874.02 584.863C878.328 593.984 872.211 605.363 863.281 610.055ZM1106.17 492.695C1124.7 485.77 1141.81 473.117 1152.93 459.227C1155.99 455.406 1158.92 450.93 1158.54 446.055C1158.16 441.176 1152.71 436.652 1148.4 438.977C1156.11 435.766 1156.87 424.223 1151.87 417.535C1146.88 410.844 1138.46 407.84 1130.55 405.18C1114.89 399.926 1098.32 394.688 1082.13 396.168C1082.9 378.574 1078.16 360.719 1067.52 346.652C1065.54 344.043 1063.09 341.383 1059.84 340.969C1056.3 340.516 1052.91 343.023 1051.2 346.164C1049.49 349.305 1049.11 352.973 1048.75 356.531C1045.2 347.211 1031.7 345.023 1023.38 350.527C1015.07 356.035 1011.39 366.488 1010.54 376.426C1009.71 386.152 1011.2 395.832 1013.68 405.312C1001.9 399.438 988.645 396.602 976.445 397.773C968.141 398.57 958.238 403.051 958.223 411.395C958.219 414.105 959.258 417.156 957.617 419.316C954.898 422.895 949.199 419.535 944.77 420.277C938.289 421.359 937.168 430.281 938.625 436.684C943.453 457.852 959.441 476.141 979.773 483.746C983.043 484.969 986.758 485.891 990.695 486.535C983.652 494.062 978.156 503.023 973.762 512.395C968.152 524.348 964.41 539.531 972.535 549.938C978.258 548.949 983.977 547.961 989.695 546.977C989.406 551.141 989.133 555.441 990.512 559.379C991.891 563.316 995.379 566.832 999.551 566.887C1003.74 566.941 1007.14 563.715 1010.05 560.707C1019.32 551.121 1030.32 539.52 1038.75 526.715C1042.71 538.695 1049.98 549.512 1058.5 558.918C1063.17 564.074 1068.31 569 1074.57 572.02C1080.84 575.035 1088.45 575.918 1094.73 572.934C1101.02 569.953 1105.33 562.535 1103.48 555.832C1107.49 560.305 1115.33 559.242 1119.53 554.945C1123.73 550.648 1124.98 544.262 1125.07 538.254C1125.27 525.16 1117.57 507.051 1106.17 492.695ZM583.305 644.902C580.031 617.148 561.062 593.195 538.051 577.328C526.641 569.461 514.184 563.262 501.402 557.953C491.941 554.027 476.871 545.355 466.406 546.262C463.512 546.512 461.121 547.488 459.082 548.918C435.277 538.012 402.438 585.297 392.539 601.129C383.426 615.699 377.43 632.738 378.566 649.891C379.008 656.555 381.738 664.43 388.289 665.734C391.898 666.453 395.648 664.855 399.273 665.477C410.008 667.309 411.676 685.793 422.535 686.648C427.82 687.066 432.172 682.785 435.719 678.848C436.078 678.449 436.426 678.043 436.785 677.648C440.727 683.07 445.289 687.93 451.352 690.59C457.125 693.129 463.59 693.445 469.73 694.875C475.871 696.301 482.25 699.352 484.824 705.102C488.27 698.109 495.867 693.367 503.664 693.359C511.461 693.348 519.074 698.066 522.535 705.051C521.648 703.262 528.727 688.621 529.445 685.711C531.086 679.051 532.062 672.227 532.395 665.379C532.66 659.824 532.383 654.262 531.801 648.73C533.617 649.258 535.43 649.801 537.242 650.32C542.91 651.949 549.5 653.438 554.301 650.016C556.41 648.512 557.848 646.238 559.855 644.602C566.211 639.41 575.613 642.035 583.305 644.902ZM1218.04 324.344C1218.82 329.844 1220.29 335.18 1222.25 340.359C1225.36 348.555 1229.7 356.355 1234.43 363.754C1237.35 368.305 1240.79 373.031 1245.92 374.738C1250.34 376.207 1255.15 375.148 1259.68 374.082C1271.27 371.344 1283.05 368.535 1293.4 362.637C1317.02 349.168 1318.8 325.043 1314.87 300.73C1314.3 297.234 1313.17 293.066 1309.76 292.105C1307.45 291.453 1304.78 292.59 1302.68 291.434C1299.35 289.59 1300.82 284.629 1300.61 280.828C1300.37 276.559 1297.05 272.645 1292.88 271.715C1288.7 270.781 1284.03 272.914 1282 276.68C1282.84 270.309 1276.43 264.852 1270.03 264.25C1263.63 263.648 1257.46 266.465 1251.66 269.219C1239.91 274.777 1230.59 279.602 1223.99 290.969C1218.16 301 1216.42 312.93 1218.04 324.344ZM1415.19 415.254C1418.09 411.617 1421.12 407.609 1421.19 402.961C1421.25 398.852 1418.89 394.949 1420.48 391.008C1421.62 388.188 1425.73 387.832 1425.01 383.707C1423.76 376.566 1413.47 382.129 1411.68 376.367C1411.23 374.926 1411.86 373.371 1411.71 371.871C1411.36 368.395 1407.34 366.738 1403.98 365.805C1389.69 361.836 1373.75 358.016 1360.61 364.898C1352.35 369.23 1347.56 378.824 1341.94 386.047C1340.25 388.215 1338.57 390.383 1336.88 392.555C1331.98 398.852 1327.09 405.152 1322.19 411.453C1318.83 415.773 1315.32 421.52 1317.96 426.312C1319.68 429.43 1323.38 430.766 1326.77 431.852C1334.61 434.363 1342.45 436.871 1350.29 439.383C1358.89 442.137 1367.83 444.926 1376.79 443.848C1393.07 441.895 1404.98 428.082 1415.19 415.254ZM1414.58 493.391C1413.54 489.797 1411.04 486.836 1408.61 483.988C1401.86 476.078 1394.22 467.648 1383.94 466.043C1373.82 464.461 1345.2 472.008 1348.36 486.391C1351.77 501.816 1376.82 510.609 1390.34 510.391C1392.27 510.363 1394.28 510.195 1395.96 509.25C1397.33 508.484 1398.39 507.262 1399.75 506.473C1403.32 504.395 1408.2 505.715 1411.66 503.453C1414.79 501.406 1415.62 496.984 1414.58 493.391ZM371.027 576.93C366.98 567.215 362.699 557.297 357.504 548.078C361.168 543.133 364.402 537.773 369.98 535.531C373.848 533.977 378.195 534.258 382.246 533.297C386.301 532.332 390.516 529.262 390.332 525.102C390.18 521.559 386.902 518.949 383.613 517.621C380.324 516.293 376.684 515.699 373.77 513.676C370.855 511.656 368.977 507.406 371.051 504.531C372.773 502.141 376.453 501.688 377.918 499.129C380.184 495.16 375.316 490.953 371.117 489.145C355.992 482.629 339.512 479.473 323.062 479.5C308.344 479.527 293.621 482.09 279.766 487.059C269.195 490.848 253.902 496.457 247.895 507.02C225.191 521.426 207.992 544.398 201.008 570.387C193.355 598.859 197.992 630.418 213.512 655.484C214.469 657.035 216.07 658.777 217.773 658.137C219.145 657.621 219.52 655.91 220.246 654.637C222.859 650.035 229.883 651.352 234.426 654.066C238.969 656.781 244.094 660.438 249.031 658.535C252.699 657.125 254.594 653.164 256.137 649.551C257.648 646.004 259.164 642.457 260.676 638.914C264.762 642.02 269.367 644.418 274.359 645.672C281.609 647.492 290.625 646.477 294.539 640.113C295.738 638.164 296.582 635.645 298.746 634.898C302.762 633.504 306.586 639.672 310.578 638.203C312.969 637.324 313.613 634.309 313.898 631.777C315.133 620.754 316.367 609.738 317.602 598.719C322.883 599.48 328.184 600.105 333.5 600.52C338.598 600.91 343.996 601.086 348.523 598.715C353.059 596.344 356.188 590.539 353.906 585.961C357.355 587.367 360.977 588.801 364.684 588.441C368.391 588.086 372.148 585.293 372.238 581.57C372.273 579.961 371.645 578.418 371.027 576.93ZM772.219 312.176C795.738 321.16 822 323.055 846.488 317.078C850.07 316.207 854.395 314.148 854.184 310.465C853.84 304.438 841.859 303.406 843.191 297.512C844.004 293.926 849.566 292.996 850.207 289.371C850.879 285.586 845.918 283.68 842.176 282.793C835.965 281.316 830.16 278.664 824.742 275.289C822.301 273.77 819.973 272.051 817.684 270.281C840.133 263.992 859.41 248.508 873.109 229.566C869.852 228.211 866.5 226.785 864.055 224.246C861.609 221.703 860.297 217.719 861.867 214.562C863.492 211.301 867.621 209.797 869.047 206.449C870.258 203.602 869.074 200.191 866.961 197.93C866.801 197.754 866.633 197.586 866.461 197.422C864.406 195.457 861.758 194.211 859.172 193.008C840.445 184.301 821.004 175.395 800.227 173.262C804.844 153.973 803.953 133.664 800.82 114.027C799.707 107.09 798.266 99.9727 794.344 94.1445C786.621 82.6719 770.586 78.9922 757.234 82.6055C743.883 86.2188 732.906 95.7422 723.863 106.207C723.574 106.539 723.309 106.895 723.023 107.23C723.359 104.211 723.457 101.203 722.711 98.2734C721.426 93.2188 716.93 88.5234 711.734 89.0039C706.848 89.457 701.043 93.8555 697.918 90.0703C696.031 87.7891 697.215 84.418 697.383 81.4609C697.941 71.7734 685.621 65.4141 676.379 68.3711C667.137 71.332 661.074 80.0898 656.695 88.75C640.582 120.641 638.234 159.203 650.355 192.812C657.535 212.73 670.117 232.715 686.684 246.18C691.059 249.742 696.543 253.148 702.422 255.645C703.496 259.406 704.957 262.871 706.656 265.578C720.566 287.809 748.242 303.016 772.219 312.176ZM384.254 368.125C385.473 365.215 386.426 362.207 387.258 359.168C399.281 375.121 417.945 385.273 437.438 389.766C444.516 391.395 452.344 392.25 458.711 388.75C465.082 385.254 468.48 375.832 463.605 370.449C466.973 375.105 475.07 372.91 477.816 367.863C480.562 362.816 479.57 356.625 478.293 351.023C474.914 336.164 469.984 321.465 461.684 308.688C461.465 308.352 461.207 308.062 460.984 307.73C471.039 301.449 479.555 292.695 485.379 282.359C488.453 276.906 490.848 270.715 490.039 264.504C489.23 258.297 484.344 252.289 478.086 252.031C481.344 252.738 484.562 249.562 484.656 246.23C484.75 242.898 482.41 239.863 479.5 238.234C476.594 236.605 473.195 236.125 469.871 235.816C454.742 234.414 439.062 235.965 425.023 242.031C423.223 242.809 421.48 243.805 419.703 244.676C416.223 221.379 402.074 199.93 383.141 185.598C379.738 183.023 375.805 180.539 371.551 180.898C367.301 181.262 363.352 185.969 365.316 189.754C360.945 185.742 354.961 181.445 349.625 184.039C346.707 185.457 345.055 188.551 343.609 191.457C336.766 205.195 330.082 219.238 327.16 234.305C325.59 242.414 325.348 250.871 326.59 259.023C312.309 257.574 297.66 259.367 284.086 264.141C280.184 265.516 276.098 267.332 273.965 270.883C271.836 274.43 272.93 280.094 276.918 281.191C271.285 279.516 265.992 286.16 266.695 291.996C267.398 297.828 271.855 302.43 276.254 306.328C285.312 314.359 295.43 321.477 306.27 326.898C299.262 338.332 293.867 350.758 290.766 363.809C288.965 371.359 287.906 379.512 290.785 386.723C295.238 397.883 309.738 403.738 320.691 398.801C324.348 397.152 329.141 394.715 331.762 397.746C334.324 400.707 331.617 406.113 334.398 408.867C336.305 410.758 339.488 410.059 341.996 409.098C360.828 401.891 376.465 386.727 384.254 368.125Z" fill="#fbe4ea" fill-rule="nonzero" opacity="1" stroke="none" vectornator:layerName="path"/>
</g>
</g>
</g>
</g>
<g opacity="1" vectornator:layerName="path">
<clipPath id="ClipPath_7">
<path d="M292 126L1094 126L1094 704L292 704L292 126Z"/>
</clipPath>
<g clip-path="url(#ClipPath_7)">
<clipPath id="ClipPath_8">
<path d="M742.629-532.414L1725.86 450.816L742.629 1434.05L-240.602 450.816L742.629-532.414Z"/>
</clipPath>
<g clip-path="url(#ClipPath_8)">
<clipPath id="ClipPath_9">
<path d="M742.629-532.414L1725.86 450.816L742.629 1434.05L-240.602 450.816L742.629-532.414Z"/>
</clipPath>
<g clip-path="url(#ClipPath_9)">
<path d="M730.441 477.777C733.398 473.812 737.227 470.492 741.434 467.906C743.547 466.605 745.844 465.516 748.188 464.703C749.371 464.289 750.551 463.977 751.785 463.746C752.941 463.527 754.047 463.242 755.141 463.812C755.801 464.16 755.945 464.961 755.496 465.539C754.773 466.465 753.723 466.676 752.676 467.082C751.59 467.5 750.496 467.91 749.418 468.344C747.34 469.18 745.332 470.137 743.371 471.215C739.34 473.441 735.785 476.34 732.602 479.656C731.316 481 729.348 479.246 730.441 477.777ZM768.02 502.656C767.008 502.008 765.773 501.898 764.617 501.691C763.285 501.449 761.992 501.309 760.645 501.234C758.168 501.094 755.699 501 753.219 500.941C748.281 500.832 743.352 500.793 738.41 500.801C736.23 500.805 735.973 504.441 738.184 504.648C743.172 505.121 748.156 505.539 753.156 505.887C755.691 506.062 758.227 506.207 760.77 506.293C761.98 506.336 763.145 506.297 764.352 506.195C765.719 506.074 766.973 506.016 768.211 505.375C769.398 504.762 768.898 503.219 768.02 502.656ZM700.875 463.129C699.469 469.215 698.059 475.301 696.652 481.387C696.312 482.852 698.539 483.242 698.93 481.816C700.59 475.781 702.25 469.738 703.91 463.703C704.727 460.734 705.594 457.777 706.418 454.809C707.133 452.242 708.305 448.816 707.504 446.184C707.297 445.512 706.473 445.449 706.023 445.891C704.082 447.816 703.477 451.566 702.887 454.145C702.203 457.137 701.566 460.137 700.875 463.129ZM728.094 511.809C723.691 509.711 719.121 508.008 714.445 506.641C712.723 506.141 711.727 509.09 713.453 509.66C717.941 511.145 722.301 512.969 726.492 515.152C728.547 516.223 730.598 517.316 732.598 518.488C734.543 519.633 736.656 520.789 738.832 521.406C739.59 521.617 740.176 520.625 739.754 520.016C737.094 516.211 732.184 513.758 728.094 511.809ZM726.863 455.031C727.191 451.805 727.68 447.285 726.148 444.316C725.797 443.633 724.832 443.871 724.523 444.43C723.762 445.805 723.668 447.539 723.375 449.066C723.023 450.883 722.73 452.703 722.438 454.527C721.863 458.09 721.16 461.598 720.27 465.094C718.5 472.043 715.879 478.973 712.5 485.297C711.773 486.656 713.938 488.148 714.816 486.82C719.082 480.359 722.363 473.672 724.578 466.242C725.66 462.609 726.48 458.805 726.863 455.031ZM738.973 489.625C743.051 489.25 747.125 488.891 751.203 488.535C755.344 488.176 759.695 488.035 763.711 486.926C764.949 486.586 764.711 484.762 763.543 484.527C759 483.609 754.02 484.016 749.418 484.293C744.586 484.582 739.773 484.996 734.965 485.555C730.516 486.066 725.863 486.379 721.527 487.527C717.633 488.562 714.086 491.141 713.684 495.426C713.516 497.207 715.965 497.703 716.43 495.945C717.527 491.809 722.938 491.43 726.406 490.996C730.586 490.469 734.777 490.012 738.973 489.625ZM1080.03 465.398C1081.05 465.363 1081.35 463.836 1080.4 463.422C1076.89 461.895 1072.72 461.547 1068.93 461.281C1064.86 461 1060.72 461.43 1056.72 462.18C1050.09 463.426 1043.98 466.086 1038.26 469.555C1038.55 468.957 1038.89 468.383 1039.16 467.773C1039.45 467.82 1039.77 467.805 1040.1 467.586C1047.51 462.699 1055.39 458.348 1063.42 454.586C1067.28 452.781 1071.23 451.152 1075.2 449.621C1079.2 448.074 1083.52 446.746 1087.24 444.621C1088.12 444.121 1087.52 442.906 1086.66 442.906C1082.4 442.895 1077.86 444.289 1073.85 445.641C1069.55 447.102 1065.36 448.871 1061.27 450.832C1053.87 454.375 1047.12 458.785 1040.68 463.801C1041.12 462.246 1041.4 460.645 1041.61 459.031C1041.89 460.383 1043.81 460.363 1044.48 459.285C1045.82 457.121 1046.57 454.676 1047.4 452.285C1048.26 449.844 1049.02 447.371 1049.8 444.906C1050.57 442.465 1051.38 440.031 1052.07 437.57C1052.77 435.102 1053.47 432.719 1053.33 430.133C1053.25 428.668 1051.14 427.812 1050.2 429.082C1048.62 431.211 1047.9 433.574 1047.11 436.074C1046.3 438.598 1045.6 441.148 1044.89 443.695C1043.69 447.945 1042.27 452.398 1041.8 456.848C1041.9 455.582 1042.01 454.312 1042 453.051C1041.97 449.434 1041.45 445.969 1040.43 442.504C1039.94 440.824 1039.17 439.305 1038.42 437.734C1037.65 436.125 1036.93 434.246 1035.24 433.418C1034.36 432.992 1033.44 433.562 1033.21 434.441C1032.8 436.043 1033.55 437.715 1033.93 439.254C1034.28 440.688 1034.43 442.195 1034.68 443.656C1035.22 446.801 1035.55 450.086 1035.64 453.277C1035.73 456.328 1035.51 459.355 1035.14 462.379C1034.73 465.629 1034.42 468.922 1033.37 472.043C1032.93 473.352 1033.94 474.285 1034.96 474.246C1035.35 474.395 1035.79 474.418 1036.26 474.152C1042.83 470.453 1050.16 467.848 1057.56 466.461C1061.25 465.77 1064.96 465.492 1068.69 465.277C1072.49 465.055 1076.24 465.527 1080.03 465.398ZM1093 479.242C1091.57 478.453 1089.83 478.176 1088.25 477.789C1086.67 477.402 1085.08 477.121 1083.47 476.867C1080.09 476.344 1076.66 476.059 1073.24 475.922C1066.46 475.648 1059.71 476.059 1052.99 477C1051.16 477.258 1051.31 480.004 1053.19 479.891C1059.78 479.492 1066.42 479.523 1073 479.965C1076.25 480.184 1079.48 480.488 1082.72 480.82C1084.34 480.984 1085.96 481.176 1087.59 481.324C1089.21 481.473 1090.91 481.848 1092.54 481.672C1093.84 481.531 1094.12 479.859 1093 479.242ZM794.727 152.086C796.238 148.281 797.289 144.34 798.266 140.375C799.25 136.363 800.223 132.047 800.051 127.895C800 126.594 798.172 126.309 797.625 127.43C795.855 131.027 794.766 135.008 793.352 138.762C791.914 142.582 790.184 146.297 788.605 150.059C787.016 153.844 785.332 157.578 783.547 161.273C781.844 164.801 779.812 168.363 778.629 172.098C778.023 174.004 780.59 174.582 781.707 173.59C784.848 170.82 787.266 166.742 789.32 163.129C791.34 159.57 793.211 155.887 794.727 152.086ZM815.492 163.516C818.77 160.715 822.547 157.664 824.867 154.004C825.703 152.691 824.027 151.02 822.68 151.535C818.73 153.059 815.004 156.164 811.715 158.777C807.969 161.75 804.316 164.836 800.648 167.902C793.676 173.73 785.844 179.395 780.148 186.535C778.945 188.043 780.684 189.805 782.289 188.969C790.504 184.711 797.645 178.051 804.816 172.27C808.398 169.383 811.996 166.508 815.492 163.516ZM824.707 190.094C820.301 189.43 815.848 189.129 811.398 188.988C806.949 188.852 802.477 188.961 798.035 189.242C795.762 189.387 793.461 189.586 791.211 189.961C789.16 190.309 786.855 190.504 785.062 191.613C783.805 192.395 784.43 194.062 785.633 194.43C787.562 195.02 789.879 194.672 791.879 194.613C794.047 194.547 796.219 194.418 798.391 194.332C802.738 194.16 807.078 194.172 811.426 194.316C815.664 194.461 819.883 194.773 824.109 195.09C828.406 195.41 832.91 196.273 837.207 195.949C838.59 195.844 838.941 193.938 837.711 193.328C833.801 191.383 828.992 190.742 824.707 190.094ZM377.762 301.211C379.945 300.059 382.152 298.934 384.289 297.691C390.805 298.012 397.398 299.066 403.652 300.883C406.871 301.82 410.016 302.973 413.094 304.301C414.648 304.969 416.188 305.668 417.773 306.262C419.305 306.828 420.754 307.613 422.406 307.168C423.191 306.957 423.484 306.066 423.305 305.355C422.883 303.719 421.25 302.805 419.934 301.914C418.43 300.895 416.797 300.074 415.137 299.355C411.738 297.887 408.199 296.703 404.609 295.82C399.496 294.562 394.312 294.172 389.102 294.188C389.766 293.637 390.508 293.184 391.156 292.617C393.184 290.836 395.18 288.914 396.758 286.723C398.102 284.863 400.438 282.34 400.234 279.895C400.176 279.172 399.457 278.379 398.672 278.531C396.309 278.984 394.57 281.312 392.879 282.891C391.004 284.648 389.184 286.473 387.344 288.273C385.516 290.059 383.578 291.723 381.727 293.484C379.879 295.242 377.996 296.941 375.914 298.426C374.129 299.699 375.891 302.199 377.762 301.211ZM406.375 329.285C405.523 328.281 404.535 327.375 403.547 326.516C401.508 324.742 399.402 323.02 397.211 321.434C392.871 318.285 388.336 315.406 383.641 312.812C382.047 311.926 380.938 314.398 382.434 315.332C386.91 318.125 391.191 321.203 395.289 324.527C397.242 326.109 399.18 327.703 401.07 329.359C402.086 330.254 403.113 331.145 404.215 331.93C405.137 332.586 405.902 333.273 407.074 333.258C407.633 333.25 408.02 332.703 408.008 332.188C407.977 331.004 407.109 330.145 406.375 329.285ZM378.387 264.512C378.461 262.762 378.477 261.012 378.23 259.277C377.988 257.559 378.094 255.781 377.086 254.293C376.648 253.648 375.449 253.402 374.949 254.152C374.051 255.512 373.992 256.867 373.715 258.434C373.406 260.16 373.121 261.863 372.914 263.605C372.504 267.004 372.172 270.406 371.691 273.801C370.734 280.523 369.473 287.309 367.535 293.824C367.016 295.566 369.836 296.461 370.555 294.812C373.379 288.332 375.703 281.762 377.078 274.816C377.75 271.434 378.238 267.961 378.387 264.512ZM354.855 278.453C353.84 276.465 352.727 274.547 351.41 272.738C350.176 271.027 348.637 269.008 346.711 268.07C346.148 267.797 345.332 268.258 345.441 268.93C345.762 270.91 346.93 272.812 347.879 274.562C348.941 276.523 350.082 278.441 351.16 280.395C353.273 284.227 355.203 288.105 356.781 292.195C357.531 294.141 360.453 293.156 359.848 291.156C358.539 286.805 356.934 282.5 354.855 278.453ZM368.516 316.516C369.113 312.457 368.84 308.344 368.02 304.336C367.727 302.918 365.348 303.406 365.531 304.836C366.008 308.582 365.852 312.328 365.258 316.055C364.969 317.867 364.59 319.68 364.113 321.453C363.621 323.289 362.922 325.105 362.609 326.977C362.477 327.797 363.477 328.246 364.031 327.668C365.41 326.234 366.312 324.258 366.996 322.395C367.691 320.484 368.215 318.531 368.516 316.516ZM320.98 586.605C323.801 587.934 326.547 589.398 329.289 590.875C331.844 592.258 334.723 594.422 337.746 594.219C338.676 594.16 339.391 593.164 339.051 592.266C337.895 589.203 334.316 587.512 331.637 585.98C328.844 584.387 325.926 582.984 322.988 581.668C320.039 580.34 317.043 579.172 313.977 578.145C310.754 577.062 307.633 576.117 304.227 576.113C303.516 576.113 303.227 576.598 303.094 577.109C301.512 576.148 300.062 575.047 298.348 574.219C296.676 573.41 294.969 575.824 296.512 577.012C301.859 581.129 306.797 586.246 310.969 591.539C313.109 594.262 314.898 597.188 316.773 600.09C317.645 601.434 318.5 602.777 319.352 604.133C320.258 605.582 320.91 607.316 322.359 608.301C323.34 608.969 324.52 608.629 324.848 607.438C325.309 605.766 324.684 604.121 324.199 602.512C323.672 600.766 323.043 599.051 322.258 597.398C320.621 593.938 318.391 590.766 315.957 587.816C314.047 585.5 311.879 583.617 309.688 581.758C310.602 582.121 311.512 582.488 312.43 582.859C315.309 584.031 318.168 585.281 320.98 586.605ZM301.148 610.234C300.637 608.117 299.961 606.055 299.297 603.977C297.934 599.703 296.367 595.488 294.902 591.246C294.301 589.496 291.789 590.406 292.223 592.152C293.297 596.449 294.266 600.781 295.438 605.055C296.012 607.152 296.555 609.258 297.277 611.312C297.996 613.344 298.699 615.648 300.074 617.316C300.617 617.977 301.934 617.957 302.055 616.914C302.305 614.707 301.672 612.387 301.148 610.234ZM311.609 567.555C316.434 568.734 321.246 570.023 326.102 571.074C328.484 571.594 330.867 572.148 333.258 572.613C335.594 573.066 338.25 573.621 340.625 573.457C341.926 573.367 342.199 571.613 341.086 571.031C338.984 569.93 336.285 569.379 333.969 568.863C331.586 568.332 329.188 567.887 326.793 567.406C321.93 566.43 317.012 565.684 312.121 564.84C310.363 564.535 309.891 567.133 311.609 567.555ZM471.891 689.547C472.367 687.043 472.535 684.348 472.449 681.801C472.371 679.34 472.125 676.895 471.648 674.477C471.391 673.164 471.117 671.859 470.715 670.582C470.328 669.355 469.68 668.316 469.117 667.18C469.629 665.41 470.18 663.652 470.582 661.844C470.988 660 468.051 658.949 467.367 660.789C465.414 666.082 462.945 671.219 460.211 676.148C458.859 678.59 457.445 680.984 456.039 683.391C455.363 684.543 454.789 685.738 454.156 686.914C453.48 688.16 452.809 689.285 452.742 690.727C452.703 691.621 453.758 692.121 454.496 691.895C455.871 691.469 456.84 690.332 457.789 689.301C458.703 688.312 459.602 687.34 460.383 686.242C462.125 683.789 463.672 681.148 464.98 678.434C465.66 677.027 466.152 675.551 466.727 674.105C466.742 674.402 466.77 674.695 466.777 674.988C466.852 677.195 466.867 679.57 466.707 681.633C466.539 683.832 466.305 686.09 466.035 688.441C465.871 689.82 465.723 691.031 465.738 692.379C465.754 693.508 465.484 694.797 465.938 695.91C466.34 696.895 467.594 697.512 468.547 696.805C469.688 695.957 470.074 694.707 470.676 693.484C471.289 692.238 471.625 690.953 471.891 689.547ZM497.531 692.371C496.414 688.66 494.734 685.125 492.945 681.695C489.426 674.965 484.551 669.258 478.91 664.238C477.551 663.023 475.293 664.891 476.445 666.398C480.715 671.973 484.328 678.195 487.383 684.512C488.891 687.633 490.133 690.871 491.336 694.121C491.945 695.762 492.598 697.383 493.289 698.988C493.941 700.488 494.656 702.273 495.984 703.289C496.723 703.852 497.688 703.664 498.137 702.844C499.73 699.945 498.418 695.328 497.531 692.371ZM503.172 668.719C500.812 665.766 498.312 662.941 495.773 660.141C494.574 658.812 492.457 660.766 493.438 662.191C495.523 665.234 497.641 668.234 499.91 671.141C501.051 672.598 502.27 673.988 503.477 675.391C504.723 676.836 505.852 678.172 507.398 679.293C508.301 679.941 509.875 679.203 509.371 677.973C509 677.074 508.648 676.188 508.094 675.387C507.613 674.684 507.098 674.008 506.602 673.32C505.48 671.77 504.367 670.215 503.172 668.719Z" fill="#524956" fill-rule="nonzero" opacity="1" stroke="none" vectornator:layerName="path"/>
</g>
</g>
</g>
</g>
<g opacity="1" vectornator:layerName="path">
<clipPath id="ClipPath_10">
<path d="M239 89L1411 89L1411 685L239 685L239 89Z"/>
</clipPath>
<g clip-path="url(#ClipPath_10)">
<clipPath id="ClipPath_11">
<path d="M742.629-532.414L1725.86 450.816L742.629 1434.05L-240.602 450.816L742.629-532.414Z"/>
</clipPath>
<g clip-path="url(#ClipPath_11)">
<clipPath id="ClipPath_12">
<path d="M742.629-532.414L1725.86 450.816L742.629 1434.05L-240.602 450.816L742.629-532.414Z"/>
</clipPath>
<g clip-path="url(#ClipPath_12)">
<path d="M369.164 524.699C366.551 530.68 362.238 535.496 356.496 538.645C353.812 540.113 350.93 541.219 347.934 541.859C344.605 542.57 340.902 542.312 337.848 544C334.621 545.781 332.352 548.926 329.246 550.906C326.707 552.527 323.832 553.719 320.91 554.438C315.242 555.832 307.793 556.43 302.102 554.879C301.258 554.652 300.973 553.301 301.973 553.039C304.742 552.312 307.617 552.359 310.453 552.086C313.703 551.77 316.898 551.184 320.035 550.262C322.926 549.414 325.645 548.203 328.062 546.383C330.598 544.48 332.68 541.977 335.453 540.391C340.66 537.41 347.059 538.543 352.59 536.477C358.773 534.172 364.117 529.531 367.531 523.918C368.133 522.938 369.637 523.617 369.164 524.699ZM274.449 613.508C277.258 607.617 274.176 602.184 273.125 596.316C271.73 588.508 274.355 580.504 279.695 574.73C280.441 573.922 279.211 572.93 278.434 573.633C273.906 577.742 270.855 583.137 269.895 589.203C269.438 592.094 269.457 595.035 269.98 597.918C270.547 601.031 271.781 604.117 271.676 607.324C271.555 611.238 268.562 613.867 266.312 616.746C263.738 620.043 261.777 623.777 259.168 627.043C253.832 633.715 245.934 637.18 240.211 643.281C239.613 643.91 240.359 644.727 241.07 644.562C248.391 642.93 255.887 637.828 260.996 632.461C263.707 629.613 265.703 626.316 267.812 623.027C269.883 619.797 272.793 616.988 274.449 613.508ZM305.922 618.719C303.703 625.68 297.367 630.578 290.59 632.707C287.355 633.719 283.984 634.164 280.605 634.324C278.883 634.406 277.156 634.41 275.438 634.52C273.789 634.629 271.945 634.598 270.402 635.234C269.664 635.535 269.586 636.52 270.301 636.902C271.871 637.754 273.918 637.871 275.68 637.996C277.719 638.137 279.734 638.062 281.766 637.867C285.609 637.496 289.473 636.727 293.066 635.297C300.227 632.449 306.379 626.848 308.066 619.125C308.375 617.719 306.336 617.418 305.922 618.719ZM355.441 575.406C356.527 571.242 355.91 566.641 354.059 562.785C353.535 561.691 351.773 562.203 352.219 563.41C353.547 567.016 353.59 570.84 352.527 574.527C351.957 576.492 350.961 578.301 349.727 579.918C348.406 581.645 346.691 583.047 345.512 584.863C345.125 585.457 345.781 586.363 346.457 586.25C348.844 585.852 350.824 584 352.246 582.113C353.742 580.121 354.812 577.809 355.441 575.406ZM551.77 640.16C554.906 639.25 558.934 638.211 561.324 635.879C561.754 635.457 561.332 634.605 560.734 634.695C557.445 635.191 554.277 637.121 551.059 638.059C547.434 639.117 543.695 639.719 539.926 639.941C536.145 640.164 532.371 639.965 528.629 639.406C525.023 638.863 521.363 638.066 517.695 638.371C510.637 638.957 504.469 642.754 497.223 642.715C489.844 642.676 482.445 639.875 476.586 635.438C476.566 635.422 476.555 635.457 476.535 635.441C476.668 634.156 477.109 632.922 477.121 631.605C477.164 626.734 477.027 621.707 480.859 618.109C481.473 617.531 480.547 616.48 479.879 616.992C474.934 620.762 474.809 626.379 474.375 632.109C473.758 640.215 469.953 647.273 463.922 652.684C457.832 658.148 450.602 660.461 443.227 663.555C440.344 664.762 437.871 666.344 435.703 668.602C432.414 672.023 429.59 675.82 424.598 676.691C423.219 676.93 423.293 678.984 424.75 678.902C432.293 678.473 436.699 671.129 443.27 668.207C450.523 664.977 457.742 662.785 464.055 657.715C469.203 653.578 473.387 648.309 475.531 642.008C475.934 640.824 475.848 639.578 476.086 638.383C481.074 643.031 487.312 645.852 494.156 646.523C497.492 646.852 500.836 646.75 504.121 646.062C508.191 645.215 511.797 643.207 515.754 642.012C520.262 640.652 524.641 641.621 529.195 642.145C532.98 642.578 536.801 642.648 540.598 642.301C544.371 641.957 548.129 641.215 551.77 640.16ZM528.836 650.383C528.887 649.34 527.156 649.246 527.012 650.273C526.137 656.559 524.871 663.254 521.828 668.898C520.184 671.949 517.836 674.375 515.258 676.648C514 677.762 512.727 678.863 511.457 679.965C510.262 681.008 508.703 681.926 508.004 683.383C507.637 684.148 508.258 684.883 509.031 684.895C510.691 684.918 512.473 683.766 513.895 682.996C515.555 682.105 517.137 681.121 518.586 679.906C521.48 677.48 523.848 674.406 525.438 670.977C528.469 664.438 528.496 657.43 528.836 650.383ZM570.305 485.945C580.379 472.82 593.59 462.387 607.711 453.906C621.305 445.746 632.711 448.5 646.082 455.16C655.152 459.676 664.195 464.434 674.621 463.418C675.781 463.305 675.66 461.562 674.496 461.617C660.605 462.238 649.336 453.059 636.922 448.355C624.77 443.75 614.016 446.102 602.887 452.465C577.094 467.219 549.559 495.613 549.793 527.453C549.805 528.992 552.062 529.004 552.391 527.605C556.012 512.324 560.613 498.57 570.305 485.945ZM759.102 562.809C759.5 561.656 757.84 560.789 757.352 561.969C751.324 576.387 756.82 591.34 756.816 606.223C756.816 615.945 753.441 624.352 747.098 631.68C743.832 635.449 740.078 638.719 736.18 641.809C733.148 644.207 729.488 646.582 727.379 649.855C726.738 650.855 727.992 651.789 728.902 651.574C732.938 650.609 736.781 647.375 739.969 644.82C743.402 642.07 746.723 639.125 749.684 635.863C755.57 629.367 759.672 621.41 760.59 612.629C762.316 596.074 753.5 579.008 759.102 562.809ZM657.34 602.578C656.301 595.484 655.984 588.18 656.508 581.031C657.547 566.82 661.875 552.742 669.043 540.43C669.547 539.562 668.125 538.605 667.543 539.449C659.02 551.762 653.863 565.848 652.363 580.754C651.621 588.148 651.727 595.543 652.859 602.891C653.934 609.832 655.688 617.828 659.785 623.668C660.375 624.516 662 624.133 661.812 622.98C660.695 616.117 658.355 609.5 657.34 602.578ZM847.504 539.172C850.949 545.141 851.672 551.375 852.438 558.094C852.547 559.051 854.012 559.496 854.414 558.469C859.23 546.223 848.738 532.559 839.75 525.359C826.156 514.477 808.867 509.387 795.695 497.91C794.766 497.102 793.555 498.508 794.445 499.348C805.684 509.977 820.258 515.23 832.785 523.98C838.605 528.047 843.922 532.977 847.504 539.172ZM836.551 591.773C829.09 593.883 821.258 594.645 813.512 594.508C809.734 594.445 805.938 594.09 802.199 593.512C798.324 592.918 794.516 591.73 790.617 591.34C789.395 591.215 788.887 592.73 789.957 593.363C793.395 595.398 797.656 596.238 801.551 596.926C805.496 597.625 809.473 597.949 813.473 597.977C821.602 598.031 829.586 596.504 837.293 593.969C838.723 593.5 837.977 591.371 836.551 591.773ZM728.723 418.301C738.844 403.91 752.164 391.91 767.5 383.285C775.211 378.949 783.43 375.527 791.938 373.094C800.309 370.699 809.195 370.652 817.469 368.277C818.223 368.062 818.098 366.938 817.367 366.801C809.277 365.273 799.52 367.973 791.73 370.152C782.973 372.602 774.516 376.117 766.562 380.527C750.582 389.391 737.137 401.977 727.254 417.336C726.719 418.168 728.148 419.117 728.723 418.301ZM833.402 440.895C831.043 445.98 827.965 450.746 824.289 454.988C820.52 459.336 816.039 462.785 811.762 466.594C811.082 467.199 811.941 468.348 812.734 468.043C823.723 463.781 831.902 452.277 836.359 441.805C841.098 430.672 842.43 418.469 839.887 406.625C839.656 405.559 837.809 405.918 837.996 407.004C839.992 418.461 838.293 430.355 833.402 440.895ZM706.473 393.992C710.078 400.047 712.879 406.453 715.129 413.125C717.316 419.625 718.047 426.957 720.746 433.207C721.227 434.309 722.895 434.328 723.148 433.039C724.473 426.43 722.062 418.391 719.969 412.141C717.629 405.156 714.23 398.414 710.289 392.199C702.34 379.668 691.742 369.402 678.926 361.934C678.059 361.43 677.105 362.848 677.945 363.43C689.441 371.422 699.305 381.965 706.473 393.992ZM1025.72 413.922C1024.91 411.18 1024.07 408.453 1023.32 405.695C1021.77 399.984 1020.51 394.188 1019.93 388.289C1018.91 377.836 1019.73 367.008 1024.35 357.441C1024.77 356.582 1023.51 356.012 1023.03 356.809C1017.5 366.129 1015.59 377.055 1016.31 387.781C1016.71 393.691 1017.79 399.543 1019.17 405.297C1019.9 408.352 1020.7 411.398 1021.61 414.402C1021.74 414.816 1021.89 415.246 1022.02 415.668C1016.01 410.324 1008.86 406.516 1001.09 404.434C993.566 402.418 984.164 401.293 976.734 404.238C975.949 404.551 976.207 405.613 977.012 405.633C980.949 405.734 984.871 405.301 988.82 405.609C992.664 405.914 996.457 406.438 1000.19 407.426C1007.8 409.441 1014.95 413.109 1021.16 417.934C1021.72 418.363 1022.31 418.16 1022.7 417.789C1023.29 419.516 1023.98 421.199 1025.07 422.613C1025.85 423.617 1027.22 423.059 1027.28 421.859C1027.42 419.168 1026.47 416.48 1025.72 413.922ZM987.719 498.055C992.469 489.488 999.184 482.121 1007.26 476.59C1008.17 475.969 1007.25 474.598 1006.32 475.172C997.66 480.457 990.445 487.695 985.078 496.297C979.984 504.457 975.438 515.121 976.809 524.957C976.953 526.004 978.309 526.047 978.598 525.062C979.945 520.484 980.801 515.785 982.211 511.207C983.613 506.637 985.398 502.242 987.719 498.055ZM1041.58 507.402C1042.45 506.438 1040.95 505.152 1040.06 506.082C1036.46 509.832 1032.87 513.578 1029.28 517.328C1025.85 520.906 1021.89 524.496 1019.34 528.781C1018.95 529.445 1019.87 530.164 1020.46 529.754C1024.55 526.902 1027.85 522.652 1031.16 518.969L1041.58 507.402ZM1103.3 540.34C1106.27 537.633 1108.18 534.918 1108.79 530.883C1111.04 515.793 1105.42 499.641 1095.72 488.156C1095 487.305 1093.54 488.219 1094.24 489.137C1102.21 499.527 1106.51 512.449 1106.14 525.555C1106.04 529.312 1105.73 533.148 1103.12 536.066C1100.66 538.812 1097.82 540.645 1095.71 543.758C1093.64 546.828 1091.98 550.461 1088.94 552.727C1086.01 554.91 1083.6 554.715 1080.25 554.336C1079.53 554.258 1078.92 555.016 1079.36 555.672C1080.84 557.883 1084 558.062 1086.39 557.492C1089.78 556.684 1092.51 554.27 1094.54 551.531C1097.44 547.621 1099.65 543.664 1103.3 540.34ZM1095.71 405.855C1090.89 404.523 1085.98 403.496 1081.02 402.832C1076.6 402.238 1070.46 401 1066.22 402.812C1065.38 403.172 1065.13 404.48 1066.1 404.895C1070.17 406.633 1075.5 406.07 1079.87 406.555C1084.84 407.109 1089.77 407.941 1094.64 409.125C1104.44 411.508 1113.77 414.953 1122.64 419.773C1123.77 420.387 1124.57 418.637 1123.49 417.988C1114.84 412.793 1105.45 408.539 1095.71 405.855ZM1067.18 374.723C1065.78 369.672 1062.8 365.055 1058.93 361.547C1057.91 360.621 1056.61 362.176 1057.55 363.141C1060.93 366.633 1063.12 370.996 1064.33 375.688C1064.91 377.941 1065.14 380.27 1065.19 382.598C1065.23 385.031 1064.77 387.41 1064.79 389.832C1064.8 390.891 1066.18 390.941 1066.64 390.184C1068 387.926 1068.23 385.156 1068.27 382.559C1068.32 379.918 1067.89 377.262 1067.18 374.723ZM809.215 273.305C810.262 273.812 811.031 272.207 809.996 271.676C800.973 267.016 793.496 260.352 786.531 253.035C796.727 255.566 808.562 252.016 817.5 247.492C828.012 242.168 836.738 234.125 842.707 223.957C843.258 223.023 841.738 222.008 841.098 222.902C834.746 231.77 826.004 239.055 816.082 243.613C811.297 245.809 806.199 247.312 801.062 248.434C795.645 249.613 790.141 249.691 784.723 250.684C784.629 250.699 784.609 250.828 784.523 250.871C774.98 240.543 766.238 229.176 755.676 220.121C755.805 219.953 755.965 219.828 756.016 219.57C757.926 210.129 755.688 200.562 753.125 191.469C750 180.367 746.242 169.414 742.656 158.449C738.688 146.297 735.059 132.383 728.141 121.055C728.305 121.008 728.426 121.219 728.59 121.078C731.113 118.938 733.008 116.043 735.148 113.527C737.238 111.074 739.461 108.738 741.797 106.523C746.438 102.109 751.684 97.2969 757.566 94.5859C763.109 92.0312 768.914 92.4414 774.277 95.2305C779.457 97.9258 783.426 102.145 787.895 105.793C788.621 106.387 789.816 105.461 789.188 104.656C781.949 95.3828 770.672 87.0312 758.395 90.7539C751.855 92.7344 746.27 97.0156 741.211 101.469C738.414 103.93 735.809 106.602 733.363 109.414C730.934 112.215 728.059 115.449 726.734 118.988C723.078 113.527 718.645 108.703 712.77 105.215C711.84 104.664 710.793 106.219 711.711 106.824C729.445 118.535 733.129 142.941 738.902 161.863C741.812 171.41 744.91 180.914 747.602 190.523C750.117 199.504 751.457 208.617 752.914 217.789C734.309 202.84 712.199 190.211 689.766 182.152C688.27 181.613 687.363 183.523 688.703 184.363C710.93 198.309 735.32 207.941 755.539 225.121C773.938 240.75 786.953 262.539 809.215 273.305ZM343.078 299.637C339.934 299.758 336.82 301.395 334.051 302.781C331.168 304.23 328.441 305.902 325.844 307.824C320.539 311.758 316.02 316.512 312.234 321.922C311.414 323.102 313.027 324.594 313.961 323.422C317.867 318.496 322.488 314.129 327.586 310.445C330.012 308.695 332.559 307.086 335.172 305.625C337.902 304.105 341.105 303.051 343.598 301.168C344.258 300.668 343.938 299.605 343.078 299.637ZM389.676 330.883C389.754 329.543 387.73 329.078 387.566 330.484C385.957 344.18 380.746 357.473 372.688 368.668C368.785 374.09 364.215 379.07 359.07 383.336C356.438 385.516 353.652 387.52 350.75 389.328C348.234 390.898 344.715 392.004 342.961 394.438C342.363 395.27 342.895 396.215 343.871 396.273C346.867 396.445 349.789 394.188 352.246 392.676C355.332 390.777 358.277 388.652 361.059 386.336C366.609 381.715 371.551 376.402 375.707 370.496C383.965 358.766 388.832 345.211 389.676 330.883ZM468.688 336.637C463.797 323.766 453.363 314.297 443.406 305.277C442.469 304.426 441.266 305.863 442.133 306.742C450.758 315.551 460.062 324.961 464.348 336.793C466.09 341.594 466.973 346.762 466.613 351.875C466.434 354.457 465.871 356.906 465.195 359.395C464.586 361.648 463.516 364.234 463.293 366.52C463.215 367.324 463.961 367.773 464.652 367.422C469.32 365.07 470.93 358.289 471.301 353.582C471.754 347.859 470.719 341.988 468.688 336.637ZM416.656 368.664C413.547 366.273 410.883 363.414 408.719 360.145C407.992 359.043 406.328 360.16 407.016 361.277C409.199 364.82 411.973 368.016 415.219 370.629C418.352 373.148 422.191 375.406 426.184 376.078C427.055 376.227 427.41 375.051 426.656 374.633C423.223 372.73 419.785 371.07 416.656 368.664ZM473.094 251.25C472.016 245.508 465.715 241.602 460.566 240.004C454.199 238.027 447.383 238.535 440.918 239.754C426.949 242.387 413.43 247.246 400.973 254.074C399.898 254.664 400.801 256.539 401.926 256.016C413.547 250.633 425.703 246.297 438.219 243.539C444.098 242.25 450.258 241.297 456.254 242.293C459.328 242.801 462.312 243.879 465.004 245.457C467.879 247.141 469.734 249.48 472.078 251.754C472.434 252.102 473.191 251.773 473.094 251.25ZM412.922 248.527C414.703 244.707 413.754 239.66 412.871 235.719C411.914 231.441 410.383 227.285 408.438 223.363C404.457 215.324 398.422 208.367 390.988 203.344C390.102 202.746 388.977 203.957 389.871 204.629C396.691 209.77 402.082 216.59 405.523 224.41C407.176 228.16 408.387 232.09 409.039 236.137C409.676 240.09 409.328 244.621 410.684 248.391C411.035 249.371 412.469 249.5 412.922 248.527ZM341.055 262.551C340.457 258 338.57 253.652 337.824 249.109C336.961 243.836 336.867 238.418 337.645 233.129C339.383 221.348 345.43 210.648 354.227 202.691C354.934 202.055 353.855 200.812 353.113 201.426C343.52 209.324 336.75 220.277 334.242 232.48C333.098 238.035 332.867 243.781 333.543 249.406C334.012 253.309 334.707 257.668 336.578 261.281C332.867 260.457 329.078 260.07 325.277 260.145C317.531 260.305 310.109 262.301 303.32 266.023C302.363 266.551 303.168 268.215 304.168 267.758C310.727 264.734 318.047 263.23 325.262 263.301C328.836 263.336 332.434 263.777 335.918 264.574C339.359 265.359 342.859 267 346.375 267.281C347.152 267.34 347.551 266.52 347.02 265.945C345.5 264.301 343.316 263.316 341.055 262.551ZM1284.94 335.531C1283.59 339.023 1281.85 342.355 1280.06 345.637C1278.21 349.016 1275.78 352.289 1274.93 356.098C1274.64 357.434 1276.36 358.695 1277.5 357.797C1280.48 355.449 1282.37 352.012 1284.26 348.781C1286.24 345.395 1287.97 341.883 1289.32 338.195C1291.59 331.973 1292.87 325.266 1292.04 318.637C1291.64 315.418 1290.63 312.543 1289.3 309.82C1291.01 308.164 1292.73 306.527 1294.48 304.934C1295.6 303.918 1296.71 302.91 1297.89 301.965C1299.15 300.961 1300.49 300.098 1301.46 298.789C1302.11 297.914 1301.35 296.922 1300.34 297.121C1298.69 297.453 1297.34 298.43 1295.96 299.371C1294.65 300.277 1293.34 301.219 1292.12 302.25C1290.46 303.656 1289.18 305.395 1287.81 307.062C1286.43 304.73 1284.87 302.469 1283.13 300.242C1278.69 294.535 1273.53 287.676 1275.77 280.027C1276.1 278.926 1274.27 278.316 1273.85 279.395C1268.31 293.441 1284.03 303.004 1286.95 315.367C1288.53 322.051 1287.38 329.207 1284.94 335.531ZM1392.94 382.895C1394.39 382.492 1395.84 382.039 1397.25 381.488C1400.74 380.109 1404.04 378.184 1407.13 376.066C1408.36 375.223 1407.14 373.496 1405.86 374.164C1402.69 375.828 1399.37 377.102 1396 378.293C1394.36 378.871 1392.68 379.324 1391.03 379.859C1389.35 380.398 1387.53 380.836 1386.21 382.066C1386.16 382.109 1386.19 382.184 1386.16 382.234C1383.89 382.191 1381.61 382.211 1379.36 382.449C1373.21 383.113 1367.2 384.805 1361.39 386.895C1355.5 389.016 1349.11 391.57 1344.22 395.582C1343.54 396.141 1343.75 397.613 1344.85 397.422C1350.53 396.434 1355.93 393.82 1361.27 391.754C1366.87 389.59 1372.63 387.816 1378.57 386.859C1389.12 385.16 1400.11 386.332 1409.38 391.906C1410.4 392.523 1411.45 390.895 1410.53 390.156C1405.41 386.094 1399.3 383.906 1392.94 382.895ZM1400.8 501.871C1399.88 501.035 1398.64 500.609 1397.47 500.211C1396.3 499.812 1395.12 499.441 1393.93 499.133C1393.12 498.922 1392.29 498.824 1391.47 498.648C1396.7 496.082 1401.61 492.418 1407.46 491.703C1408.44 491.582 1408.35 490.141 1407.36 490.172C1401.08 490.383 1395.91 493.859 1390.34 496.281C1387.39 497.559 1384.38 498.395 1381.15 498.359C1379.58 498.34 1378.04 498.137 1376.52 497.773C1375.26 497.477 1373.29 496.52 1372.04 497.086C1371.62 497.277 1371.43 497.648 1371.54 498.102C1371.9 499.504 1373.9 500.137 1375.12 500.547C1376.7 501.078 1378.38 501.312 1380.04 501.398C1382.88 501.551 1385.68 500.926 1388.34 499.961C1390.05 500.293 1391.76 500.609 1393.43 501.082C1394.57 501.406 1395.7 501.742 1396.82 502.105C1397.43 502.305 1398.04 502.484 1398.66 502.672C1399.28 502.863 1399.78 502.965 1400.43 502.977C1401 502.988 1401.18 502.215 1400.8 501.871Z" fill="#d4e6b5" fill-rule="nonzero" opacity="1" stroke="none" vectornator:layerName="path"/>
</g>
</g>
</g>
</g>
</g>
</svg>
