<?xml version="1.0" encoding="UTF-8" standalone="no"?>
<!DOCTYPE svg PUBLIC "-//W3C//DTD SVG 1.1//EN" "http://www.w3.org/Graphics/SVG/1.1/DTD/svg11.dtd">
<!-- Created with Vectornator (http://vectornator.io/) -->
<svg height="100%" stroke-miterlimit="10" style="fill-rule:nonzero;clip-rule:evenodd;stroke-linecap:round;stroke-linejoin:round;" version="1.1" viewBox="0 0 1180 1550" width="100%" xml:space="preserve" xmlns="http://www.w3.org/2000/svg" xmlns:vectornator="http://vectornator.io" xmlns:xlink="http://www.w3.org/1999/xlink">
<defs/>
<clipPath id="ArtboardFrame">
<rect height="1550" width="1180" x="0" y="0"/>
</clipPath>
<g clip-path="url(#ArtboardFrame)" id="Untitled" vectornator:layerName="Untitled">
<path d="M445.137 506.699C419.934 466.852 390.613 428.805 357.977 393.641C353.828 389.172 346.844 388.918 342.379 393.066C337.922 397.203 337.656 404.188 341.805 408.656C373.527 442.832 402.02 479.785 426.508 518.504C456.059 565.082 480.57 615.223 499.43 667.68C501.473 673.352 507.617 676.363 513.316 674.41C519.141 672.414 522.273 666.004 520.191 660.211C500.777 606.219 475.551 554.621 445.137 506.699Z" fill="#65a888" fill-rule="nonzero" opacity="1" stroke="none" vectornator:layerName="path"/>
<path d="M500.125 675.02C479.941 672.59 452.145 667.406 421.035 655.488C410.559 651.406 399.746 646.66 388.605 640.922C330.695 611.02 295.289 570.523 277.418 546.688C301.023 546.246 367.648 548.234 430.191 594.246C467.918 621.941 489.094 654.715 500.125 675.02Z" fill="#65a888" fill-rule="nonzero" opacity="1" stroke="none" vectornator:layerName="path"/>
<g opacity="1" vectornator:layerName="path">
<clipPath id="ClipPath">
<path d="M193 153.086L350 153.086L350 402L193 402L193 153.086Z"/>
</clipPath>
<g clip-path="url(#ClipPath)">
<path d="M317.348 280.535C342.059 328.758 348.344 373.445 349.891 401.145C325.18 386.023 288.781 359.32 256.68 315.957C208.586 251.074 197.117 184.977 193.695 153.086C219.73 167.652 279.184 205.832 317.348 280.535Z" fill="#65a888" fill-rule="nonzero" opacity="1" stroke="none" vectornator:layerName="path"/>
</g>
</g>
<path d="M445.746 769.805C452.031 814.605 497.699 852.012 554.508 851.02C544.578 860.066 530.129 873.859 513.691 891.738C483.91 924.066 466.48 949.559 459.312 959.379C440.121 933.559 384.965 854.77 377.688 769.805C373.496 720.48 387.723 694.77 391.363 688.59C400.078 673.473 411.328 662.77 421.035 655.488C452.145 667.406 479.941 672.59 500.125 675.02C467.805 683.293 439.789 728.426 445.746 769.805Z" fill="#524956" fill-rule="nonzero" opacity="1" stroke="none" vectornator:layerName="path"/>
<path d="M464.496 1171.13C477.07 1192.54 492.184 1224.98 500.125 1270.77C421.477 1290.19 365 1304.32 336.875 1311.38C242.562 1335.1 215.977 1342.05 173.73 1338.52C143.398 1335.88 94.1992 1331.68 51.4023 1297.8C41.9141 1290.41 34.8555 1283.13 25.6992 1271.21C0.992188 1238.77 23.1641 1192.43 63.9766 1189.67C64.3086 1189.56 64.6406 1189.56 64.9688 1189.56C100.82 1187.02 132.809 1181.95 160.164 1175.98C201.969 1130.08 241.129 1100.07 268.926 1081.2C337.203 1034.96 385.961 1023.05 424.676 994.246C413.535 1019.96 403.609 1055.49 414.641 1091.57C424.016 1122.58 442.656 1133.83 464.496 1171.13Z" fill="#524956" fill-rule="nonzero" opacity="1" stroke="none" vectornator:layerName="path"/>
<path d="M1179.94 810.414C1188.98 949.777 1182.37 1019.74 1179.94 1094.77C1178.73 1133.06 1162.4 1220.01 1111.99 1284.34C1063.12 1346.58 1021.1 1333.01 839.977 1406.16C682.461 1469.84 669.223 1498.19 568.074 1514.52C460.746 1531.74 395.445 1512.65 364.117 1500.95C360.258 1499.52 356.398 1497.97 352.758 1496.43C302.566 1475.68 309.078 1401.31 362.797 1392.81C363.234 1392.7 363.676 1392.7 364.117 1392.59C365.113 1392.48 372.062 1391.93 381.328 1391.49C407.91 1390.28 426.551 1392.26 432.066 1392.59C469.461 1395.02 516.008 1359.82 540.828 1324.95C547.777 1315.13 552.742 1305.75 556.383 1296.59L556.492 1296.59C562.117 1282.8 564.984 1269.67 568.074 1257.2C582.305 1200.81 608.887 1095.98 676.836 1040.59C750.301 980.785 843.727 985.531 853.656 986.414C918.293 992.371 969.145 1025.59 989.551 1040.59C1040.95 1078.44 1049.01 1111.77 1071.18 1108.34C1096.66 1104.37 1104.38 1057.25 1139.12 945.805C1155.67 892.84 1170.45 836.895 1179.94 810.414Z" fill="#504256" fill-rule="nonzero" opacity="1" stroke="none" vectornator:layerName="path"/>
<path d="M513.473 674.355C526.379 676.676 535.863 687.266 568.074 688.59C603.039 690.027 618.594 678.551 649.699 688.59C665.031 693.559 663.047 696.977 676.836 702.164C717.316 717.172 761.551 697.973 812.844 675.02C856.742 655.379 847.59 653.391 867.223 647.984C906.824 637.059 932.965 648.535 1003.12 661.559C1004.33 661.777 1005.44 661.887 1006.65 662.109C1074.71 674.469 1118.94 742.77 1098.86 808.648C1098.75 809.309 1098.54 809.859 1098.31 810.414C1091.03 833.695 1070.52 899.238 1016.8 918.77C996.5 926.164 976.094 923.625 935.172 918.77C877.48 911.82 861.598 897.363 826.41 905.199C797.73 911.598 801.48 922.742 772.027 932.344C709.043 952.758 644.516 917.336 622.453 905.199C605.027 895.707 579.656 879.047 554.508 851.02C497.699 852.012 452.031 814.605 445.746 769.805C439.789 728.426 467.805 683.293 500.125 675.02C505.309 673.695 509.5 673.695 513.473 674.355Z" fill="#504256" fill-rule="nonzero" opacity="1" stroke="none" vectornator:layerName="path"/>
<path d="M633.043 570.082C636.684 575.707 627.199 587.734 622.453 593.805C615.727 602.41 603.594 617.75 588.039 617.086C580.098 616.758 571.492 609.145 554.508 593.805C545.684 585.969 538.734 579.02 533.77 573.941C546.453 574.938 564.766 575.598 586.824 573.391C612.418 570.965 628.961 563.793 633.043 570.082Z" fill="#504256" fill-rule="nonzero" opacity="1" stroke="none" vectornator:layerName="path"/>
<path d="M581.641 429.059C583.188 438.66 585.281 453.113 581.09 471.102C578.664 481.586 573.039 497.363 564.543 510.055C556.711 521.641 546.562 530.688 534.211 531.02C514.797 531.57 500.457 510.496 497.477 506.301C494.941 502.551 483.137 484.453 487.332 462.715C489.535 451.461 494.281 448.039 528.145 412.066C550.645 388.121 554.949 382.938 561.125 384.148C575.023 386.797 579.988 418.027 581.641 429.059Z" fill="#504256" fill-rule="nonzero" opacity="1" stroke="none" vectornator:layerName="path"/>
<path d="M877.922 447.488C885.977 470.992 864.246 498.797 858.066 506.523C851.449 514.91 836.891 533.227 812.512 537.641C788.906 541.941 770.043 530.469 753.938 520.758C741.914 513.586 692.5 483.68 687.977 430.496C687.203 420.895 684.887 389.887 701.984 377.75C716.988 367.156 735.188 383.156 803.797 409.75C855.309 429.613 872.297 431.156 877.922 447.488Z" fill="#504256" fill-rule="nonzero" opacity="1" stroke="none" vectornator:layerName="path"/>
<path d="M602.047 222.051C599.73 224.039 597.414 226.023 595.211 228.23C579.105 244.012 581.75 250.523 549.434 308.012C526.82 300.508 516.891 287.375 513.691 282.41C489.977 246.66 517.223 196.672 540.828 174.164C547.559 167.762 557.484 158.605 568.074 160.59C580.539 162.906 587.047 179.461 595.211 201.199C597.414 207.047 599.844 213.996 602.047 222.051Z" fill="#504256" fill-rule="nonzero" opacity="1" stroke="none" vectornator:layerName="path"/>
<path d="M908.035 174.164C924.801 185.859 927.34 211.789 922.816 237.5C920.059 253.723 914.543 269.941 908.035 282.41C901.086 295.543 889.836 317.059 867.223 323.02C835.566 331.406 806.555 303.156 799.164 295.984C789.68 286.715 769.273 266.742 772.027 241.805C774.566 219.184 794.863 204.727 813.504 194.465C818.027 191.93 822.328 189.723 826.41 187.625C846.598 177.363 884.762 157.832 908.035 174.164Z" fill="#504256" fill-rule="nonzero" opacity="1" stroke="none" vectornator:layerName="path"/>
<path id="pandabody" d="M486.449 539.625C479.387 481.031 476.078 450.906 486.449 417.805C495.051 390.438 501.668 390.77 540.828 323.02C543.918 317.613 546.785 312.645 549.434 308.012C581.75 250.523 579.105 244.012 595.211 228.23C597.414 226.023 599.73 224.039 602.047 222.051C644.184 186.852 703.09 187.293 744.785 187.625C754.492 187.734 780.523 187.957 813.504 194.465C794.863 204.727 774.566 219.184 772.027 241.805C769.27 266.742 789.68 286.715 799.164 295.984C806.555 303.156 835.566 331.406 867.223 323.02C889.836 317.059 901.086 295.543 908.035 282.41C914.543 269.941 920.059 253.723 922.816 237.5L922.926 237.5C936.496 246.328 949.73 256.699 962.418 268.84C985.25 291.02 982.051 296.094 1043.93 404.23C1124.12 544.371 1134.27 544.371 1152.7 593.805C1168.25 635.516 1172.33 694.328 1179.94 810.414C1170.45 836.895 1155.67 892.84 1139.12 945.805C1104.38 1057.25 1096.66 1104.37 1071.18 1108.34C1049.01 1111.77 1040.95 1078.44 989.551 1040.59C969.145 1025.59 918.293 992.371 853.656 986.414C843.727 985.531 750.297 980.785 676.836 1040.59C608.887 1095.98 582.305 1200.81 568.074 1257.2C564.984 1269.67 562.117 1282.8 556.492 1296.59L556.383 1296.59C549.762 1296.7 536.969 1296.04 523.07 1289.09C511.488 1283.24 504.098 1275.62 500.125 1270.77C492.184 1224.98 477.07 1192.54 464.496 1171.13C442.656 1133.83 424.016 1122.58 414.641 1091.57C403.609 1055.49 413.535 1019.96 424.676 994.246C437.141 984.977 448.613 973.945 459.312 959.379C466.48 949.559 483.91 924.066 513.691 891.738C530.129 873.859 544.578 860.066 554.508 851.02C579.656 879.047 605.027 895.707 622.453 905.199C644.516 917.336 709.043 952.758 772.027 932.344C801.48 922.742 797.73 911.598 826.41 905.199C861.598 897.363 877.48 911.82 935.172 918.77C976.094 923.625 996.5 926.164 1016.8 918.77C1070.52 899.238 1091.04 833.695 1098.31 810.414C1098.54 809.859 1098.75 809.309 1098.86 808.648C1118.94 742.77 1074.71 674.469 1006.65 662.109C1005.44 661.887 1004.33 661.777 1003.12 661.559C932.965 648.535 906.824 637.059 867.223 647.984C847.59 653.391 856.742 655.379 812.844 675.02C761.551 697.969 717.316 717.172 676.836 702.164C663.047 696.977 665.031 693.559 649.699 688.59C618.594 678.551 603.039 690.027 568.074 688.59C535.863 687.266 526.379 676.676 513.473 674.355C498.031 619.293 490.527 572.84 486.449 539.625ZM533.77 573.941C538.734 579.02 545.684 585.969 554.508 593.805C571.492 609.145 580.098 616.758 588.039 617.086C603.594 617.75 615.727 602.41 622.453 593.805C627.199 587.734 636.684 575.707 633.043 570.082C628.961 563.793 612.418 570.965 586.824 573.391C564.766 575.598 546.453 574.938 533.77 573.941ZM564.543 510.055C573.039 497.363 578.664 481.586 581.09 471.102C585.281 453.113 583.188 438.66 581.641 429.059C579.988 418.023 575.023 386.797 561.125 384.148C554.949 382.938 550.645 388.121 528.145 412.066C494.281 448.039 489.535 451.461 487.332 462.715C483.137 484.453 494.941 502.551 497.477 506.301C500.457 510.496 514.797 531.57 534.211 531.02C546.562 530.688 556.711 521.641 564.543 510.055ZM858.066 506.523C864.246 498.797 885.977 470.992 877.922 447.488C872.297 431.156 855.309 429.613 803.797 409.75C735.188 383.156 716.988 367.156 701.984 377.75C684.887 389.887 687.203 420.895 687.977 430.496C692.5 483.68 741.914 513.586 753.938 520.758C770.043 530.469 788.906 541.941 812.512 537.641C836.891 533.227 851.449 514.91 858.066 506.523Z" fill="#efdaca" fill-rule="nonzero" opacity="1" stroke="none" vectornator:layerName="path">
    <animate xlink:href="#pandabody"
    attributeName="d"
    attributeType="XML"
    values="M486.449 539.625C479.387 481.031 476.078 450.906 486.449 417.805C495.051 390.438 501.668 390.77 540.828 323.02C543.918 317.613 546.785 312.645 549.434 308.012C581.75 250.523 579.105 244.012 595.211 228.23C597.414 226.023 599.73 224.039 602.047 222.051C644.184 186.852 703.09 187.293 744.785 187.625C754.492 187.734 780.523 187.957 813.504 194.465C794.863 204.727 774.566 219.184 772.027 241.805C769.27 266.742 789.68 286.715 799.164 295.984C806.555 303.156 835.566 331.406 867.223 323.02C889.836 317.059 901.086 295.543 908.035 282.41C914.543 269.941 920.059 253.723 922.816 237.5L922.926 237.5C936.496 246.328 949.73 256.699 962.418 268.84C985.25 291.02 982.051 296.094 1043.93 404.23C1124.12 544.371 1134.27 544.371 1152.7 593.805C1168.25 635.516 1172.33 694.328 1179.94 810.414C1170.45 836.895 1155.67 892.84 1139.12 945.805C1104.38 1057.25 1096.66 1104.37 1071.18 1108.34C1049.01 1111.77 1040.95 1078.44 989.551 1040.59C969.145 1025.59 918.293 992.371 853.656 986.414C843.727 985.531 750.297 980.785 676.836 1040.59C608.887 1095.98 582.305 1200.81 568.074 1257.2C564.984 1269.67 562.117 1282.8 556.492 1296.59L556.383 1296.59C549.762 1296.7 536.969 1296.04 523.07 1289.09C511.488 1283.24 504.098 1275.62 500.125 1270.77C492.184 1224.98 477.07 1192.54 464.496 1171.13C442.656 1133.83 424.016 1122.58 414.641 1091.57C403.609 1055.49 413.535 1019.96 424.676 994.246C437.141 984.977 448.613 973.945 459.312 959.379C466.48 949.559 483.91 924.066 513.691 891.738C530.129 873.859 544.578 860.066 554.508 851.02C579.656 879.047 605.027 895.707 622.453 905.199C644.516 917.336 709.043 952.758 772.027 932.344C801.48 922.742 797.73 911.598 826.41 905.199C861.598 897.363 877.48 911.82 935.172 918.77C976.094 923.625 996.5 926.164 1016.8 918.77C1070.52 899.238 1091.04 833.695 1098.31 810.414C1098.54 809.859 1098.75 809.309 1098.86 808.648C1118.94 742.77 1074.71 674.469 1006.65 662.109C1005.44 661.887 1004.33 661.777 1003.12 661.559C932.965 648.535 906.824 637.059 867.223 647.984C847.59 653.391 856.742 655.379 812.844 675.02C761.551 697.969 717.316 717.172 676.836 702.164C663.047 696.977 665.031 693.559 649.699 688.59C618.594 678.551 603.039 690.027 568.074 688.59C535.863 687.266 526.379 676.676 513.473 674.355C498.031 619.293 490.527 572.84 486.449 539.625ZM533.77 573.941C538.734 579.02 545.684 585.969 554.508 593.805C571.492 609.145 580.098 616.758 588.039 617.086C603.594 617.75 615.727 602.41 622.453 593.805C627.199 587.734 636.684 575.707 633.043 570.082C628.961 563.793 612.418 570.965 586.824 573.391C564.766 575.598 546.453 574.938 533.77 573.941ZM564.543 510.055C573.039 497.363 578.664 481.586 581.09 471.102C585.281 453.113 583.188 438.66 581.641 429.059C579.988 418.023 575.023 386.797 561.125 384.148C554.949 382.938 550.645 388.121 528.145 412.066C494.281 448.039 489.535 451.461 487.332 462.715C483.137 484.453 494.941 502.551 497.477 506.301C500.457 510.496 514.797 531.57 534.211 531.02C546.562 530.688 556.711 521.641 564.543 510.055ZM858.066 506.523C864.246 498.797 885.977 470.992 877.922 447.488C872.297 431.156 855.309 429.613 803.797 409.75C735.188 383.156 716.988 367.156 701.984 377.75C684.887 389.887 687.203 420.895 687.977 430.496C692.5 483.68 741.914 513.586 753.938 520.758C770.043 530.469 788.906 541.941 812.512 537.641C836.891 533.227 851.449 514.91 858.066 506.523Z;
    M486.449 539.625C479.387 481.031 476.078 450.906 486.449 417.805C495.051 390.438 501.668 390.77 540.828 323.02C543.918 317.613 546.785 312.645 549.434 308.012C581.75 250.523 579.105 244.012 595.211 228.23C597.414 226.023 599.73 224.039 602.047 222.051C644.184 186.852 703.09 187.293 744.785 187.625C754.492 187.734 780.523 187.957 813.504 194.465C794.863 204.727 774.566 219.184 772.027 241.805C769.27 266.742 789.68 286.715 799.164 295.984C806.555 303.156 835.566 331.406 867.223 323.02C889.836 317.059 901.086 295.543 908.035 282.41C914.543 269.941 920.059 253.723 922.816 237.5L922.926 237.5C936.496 246.328 949.73 256.699 962.418 268.84C985.25 291.02 982.051 296.094 1043.93 404.23C1124.12 544.371 1134.27 544.371 1152.7 593.805C1168.25 635.516 1172.33 694.328 1179.94 810.414C1170.45 836.895 1155.67 892.84 1139.12 945.805C1104.38 1057.25 1096.66 1104.37 1071.18 1108.34C1049.01 1111.77 1040.95 1078.44 989.551 1040.59C969.145 1025.59 918.293 992.371 853.656 986.414C843.727 985.531 750.297 980.785 676.836 1040.59C608.887 1095.98 582.305 1200.81 568.074 1257.2C564.984 1269.67 562.117 1282.8 556.492 1296.59L556.383 1296.59C549.762 1296.7 536.969 1296.04 523.07 1289.09C511.488 1283.24 504.098 1275.62 500.125 1270.77C492.184 1224.98 477.07 1192.54 464.496 1171.13C442.656 1133.83 424.016 1122.58 414.641 1091.57C403.609 1055.49 413.535 1019.96 424.676 994.246C437.141 984.977 448.613 973.945 459.312 959.379C466.48 949.559 483.91 924.066 513.691 891.738C530.129 873.859 544.578 860.066 554.508 851.02C579.656 879.047 605.027 895.707 622.453 905.199C644.516 917.336 709.043 952.758 772.027 932.344C801.48 922.742 797.73 911.598 826.41 905.199C861.598 897.363 877.48 911.82 935.172 918.77C976.094 923.625 996.5 926.164 1016.8 918.77C1070.52 899.238 1091.04 833.695 1098.31 810.414C1098.54 809.859 1098.75 809.309 1098.86 808.648C1118.94 742.77 1074.71 674.469 1006.65 662.109C1005.44 661.887 1004.33 661.777 1003.12 661.559C932.965 648.535 906.824 637.059 867.223 647.984C847.59 653.391 852.598 680.346 808.699 699.986C757.406 722.936 717.316 717.172 676.836 702.164C663.047 696.977 665.031 693.559 649.699 688.59C618.594 678.551 603.039 690.027 568.074 688.59C535.863 687.266 504.552 689.135 486.439 667.526C459.159 634.981 490.527 572.84 486.449 539.625ZM533.77 573.941C538.734 579.02 545.684 585.969 554.508 593.805C571.492 609.145 580.098 616.758 588.039 617.086C603.594 617.75 615.727 602.41 622.453 593.805C627.199 587.734 636.684 575.707 633.043 570.082C628.961 563.793 612.418 570.965 586.824 573.391C564.766 575.598 546.453 574.938 533.77 573.941ZM564.543 510.055C573.039 497.363 578.664 481.586 581.09 471.102C585.281 453.113 583.188 438.66 581.641 429.059C579.988 418.023 575.023 386.797 561.125 384.148C554.949 382.938 550.645 388.121 528.145 412.066C494.281 448.039 489.535 451.461 487.332 462.715C483.137 484.453 494.941 502.551 497.477 506.301C500.457 510.496 514.797 531.57 534.211 531.02C546.562 530.688 556.711 521.641 564.543 510.055ZM858.066 506.523C864.246 498.797 885.977 470.992 877.922 447.488C872.297 431.156 855.309 429.613 803.797 409.75C735.188 383.156 716.988 367.156 701.984 377.75C684.887 389.887 687.203 420.895 687.977 430.496C692.5 483.68 741.914 513.586 753.938 520.758C770.043 530.469 788.906 541.941 812.512 537.641C836.891 533.227 851.449 514.91 858.066 506.523Z;
    M486.449 539.625C479.387 481.031 476.078 450.906 486.449 417.805C495.051 390.438 501.668 390.77 540.828 323.02C543.918 317.613 546.785 312.645 549.434 308.012C581.75 250.523 579.105 244.012 595.211 228.23C597.414 226.023 599.73 224.039 602.047 222.051C644.184 186.852 703.09 187.293 744.785 187.625C754.492 187.734 780.523 187.957 813.504 194.465C794.863 204.727 774.566 219.184 772.027 241.805C769.27 266.742 789.68 286.715 799.164 295.984C806.555 303.156 835.566 331.406 867.223 323.02C889.836 317.059 901.086 295.543 908.035 282.41C914.543 269.941 920.059 253.723 922.816 237.5L922.926 237.5C936.496 246.328 949.73 256.699 962.418 268.84C985.25 291.02 982.051 296.094 1043.93 404.23C1124.12 544.371 1134.27 544.371 1152.7 593.805C1168.25 635.516 1172.33 694.328 1179.94 810.414C1170.45 836.895 1155.67 892.84 1139.12 945.805C1104.38 1057.25 1096.66 1104.37 1071.18 1108.34C1049.01 1111.77 1040.95 1078.44 989.551 1040.59C969.145 1025.59 918.293 992.371 853.656 986.414C843.727 985.531 750.297 980.785 676.836 1040.59C608.887 1095.98 582.305 1200.81 568.074 1257.2C564.984 1269.67 562.117 1282.8 556.492 1296.59L556.383 1296.59C549.762 1296.7 536.969 1296.04 523.07 1289.09C511.488 1283.24 504.098 1275.62 500.125 1270.77C492.184 1224.98 477.07 1192.54 464.496 1171.13C442.656 1133.83 424.016 1122.58 414.641 1091.57C403.609 1055.49 413.535 1019.96 424.676 994.246C437.141 984.977 448.613 973.945 459.312 959.379C466.48 949.559 483.91 924.066 513.691 891.738C530.129 873.859 544.578 860.066 554.508 851.02C579.656 879.047 605.027 895.707 622.453 905.199C644.516 917.336 709.043 952.758 772.027 932.344C801.48 922.742 797.73 911.598 826.41 905.199C861.598 897.363 877.48 911.82 935.172 918.77C976.094 923.625 996.5 926.164 1016.8 918.77C1070.52 899.238 1091.04 833.695 1098.31 810.414C1098.54 809.859 1098.75 809.309 1098.86 808.648C1118.94 742.77 1074.71 674.469 1006.65 662.109C1005.44 661.887 1004.33 661.777 1003.12 661.559C932.965 648.535 906.824 637.059 867.223 647.984C847.59 653.391 856.742 655.379 812.844 675.02C761.551 697.969 717.316 717.172 676.836 702.164C663.047 696.977 665.031 693.559 649.699 688.59C618.594 678.551 603.039 690.027 568.074 688.59C535.863 687.266 526.379 676.676 513.473 674.355C498.031 619.293 490.527 572.84 486.449 539.625ZM533.77 573.941C538.734 579.02 545.684 585.969 554.508 593.805C571.492 609.145 580.098 616.758 588.039 617.086C603.594 617.75 615.727 602.41 622.453 593.805C627.199 587.734 636.684 575.707 633.043 570.082C628.961 563.793 612.418 570.965 586.824 573.391C564.766 575.598 546.453 574.938 533.77 573.941ZM564.543 510.055C573.039 497.363 578.664 481.586 581.09 471.102C585.281 453.113 583.188 438.66 581.641 429.059C579.988 418.023 575.023 386.797 561.125 384.148C554.949 382.938 550.645 388.121 528.145 412.066C494.281 448.039 489.535 451.461 487.332 462.715C483.137 484.453 494.941 502.551 497.477 506.301C500.457 510.496 514.797 531.57 534.211 531.02C546.562 530.688 556.711 521.641 564.543 510.055ZM858.066 506.523C864.246 498.797 885.977 470.992 877.922 447.488C872.297 431.156 855.309 429.613 803.797 409.75C735.188 383.156 716.988 367.156 701.984 377.75C684.887 389.887 687.203 420.895 687.977 430.496C692.5 483.68 741.914 513.586 753.938 520.758C770.043 530.469 788.906 541.941 812.512 537.641C836.891 533.227 851.449 514.91 858.066 506.523Z;"
    dur="1s"
    repeatCount="indefinite"
    fill="freeze"
    />
</path>
</g>
</svg>
